<ttFont>
          <CharString index="0">
            -106 callsubr
            17 294 41 35 45 226 callsubr
            return
          </CharString>
          <CharString index="1">
            118 callsubr
            rlineto
            40 -33 -95 callsubr
            10 -12 rcurveline
            -41 -67 -25 -101 33 callgsubr
            return
          </CharString>
          <CharString index="2">
            408 -104 callsubr
          </CharString>
          <CharString index="3">
            -85 callgsubr
            132 -106 callgsubr
          </CharString>
          <CharString index="4">
            293 callgsubr
            -65 -101 -72 -110 -21 -15 11 -15 12 -14 14 -61 85 callsubr
            -84 callgsubr
            return
          </CharString>
          <CharString index="5">
            -16 -102 callgsubr
            return
          </CharString>
          <CharString index="6">
            hlineto
            -101 callgsubr
            return
          </CharString>
          <CharString index="7">
            -145 -98 callgsubr
            return
          </CharString>
          <CharString index="8">
            -97 callgsubr
            47 -48 88 -13 return
          </CharString>
          <CharString index="9">
            hlineto
            -102 callsubr
            return
          </CharString>
          <CharString index="10">
            rrcurveto
            -103 -43 -109 -100 -87 vvcurveto
            -77 93 -123 105 -58 vhcurveto
            94 17 34 67 -21 41 -87 42 -36 45 -18 55 3 52 48 63 35 9 31 -4 19 112 callsubr
            return
          </CharString>
          <CharString index="11">
            -53 callgsubr
            2 -31 -1 -33 -4 -33 rlinecurve
            -72 -29 -71 -26 -56 -17 -37 -19 -9 -38 1 -48 29 -51 62 -45 62 -15 57 -6 76 18 33 39 43 102 32 178 7 137 rrcurveto
            return
          </CharString>
          <CharString index="12">
            -45 56 -28 hhcurveto
            -139 -140 -142 -127 -104 96 207 callsubr
            hvcurveto
            16 callsubr
            return
          </CharString>
          <CharString index="13">
            -101 callgsubr
            136 hlineto
            -4 131 callgsubr
            30 31 45 21 34 hhcurveto
            15 13 -13 -11 5 hvcurveto
            -3 -72 -78 -62 -113 344 callgsubr
            -97 125 -90 119 -22 return
          </CharString>
          <CharString index="14">
            rmoveto
            -54 -44 -65 -52 -59 -46 rrcurveto
            -30 19 -12 32 39 vvcurveto
            90 56 95 97 46 vhcurveto
            35 -22 27 -33 20 -41 rrcurveto
            231 147 rmoveto
            -22 54 -54 10 -113 -18 -16 -28 -4 -34 2 -48 -25 44 -33 46 -37 25 -216 -5 -144 -182 1 -151 1 -108 68 -88 167 -7 47 48 56 54 46 45 15 -15 rcurveline
            -43 -97 60 -53 112 -11 42 37 rlinecurve
            -6 116 -1 105 5 95 rrcurveto
            return
          </CharString>
          <CharString index="15">
            -5 59 -29 43 -62 20 -31 7 -45 2 -45 -5 -97 callsubr
            -17 return
          </CharString>
          <CharString index="16">
            hlineto
            -94 callsubr
            return
          </CharString>
          <CharString index="17">
            -81 callsubr
            -85 callgsubr
            return
          </CharString>
          <CharString index="18">
            rmoveto
            88 -78 77 39 29 66 -37 68 rlinecurve
            -219 13 -126 -4 -205 -17 -15 -15 -2 -31 10 -27 26 -6 21 -6 18 -8 2 -143 rcurveline
            -33 -154 -29 -80 -54 -146 5 -57 46 -35 87 -21 370 26 rcurveline
            36 44 18 76 -63 20 -95 -24 -116 -21 -100 -15 45 222 rcurveline
            83 78 -6 -7 75 hvcurveto
            24 40 12 54 -33 28 -74 -7 -72 -10 -82 -11 27 144 rcurveline
            31 85 64 10 39 -4 44 -2 rlinecurve
            return
          </CharString>
          <CharString index="19">
            -83 callgsubr
            -62 84 return
          </CharString>
          <CharString index="20">
            67 -54 101 -11 return
          </CharString>
          <CharString index="21">
            -27 36 -50 4 -108 448 callsubr
            -142 -77 callgsubr
            -115 -515 188 callgsubr
            69 52 callgsubr
            return
          </CharString>
          <CharString index="22">
            -14 callgsubr
            222 -222 rmoveto
            -44 -20 -51 -15 -66 -7 -34 16 -31 19 -14 41 -3 6 -3 6 -3 7 68 13 83 21 46 23 74 99 0 91 -75 25 -90 19 -83 -12 -98 -31 -76 -56 -43 -74 -15 -76 rrcurveto
            -6 -85 48 -80 122 -28 71 -30 124 -1 87 36 27 52 10 31 -25 10 rrcurveto
            return
          </CharString>
          <CharString index="23">
            rmoveto
            -24 50 -55 10 -114 -16 -26 -78 -18 -90 -19 -108 -36 -53 -43 -42 -51 -49 -45 13 -19 15 -7 22 47 122 38 128 3 75 -41 55 -93 11 -72 -23 6 -82 1 -94 5 -71 -70 -157 rcurveline
            15 -60 49 -62 171 -20 58 63 44 48 38 51 12 -11 rcurveline
            -45 -103 62 -52 110 -11 43 37 rlinecurve
            271 callsubr
            rrcurveto
            endchar
          </CharString>
          <CharString index="24">
            -13 -50 callgsubr
            return
          </CharString>
          <CharString index="25">
            -13 18 -17 rcurveline
            return
          </CharString>
          <CharString index="26">
            -71 callsubr
            24 408 return
          </CharString>
          <CharString index="27">
            hlineto
            -87 callgsubr
            return
          </CharString>
          <CharString index="28">
            67 -54 101 -11 40 31 -70 callgsubr
          </CharString>
          <CharString index="29">
            55 156 -76 callsubr
            return
          </CharString>
          <CharString index="30">
            hlineto
            205 callsubr
            -6 -83 callsubr
            return
          </CharString>
          <CharString index="31">
            92 85 vvcurveto
            18 -10 19 -18 18 vhcurveto
            return
          </CharString>
          <CharString index="32">
            -29 28 -50 11 return
          </CharString>
          <CharString index="33">
            hlineto
            -16 -11 -12 -17 -7 -13 19 -17 rcurveline
            224 hlineto
            -75 -32 -65 -40 -48 -42 -23 -57 51 -66 66 -30 45 11 48 15 33 13 7 -10 rcurveline
            -72 -43 -87 -66 -17 248 callgsubr
            88 191 callgsubr
            -34 -55 -92 -41 -73 -32 -25 355 callsubr
            return
          </CharString>
          <CharString index="34">
            rmoveto
            -58 -75 -78 -32 callgsubr
            67 55 157 43 callgsubr
            return
          </CharString>
          <CharString index="35">
            rmoveto
            48 -57 24 -59 6 -85 -21 -82 -48 -61 -85 -51 -40 38 -26 56 -1 57 8 89 56 93 79 62 rrcurveto
            -316 -238 rmoveto
            -124 122 -120 103 162 172 165 141 -1 vhcurveto
            102 -2 -117 158 -102 hhcurveto
            -193 -144 -205 -117 hvcurveto
            return
          </CharString>
          <CharString index="36">
            -76 callgsubr
            rlinecurve
            return
          </CharString>
          <CharString index="37">
            -28 callgsubr
            endchar
          </CharString>
          <CharString index="38">
            160 callgsubr
            3 8 rcurveline
            146 19 149 96 115 vvcurveto
            20 -17 25 -26 22 vhcurveto
            return
          </CharString>
          <CharString index="39">
            234 callsubr
            37 21 23 -6 18 -10 13 -13 rrcurveto
            332 445 rmoveto
            -777 hlineto
            -15 -102 callgsubr
            284 hlineto
            42 -23 34 -20 25 -34 -3 -9 rcurveline
            -81 -49 -127 -47 -104 -49 rrcurveto
            -32 -25 -20 -46 -52 vvcurveto
            44 -111 124 497 callgsubr
            98 201 246 callgsubr
            -80 -55 -71 -49 rrcurveto
            -15 20 -9 20 18 vvcurveto
            52 194 61 92 65 vhcurveto
            34 37 19 41 -16 40 -25 19 -27 16 -29 15 rrcurveto
            346 392 callgsubr
          </CharString>
          <CharString index="40">
            0 callsubr
            68 11 callgsubr
            return
          </CharString>
          <CharString index="41">
            -58 5 -44 -43 -18 -76 342 callgsubr
            return
          </CharString>
          <CharString index="42">
            58 -100 callgsubr
            return
          </CharString>
          <CharString index="43">
            -24 5 30 -16 29 hhcurveto
            17 13 16 8 22 4 9 -11 6 -17 -3 -16 rrcurveto
            -26 -5 -22 -20 -48 hhcurveto
            -57 -40 19 45 -43 hvcurveto
            -17 -1 -14 -21 2 -27 33 -54 75 -39 81 -2 89 -1 74 47 15 87 rrcurveto
            63 11 -39 44 -52 hhcurveto
            -27 -27 -11 -18 -23 hvcurveto
            return
          </CharString>
          <CharString index="44">
            -101 callsubr
            467 377 callsubr
            -65 -101 -72 -110 -21 -15 11 -15 12 -14 14 -102 21 -156 0 -101 158 callgsubr
            416 callsubr
            37 15 69 16 65 2 -7 -15 -4 -17 -2 -18 -84 callgsubr
            return
          </CharString>
          <CharString index="45">
            rmoveto
            110 -18 129 -19 113 -31 92 57 35 42 21 67 -17 57 -55 27 -105 -22 -7 -37 -5 -20 -18 -38 -68 3 -114 4 -72 4 -3 8 rcurveline
            135 113 301 251 69 149 rrcurveto
            82 -12 -66 10 -89 hhcurveto
            -26 -70 -83 18 -124 26 -103 25 rlinecurve
            -84 -30 -47 -62 -29 -77 23 -54 53 -21 97 11 10 42 16 36 31 36 69 -14 84 -7 49 -2 7 -9 rcurveline
            -113 -193 -383 -212 -121 vvcurveto
            -28 6 -26 26 -22 vhcurveto
            67 -8 43 7 40 29 -9 34 rcurveline
            return
          </CharString>
          <CharString index="46">
            2 rrcurveto
            -78 -44 -22 -43 -51 hvcurveto
            -9 -41 18 -28 68 -27 34 33 29 16 30 10 34 -28 11 -34 -1 -43 -12 -59 -38 -39 -44 -26 -25 21 -17 31 -8 36 -34 21 -55 -23 -34 -41 18 -81 66 -61 67 -11 rrcurveto
            return
          </CharString>
          <CharString index="47">
            vvcurveto
            -84 92 50 callsubr
            -68 337 callsubr
            -65 301 callgsubr
            -1 27 17 27 25 21 74 19 76 27 59 31 38 33 23 87 callgsubr
          </CharString>
          <CharString index="48">
            74 44 55 63 63 vvcurveto
            20 -19 25 -28 22 vhcurveto
            return
          </CharString>
          <CharString index="49">
            -11 -11 -17 return
          </CharString>
          <CharString index="50">
            rmoveto
            -146 542 callgsubr
            return
          </CharString>
          <CharString index="51">
            9 -62 84 -35 88 -4 71 61 67 61 68 62 8 -8 rcurveline
            -32 -53 -47 -209 return
          </CharString>
          <CharString index="52">
            -145 -56 callgsubr
            return
          </CharString>
          <CharString index="53">
            rmoveto
            269 callsubr
            -64 -63 -30 -44 -51 hvcurveto
            -31 38 -51 26 -72 -4 -39 callsubr
            502 hlineto
            -51 -248 75 callsubr
            -694 -26 -95 callgsubr
            1328 280 244 callsubr
            -507 -107 callgsubr
            32 31 -27 -39 12 hvcurveto
            -14 -29 -7 -30 -29 vvcurveto
            -104 96 -53 118 -1 vhcurveto
            50 46 callsubr
            -42 -41 -46 -43 callgsubr
            395 392 callgsubr
          </CharString>
          <CharString index="54">
            40 callgsubr
            3 53 -45 36 -75 -1 rrcurveto
            -28 -19 -24 -24 -20 -26 -35 -34 -49 -25 -40 185 callgsubr
            rrcurveto
            193 callsubr
            150 callgsubr
            -65 callgsubr
            28 -2 21 1 21 6 21 8 rlinecurve
            -2 vlineto
            -106 83 -90 87 -23 vhcurveto
            447 callgsubr
            81 5 95 -10 32 rcurveline
            5 6 29 -2 return
          </CharString>
          <CharString index="55">
            -45 -64 -32 -140 -96 callgsubr
          </CharString>
          <CharString index="56">
            rmoveto
            -30 -98 -71 -94 -2 -26 36 -15 35 1 rlinecurve
            196 172 -23 55 -55 17 -86 -12 rlinecurve
            return
          </CharString>
          <CharString index="57">
            hlineto
            7 callgsubr
            return
          </CharString>
          <CharString index="58">
            -75 callgsubr
            119 hlineto
            return
          </CharString>
          <CharString index="59">
            hlineto
            -26 callgsubr
            return
          </CharString>
          <CharString index="60">
            91 callsubr
            24 408 74 141 rlineto
            133 hlineto
            return
          </CharString>
          <CharString index="61">
            -7 -30 rcurveline
            return
          </CharString>
          <CharString index="62">
            68 28 39 82 -38 -29 callgsubr
            79 -77 140 callsubr
            -96 -9 -7 -30 rcurveline
            -73 -101 callsubr
            76 hlineto
            -115 -515 67 -54 101 -11 41 31 -103 callgsubr
          </CharString>
          <CharString index="63">
            rmoveto
            -18 20 -12 23 16 vvcurveto
            28 34 39 30 7 vhcurveto
            39 -18 18 -41 -42 vvcurveto
            -19 -4 -19 -7 -18 vhcurveto
            return
          </CharString>
          <CharString index="64">
            rmoveto
            15 83 22 69 503 callgsubr
            -65 -85 -57 -69 -45 rlinecurve
            return
          </CharString>
          <CharString index="65">
            14 callsubr
            25 26 -3 32 return
          </CharString>
          <CharString index="66">
            458 callsubr
            -99 callsubr
            return
          </CharString>
          <CharString index="67">
            251 callgsubr
            -51 -21 -50 -18 -46 -16 rrcurveto
            82 -8 -52 103 -56 343 callsubr
            -52 -19 -75 -29 -65 -4 rlinecurve
            -69 callsubr
            460 hlineto
            -39 347 callsubr
            41 16 40 74 callsubr
            -160 123 -9 callsubr
            852 288 rmoveto
            -1562 -91 callsubr
            121 18 156 73 96 76 -21 callgsubr
          </CharString>
          <CharString index="68">
            -43 -41 -45 -43 callgsubr
            return
          </CharString>
          <CharString index="69">
            66 callsubr
            469 -106 callgsubr
          </CharString>
          <CharString index="70">
            42 -34 callsubr
            return
          </CharString>
          <CharString index="71">
            rmoveto
            177 callgsubr
            -85 -84 -48 -67 -54 hvcurveto
            61 -21 -38 53 -41 343 callsubr
            -52 -19 -75 -29 -65 -4 rlinecurve
            -69 callsubr
            680 hlineto
            -52 -248 18 callgsubr
            -362 -20 274 callgsubr
            -5 -30 rcurveline
            -1123 -91 callsubr
            129 19 169 83 94 81 20 -76 81 -45 109 -1 13 callgsubr
            67 -54 101 -11 41 31 -103 callgsubr
          </CharString>
          <CharString index="72">
            68 28 38 82 -37 -29 callgsubr
            return
          </CharString>
          <CharString index="73">
            -7 callgsubr
            -45 -63 -26 -112 -94 callgsubr
            return
          </CharString>
          <CharString index="74">
            rmoveto
            -63 28 -29 41 -6 39 -5 176 callsubr
            33 -24 16 213 callsubr
            479 522 rmoveto
            -732 -98 callsubr
            281 529 callsubr
            -4 308 callgsubr
            rrcurveto
            -66 -52 -39 -53 -67 vvcurveto
            -26 callsubr
          </CharString>
          <CharString index="75">
            28 -50 11 -97 184 callgsubr
            return
          </CharString>
          <CharString index="76">
            rmoveto
            -90 -53 -119 -31 -107 -4 rrcurveto
            76 -15 -47 82 -50 343 callsubr
            -52 -19 -75 -29 -65 -4 rlinecurve
            -69 callsubr
            674 hlineto
            -402 -243 274 callgsubr
            -7 -30 rcurveline
            -1121 180 callgsubr
            153 72 96 74 29 -68 65 -68 82 -59 334 callsubr
            -33 -44 -57 -254 67 -54 101 -11 41 31 -103 callgsubr
          </CharString>
          <CharString index="77">
            37 -4 callsubr
            return
          </CharString>
          <CharString index="78">
            rmoveto
            -79 -47 -100 -29 -97 -9 -3 34 -13 34 -22 29 -25 39 -48 26 -68 -2 211 callgsubr
            557 hlineto
            -1019 -319 -43 callsubr
            1349 382 -100 callgsubr
            -567 -80 callsubr
            284 52 42 59 43 44 34 rlinecurve
            23 -4 23 -14 11 -23 13 -20 7 -24 -2 -27 -14 -24 -10 -32 -9 -37 24 -75 69 -77 91 -65 334 callsubr
            -32 -44 -58 -254 68 -54 101 -11 40 31 -103 callgsubr
          </CharString>
          <CharString index="79">
            rmoveto
            178 callsubr
            -96 518 callgsubr
            return
          </CharString>
          <CharString index="80">
            -214 rmoveto
            -49 -10 -23 -38 10 -62 112 -21 99 -36 92 -51 26 17 12 17 -3 23 -66 62 -119 75 -91 24 rrcurveto
            151 145 rmoveto
            2 -47 10 -40 36 -49 54 7 22 17 4 25 -29 44 -9 29 1 57 -36 33 -27 10 -64 -4 -64 -35 -59 -51 -47 -63 1 -31 25 -33 84 3 35 67 21 31 35 32 rrcurveto
            return
          </CharString>
          <CharString index="81">
            146 callgsubr
            -36 36 -66 35 -57 22 28 35 14 48 -11 34 -18 17 -19 15 -21 14 rrcurveto
            320 -106 callgsubr
          </CharString>
          <CharString index="82">
            71 callgsubr
            -775 -10 callgsubr
            -110 -101 -137 -60 -117 -40 99 callgsubr
            135 -105 callgsubr
            endchar
          </CharString>
          <CharString index="83">
            23 16 18 -92 callsubr
            return
          </CharString>
          <CharString index="84">
            154 callsubr
            21 3 23 -2 return
          </CharString>
          <CharString index="85">
            157 callgsubr
            rrcurveto
            -74 31 -29 40 43 vvcurveto
            22 146 callsubr
            270 callsubr
            17 45 38 vvcurveto
            50 -75 26 -87 22 vhcurveto
            2 7 77 7 54 21 callsubr
          </CharString>
          <CharString index="86">
            465 callgsubr
            -44 -103 -41 319 callsubr
            35 127 44 384 callsubr
            -34 -33 -42 452 callsubr
            74 520 callgsubr
            58 42 rrcurveto
            42 10 callsubr
          </CharString>
          <CharString index="87">
            rmoveto
            46 36 37 45 44 -36 37 -46 -46 -38 -37 -44 -45 38 -37 46 hvcurveto
            247 hmoveto
            45 36 37 45 44 -36 37 -45 -47 -38 -37 -44 -45 38 -37 47 hvcurveto
            return
          </CharString>
          <CharString index="88">
            rmoveto
            40 51 52 56 50 35 19 59 -36 51 -73 33 -31 -9 -45 -16 -32 -5 -8 11 rcurveline
            51 47 95 71 95 37 rrcurveto
            186 hlineto
            2 -16 -3 -16 -4 -16 -10 4 -9 4 -9 2 92 callgsubr
            rrcurveto
            324 169 rmoveto
            -17 495 callsubr
            130 callsubr
            rrcurveto
            318 319 82 callgsubr
            34 -30 36 -38 29 13 30 11 30 1 30 rrcurveto
            182 -106 callgsubr
          </CharString>
          <CharString index="89">
            rmoveto
            -1039 -92 callgsubr
            45 36 48 39 48 39 rrcurveto
            -7 vlineto
            -84 92 50 callsubr
            -67 337 callsubr
            -66 301 callgsubr
            27 16 27 25 21 vhcurveto
            273 callgsubr
            39 111 callsubr
          </CharString>
          <CharString index="90">
            -73 callsubr
            340 192 callgsubr
            -96 -9 -7 -30 rcurveline
            -1048 -77 callsubr
            595 16 callgsubr
            15 -10 -8 -63 -84 -41 -75 -37 -65 -23 -72 -4 -48 25 -18 15 -21 17 -11 23 -58 5 -44 -43 -18 -76 rrcurveto
            342 callgsubr
            40 4 40 193 callsubr
            150 callgsubr
            506 callsubr
            rrcurveto
            242 callgsubr
            113 -75 68 hhcurveto
            55 129 82 84 83 hvcurveto
            164 callgsubr
            67 -54 101 -11 41 31 -103 callgsubr
          </CharString>
          <CharString index="91">
            -19 -61 44 -37 72 -18 158 109 167 63 115 23 17 callsubr
            return
          </CharString>
          <CharString index="92">
            378 rmoveto
            -59 -76 -78 -55 -72 -29 -27 2 callsubr
            return
          </CharString>
          <CharString index="93">
            -72 101 callsubr
            6 32 rrcurveto
            return
          </CharString>
          <CharString index="94">
            26 42 36 21 65 -14 38 -13 12 -14 10 -15 45 callsubr
          </CharString>
          <CharString index="95">
            280 495 -44 callsubr
            -26 -47 rmoveto
            122 callgsubr
            -15 13 -61 230 callgsubr
            133 -113 132 -47 -35 callsubr
            79 -77 106 -95 23 vhcurveto
            -102 -8 -103 -85 -17 -76 10 -48 36 -46 44 -31 rrcurveto
            return
          </CharString>
          <CharString index="96">
            71 callsubr
            -775 -91 callsubr
            257 callgsubr
          </CharString>
          <CharString index="97">
            -18 3 -32 27 -17 19 -58 5 -45 -43 -10 -76 14 -7 16 -9 9 -12 -3 -38 -49 -50 -47 -10 rrcurveto
            -27 24 -14 40 40 vvcurveto
            44 27 41 45 36 vhcurveto
            -4 53 -49 36 -74 -1 -68 -51 -33 -75 -5 -64 12 -106 86 -89 90 -23 88 4 130 70 10 88 -7 37 rcurveline
            5 6 20 -3 return
          </CharString>
          <CharString index="98">
            rmoveto
            -38 -15 -42 -42 -31 531 callsubr
            70 53 17 hvcurveto
            26 -11 13 -39 2 -41 rrcurveto
            return
          </CharString>
          <CharString index="99">
            29 7 -75 callgsubr
            return
          </CharString>
          <CharString index="100">
            336 callsubr
            -564 -98 callsubr
            526 hlineto
            -17 -22 -15 -22 -12 -21 -135 -66 -179 -79 -107 284 callsubr
            16 60 519 callsubr
            44 20 44 21 43 21 14 -43 41 -35 58 -27 -5 callgsubr
            return
          </CharString>
          <CharString index="101">
            rmoveto
            -59 -52 -128 -54 20 callsubr
            return
          </CharString>
          <CharString index="102">
            15 116 callgsubr
            return
          </CharString>
          <CharString index="103">
            61 36 58 34 61 rrcurveto
            return
          </CharString>
          <CharString index="104">
            37 -52 63 -32 74 386 callgsubr
            return
          </CharString>
          <CharString index="105">
            25 -15 21 -34 callgsubr
            return
          </CharString>
          <CharString index="106">
            169 callsubr
            -5 -4 return
          </CharString>
          <CharString index="107">
            378 rmoveto
            -58 -75 -78 -32 callgsubr
            return
          </CharString>
          <CharString index="108">
            30 callgsubr
            -28 45 -49 19 -114 -10 rlinecurve
            return
          </CharString>
          <CharString index="109">
            1 -43 29 7 -49 callsubr
            return
          </CharString>
          <CharString index="110">
            -22 96 57 123 91 57 14 callgsubr
            return
          </CharString>
          <CharString index="111">
            -43 90 -10 41 30 -103 callgsubr
          </CharString>
          <CharString index="112">
            rmoveto
            -37 19 -25 17 -17 34 37 21 42 14 43 8 -10 -43 -12 -43 -10 -21 rrcurveto
            80 415 30 callsubr
            return
          </CharString>
          <CharString index="113">
            rmoveto
            -41 -32 -31 -40 -39 32 -31 41 39 31 31 39 40 -31 31 -39 hvcurveto
            return
          </CharString>
          <CharString index="114">
            -34 callsubr
            16 11 8 17 4 16 rrcurveto
            endchar
          </CharString>
          <CharString index="115">
            -67 -6 -72 -50 -37 -58 rrcurveto
            -516 -98 callsubr
            510 hlineto
            5 -21 8 -17 11 -16 -142 -69 -216 -93 -108 -38 -59 callgsubr
            15 59 3 74 -18 66 79 36 82 38 72 35 8 -7 9 -6 10 -7 86 -15 rcurveline
            -84 -73 -144 -39 -49 420 callgsubr
            84 return
          </CharString>
          <CharString index="116">
            28 -50 11 -97 518 callgsubr
            return
          </CharString>
          <CharString index="117">
            37 23 58 -18 -31 callgsubr
          </CharString>
          <CharString index="118">
            hlineto
            -29 28 -50 11 -96 444 callsubr
            873 379 callgsubr
            -67 -68 -33 -49 552 callgsubr
            -58 -58 -44 -36 -63 -44 rlinecurve
            -9 6 458 callsubr
            rlinecurve
            -99 callsubr
            26 21 25 21 25 22 rrcurveto
            -3 vlineto
            -104 96 207 callsubr
            vhcurveto
            16 callsubr
            11 499 callgsubr
            -25 -101 68 541 callgsubr
            35 45 226 callsubr
            return
          </CharString>
          <CharString index="119">
            63 10 -7 rcurveline
            -40 -87 62 4 callsubr
          </CharString>
          <CharString index="120">
            328 callgsubr
            14 11 -34 3 -35 -10 -33 rrcurveto
            return
          </CharString>
          <CharString index="121">
            24 -75 69 -77 91 -65 48 18 return
          </CharString>
          <CharString index="122">
            vvcurveto
            99 -97 61 -127 -20 callgsubr
          </CharString>
          <CharString index="123">
            51 56 40 40 44 44 return
          </CharString>
          <CharString index="124">
            12 -7 rcurveline
            -14 -66 -17 -82 -20 -90 rrcurveto
            -128 469 callgsubr
            -170 -41 -189 -38 -156 79 callgsubr
            return
          </CharString>
          <CharString index="125">
            rmoveto
            34 53 60 55 50 27 15 -2 7 -11 2 -15 -17 -45 -63 -46 -69 -13 rrcurveto
            return
          </CharString>
          <CharString index="126">
            207 callgsubr
            31 7 vhcurveto
            34 -18 11 -36 -33 vvcurveto
            -23 -7 -21 -11 -18 vhcurveto
            return
          </CharString>
          <CharString index="127">
            -43 -3 callgsubr
            202 hlineto
            return
          </CharString>
          <CharString index="128">
            14 64 27 rlinecurve
            47 callsubr
            201 -106 callgsubr
          </CharString>
          <CharString index="129">
            23 callsubr
            1 return
          </CharString>
          <CharString index="130">
            -101 callgsubr
            230 hlineto
            28 -93 return
          </CharString>
          <CharString index="131">
            rmoveto
            -22 -101 -28 -85 -41 -102 39 -46 115 -20 56 39 6 128 4 104 11 111 49 167 rcurveline
            -48 34 -60 -3 -88 -40 rrcurveto
            return
          </CharString>
          <CharString index="132">
            5 -36 -32 8 -63 59 -49 144 4 176 45 71 45 45 76 1 60 return
          </CharString>
          <CharString index="133">
            16 94 663 rmoveto
            59 -96 72 -131 63 -137 -16 -76 -26 -102 -28 -77 35 -45 127 -16 50 39 7 121 7 101 16 94 71 83 77 75 50 65 39 52 20 41 5 59 -42 47 -81 15 -104 -50 46 -177 rcurveline
            -128 -156 -29 -57 rlineto
            -7 hlineto
            -72 202 -11 209 -72 27 -77 -24 -51 -86 rlinecurve
            return
          </CharString>
          <CharString index="134">
            -128 -98 callsubr
            return
          </CharString>
          <CharString index="135">
            -47 67 -21 rlinecurve
            return
          </CharString>
          <CharString index="136">
            549 callsubr
            -1 -58 47 -46 71 -33 -5 callgsubr
            return
          </CharString>
          <CharString index="137">
            87 callsubr
            45 27 50 410 callgsubr
            return
          </CharString>
          <CharString index="138">
            -100 callgsubr
            -613 -77 callsubr
            617 hlineto
            -28 -125 rlineto
            0 vlineto
            -28 -31 -47 -29 -41 -2 -15 3 -24 25 -15 21 180 callsubr
            28 -2 39 3 41 475 callsubr
            6 -7 -40 -63 -50 -219 -67 callgsubr
          </CharString>
          <CharString index="139">
            322 callsubr
            -222 -372 rmoveto
            -30 12 -26 50 callgsubr
            return
          </CharString>
          <CharString index="140">
            rmoveto
            45 36 37 45 44 -36 37 -45 -47 -38 -37 -44 -45 38 -37 47 hvcurveto
            -247 hmoveto
            46 36 37 45 44 -36 37 -46 -46 -38 -37 -44 -45 38 -37 46 hvcurveto
            return
          </CharString>
          <CharString index="141">
            -36 -5 -35 -92 -23 rcurveline
            -15 4 -18 25 return
          </CharString>
          <CharString index="142">
            62 -97 125 -90 119 -22 119 17 154 73 97 75 37 -50 62 -31 72 -15 rrcurveto
            53 321 callsubr
            388 callsubr
            139 callsubr
            -108 -62 -161 -73 -121 -50 rrcurveto
            81 -10 -51 99 -55 343 callsubr
            -52 -19 -75 -29 -65 -4 rlinecurve
            -69 callsubr
            1063 -106 callgsubr
          </CharString>
          <CharString index="143">
            -87 -99 -29 rlinecurve
            -10 13 46 505 callgsubr
            -31 -16 -39 -15 -45 -12 rrcurveto
            -14 82 callsubr
            -417 -101 callsubr
            379 hlineto
            -21 -27 -18 -27 -12 -24 -17 16 -18 14 -19 11 rrcurveto
            -138 -16 -89 -106 -102 vvcurveto
            -70 60 -68 118 -12 vhcurveto
            61 56 67 62 62 55 15 -7 rcurveline
            53 9 41 15 36 15 6 445 callgsubr
            return
          </CharString>
          <CharString index="144">
            rmoveto
            -700 -98 callsubr
            281 439 callsubr
            return
          </CharString>
          <CharString index="145">
            rrcurveto
            52 71 309 callgsubr
            388 callsubr
            76 callgsubr
            return
          </CharString>
          <CharString index="146">
            rmoveto
            7 29 12 26 12 17 rrcurveto
            3 5 7 2 6 hhcurveto
            19 11 -26 -51 -13 hvcurveto
            -7 -30 -11 -25 -14 -17 rrcurveto
            -3 -5 -5 -2 -6 hhcurveto
            -19 -13 26 51 14 hvcurveto
            -6 -120 rmoveto
            97 84 43 77 25 hvcurveto
            91 31 -79 31 -77 hhcurveto
            -96 -82 -39 -83 -26 hvcurveto
            -80 -25 68 -40 80 hhcurveto
            return
          </CharString>
          <CharString index="147">
            3 -24 -2 callsubr
            return
          </CharString>
          <CharString index="148">
            rmoveto
            -23 55 -55 17 -86 -12 -30 -98 rcurveline
            -71 -94 -2 -26 36 -15 35 1 rlinecurve
            return
          </CharString>
          <CharString index="149">
            28 callgsubr
            26 13 27 4 return
          </CharString>
          <CharString index="150">
            rmoveto
            -29 14 -26 332 callgsubr
            691 424 -100 callgsubr
            -551 -77 callsubr
            232 371 callgsubr
            -70 -29 -71 -25 -71 -22 -26 -19 -15 -37 -4 -37 30 -64 62 -46 72 -17 64 3 68 17 38 45 43 98 35 399 callsubr
            -115 -515 68 -54 101 -11 40 31 -103 callgsubr
          </CharString>
          <CharString index="151">
            527 callgsubr
            -557 -98 callsubr
            489 527 callsubr
            3 -6 3 -6 3 -6 -134 -63 -181 -82 -108 -39 -59 callgsubr
            15 60 4 75 -20 66 65 31 66 31 62 29 22 -18 29 -15 33 -10 5 callgsubr
            return
          </CharString>
          <CharString index="152">
            9 rrcurveto
            233 -106 callgsubr
          </CharString>
          <CharString index="153">
            326 callsubr
            -6 26 347 callgsubr
            -11 -25 15 -17 39 -16 rrcurveto
            134 382 callsubr
            return
          </CharString>
          <CharString index="154">
            42 35 23 62 -14 42 -9 11 -12 10 -13 8 rrcurveto
            return
          </CharString>
          <CharString index="155">
            -179 5 -24 -33 -4 -24 15 -18 rlinecurve
            354 11 31 36 4 30 -19 11 rlinecurve
            return
          </CharString>
          <CharString index="156">
            366 callgsubr
            281 callgsubr
            return
          </CharString>
          <CharString index="157">
            222 callsubr
            1 88 -45 36 return
          </CharString>
          <CharString index="158">
            -143 -142 -139 -133 -108 95 -57 123 -2 hvcurveto
            return
          </CharString>
          <CharString index="159">
            -56 rlineto
            132 80 118 65 132 vvcurveto
            97 return
          </CharString>
          <CharString index="160">
            rlinecurve
            -17 -45 24 -39 63 3 callsubr
            41 30 rlinecurve
            return
          </CharString>
          <CharString index="161">
            rmoveto
            -1 -91 -31 -200 -30 -124 -52 -164 rlinecurve
            22 -45 134 -20 56 39 8 129 6 107 12 186 49 190 rcurveline
            219 -23 39 61 -5 39 -20 25 rlinecurve
            -252 14 -135 -4 -224 -18 -18 -40 2 -36 38 -47 rrcurveto
            endchar
          </CharString>
          <CharString index="162">
            82 70 60 69 20 hvcurveto
            -11 35 -42 21 -68 -11 -6 -45 -31 -35 -59 -10 -42 12 -27 31 -16 47 -20 3 -22 -12 -10 -12 rrcurveto
            return
          </CharString>
          <CharString index="163">
            hlineto
            340 -65 callsubr
            return
          </CharString>
          <CharString index="164">
            369 185 146 rmoveto
            -29 17 -22 26 -18 32 26 9 26 8 26 7 9 -30 2 -33 -9 -30 rrcurveto
            958 473 rmoveto
            -1142 -98 callsubr
            723 122 callsubr
            -53 -51 -81 -27 -71 -30 -1 2 rcurveline
            -160 -45 -214 -15 -166 -44 83 callgsubr
            32 -51 61 -40 81 -18 350 callgsubr
            11 48 4 53 -9 56 42 8 43 6 44 8 rrcurveto
            -10 -16 -6 -19 -22 vvcurveto
            -107 return
          </CharString>
          <CharString index="165">
            -32 -21 -14 -42 7 -53 77 callsubr
            return
          </CharString>
          <CharString index="166">
            -52 2 -53 11 -88 29 -52 -23 -27 -56 43 -39 rrcurveto
            52 11 40 -19 -31 vvcurveto
            -35 -40 -36 -85 -17 vhcurveto
            -9 12 -10 11 -9 12 rrcurveto
            -47 -46 -52 -54 -4 hvcurveto
            46 -70 122 -72 107 -25 58 22 29 62 -36 34 -79 13 -47 25 -40 31 return
          </CharString>
          <CharString index="167">
            -515 33 callgsubr
            return
          </CharString>
          <CharString index="168">
            rmoveto
            -7 -5 rlineto
            86 -59 -68 66 -54 348 callsubr
            42 -35 75 -26 75 69 rcurveline
            56 -36 50 -45 31 465 callsubr
            38 -45 28 -43 11 -46 288 callsubr
            35 -8 28 -15 30 -20 39 2 22 21 5 16 -15 61 -6 33 -4 52 14 10 rcurveline
            36 -14 23 -20 373 callsubr
            -62 20 -87 5 -30 -8 -33 -12 -32 -40 15 -23 24 -37 13 -24 rrcurveto
            endchar
          </CharString>
          <CharString index="169">
            70 callsubr
            284 392 callgsubr
          </CharString>
          <CharString index="170">
            -66 callsubr
            40 4 40 return
          </CharString>
          <CharString index="171">
            128 callsubr
            2 14 6 13 9 12 return
          </CharString>
          <CharString index="172">
            -59 275 394 -85 callsubr
            return
          </CharString>
          <CharString index="173">
            236 callsubr
            -24 -53 477 callsubr
            409 callsubr
            return
          </CharString>
          <CharString index="174">
            90 callsubr
            7 -7 -41 -63 -50 -219 -79 callsubr
          </CharString>
          <CharString index="175">
            76 callsubr
            5 return
          </CharString>
          <CharString index="176">
            174 callsubr
            214 callgsubr
            35 37 6 12 return
          </CharString>
          <CharString index="177">
            -18 17 -21 15 -23 14 rrcurveto
            return
          </CharString>
          <CharString index="178">
            109 callsubr
            385 272 306 callsubr
            return
          </CharString>
          <CharString index="179">
            rmoveto
            -36 479 callsubr
            33 25 15 27 12 27 9 11 return
          </CharString>
          <CharString index="180">
            120 callgsubr
            -35 -3 -36 -5 -35 rlinecurve
            -77 -21 -71 -19 -51 -13 -35 -19 -9 -36 -1 -47 93 callgsubr
            21 48 19 68 14 73 return
          </CharString>
          <CharString index="181">
            17 41 17 -10 -39 -12 -37 -14 -32 rrcurveto
            return
          </CharString>
          <CharString index="182">
            145 callgsubr
            59 21 224 callgsubr
            return
          </CharString>
          <CharString index="183">
            rlineto
            -130 6 callgsubr
            return
          </CharString>
          <CharString index="184">
            37 -53 62 51 callgsubr
            return
          </CharString>
          <CharString index="185">
            -9 rcurveline
            -54 141 callsubr
            return
          </CharString>
          <CharString index="186">
            245 callgsubr
            25 13 27 13 12 -33 2 -35 -10 -33 rrcurveto
            return
          </CharString>
          <CharString index="187">
            rmoveto
            -818 -98 callsubr
            383 320 callsubr
            -54 -23 -86 -22 -110 -8 -22 -22 -17 -53 22 -36 17 -20 41 -24 42 -12 -2 -8 rcurveline
            -173 -44 -119 -120 -99 vvcurveto
            -122 99 -127 165 -61 vhcurveto
            130 6 90 26 85 55 -3 58 -19 27 -44 5 -60 -46 -69 -35 -100 -10 -72 37 -67 93 -10 81 22 91 66 86 131 49 return
          </CharString>
          <CharString index="188" raw="1">
            7a18f716 0660fb06 702a74fb 09530ace
            55f080b4 aaf8331d 0b 
          </CharString>
          <CharString index="189">
            13 -14 10 28 vvcurveto
            161 callgsubr
            -7 86 -52 43 -50 336 callsubr
            return
          </CharString>
          <CharString index="190">
            141 callgsubr
            33 -16 22 -20 -4 -9 rcurveline
            -57 -20 -89 -16 -76 -8 -73 -45 -29 -79 28 -50 88 -36 112 -8 71 -30 2 -9 rcurveline
            -28 -31 -64 -34 -53 -4 -30 12 -25 26 -15 23 -61 15 -58 -54 -29 197 callsubr
            53 -51 47 7 8 rcurveline
            22 -16 27 -13 25 -7 92 5 98 45 42 46 return
          </CharString>
          <CharString index="191">
            31 -4 20 -26 6 -27 -15 49 callsubr
            return
          </CharString>
          <CharString index="192">
            -1 -45 -50 -6 -68 return
          </CharString>
          <CharString index="193">
            -50 -11 11 125 callgsubr
          </CharString>
          <CharString index="194">
            rmoveto
            -2 -29 -5 34 callsubr
            -5 13 return
          </CharString>
          <CharString index="195">
            290 callgsubr
            468 callgsubr
            return
          </CharString>
          <CharString index="196">
            36 callgsubr
            21 106 31 return
          </CharString>
          <CharString index="197">
            447 callgsubr
            81 5 95 -10 32 rcurveline
            5 6 29 -2 39 3 40 475 callsubr
            return
          </CharString>
          <CharString index="198">
            82 84 83 hvcurveto
            -38 callgsubr
            return
          </CharString>
          <CharString index="199">
            vvcurveto
            32 12 33 18 28 vhcurveto
            26 476 callsubr
            return
          </CharString>
          <CharString index="200">
            190 rmoveto
            -36 17 -17 19 -17 98 callgsubr
            291 238 rmoveto
            -88 -382 528 callsubr
            11 338 75 113 -27 179 callgsubr
            -125 -72 -198 -88 -124 -47 -31 -21 -15 -43 7 -53 359 callgsubr
            rrcurveto
            return
          </CharString>
          <CharString index="201">
            13 66 12 38 28 38 rrcurveto
            24 -24 -44 24 -44 hhcurveto
            -100 -166 -122 -98 -63 hvcurveto
            10 -51 46 -36 69 -6 52 77 75 76 58 37 17 -7 rcurveline
            -49 -233 rlineto
            -129 469 callgsubr
            -169 -41 -189 -38 -157 335 callgsubr
            return
          </CharString>
          <CharString index="202">
            12 -12 -45 -64 -32 -140 -79 callsubr
          </CharString>
          <CharString index="203">
            47 52 31 51 36 hvcurveto
            52 -6 -45 58 -38 hhcurveto
            -55 -7 -49 -57 -11 -59 rrcurveto
            -41 3 29 -28 37 hhcurveto
            return
          </CharString>
          <CharString index="204">
            -29 1 -41 28 6 32 78 65 131 88 2 120 return
          </CharString>
          <CharString index="205">
            325 callsubr
            31 446 callgsubr
            -43 302 callgsubr
            16 11 8 17 4 16 rrcurveto
            endchar
          </CharString>
          <CharString index="206">
            21 104 callsubr
            return
          </CharString>
          <CharString index="207">
            -26 13 -13 27 36 vvcurveto
            return
          </CharString>
          <CharString index="208">
            -29 -28 1 -42 29 return
          </CharString>
          <CharString index="209">
            8 -8 rcurveline
            -31 59 callgsubr
            40 31 rlinecurve
            17 284 51 42 return
          </CharString>
          <CharString index="210">
            -87 callgsubr
            283 53 44 61 47 41 29 rlinecurve
            25 28 -15 -33 16 hvcurveto
            12 -22 5 -31 -1 -37 -5 -13 -3 -13 -1 -14 return
          </CharString>
          <CharString index="211">
            41 22 139 callgsubr
            -40 -23 return
          </CharString>
          <CharString index="212">
            417 rmoveto
            -68 -63 -97 -66 -69 -46 -10 5 rcurveline
            13 83 22 69 279 callgsubr
            return
          </CharString>
          <CharString index="213">
            -88 -382 -71 callsubr
            12 338 75 113 -27 179 callgsubr
            return
          </CharString>
          <CharString index="214">
            -45 24 279 callsubr
            56 63 441 callsubr
            return
          </CharString>
          <CharString index="215">
            -32 -32 -39 -39 32 -32 return
          </CharString>
          <CharString index="216">
            233 callsubr
            -55 -20 -74 -28 -63 -4 rlinecurve
            -69 callsubr
            332 513 callsubr
            -19 -42 152 callsubr
            return
          </CharString>
          <CharString index="217">
            -55 23 -23 33 -1 33 rrcurveto
            21 12 19 21 16 vhcurveto
            66 15 65 24 54 27 35 29 22 56 -15 35 -12 10 -12 10 -12 9 rrcurveto
            275 -106 callgsubr
          </CharString>
          <CharString index="218">
            33 22 87 callgsubr
          </CharString>
          <CharString index="219">
            -22 6 -24 -13 -15 -18 return
          </CharString>
          <CharString index="220">
            153 callgsubr
            25 353 callgsubr
            23 -2 15 -10 rrcurveto
            -14 -114 -269 -44 -72 vvcurveto
            -70 125 -85 return
          </CharString>
          <CharString index="221">
            -51 -50 -113 -65 -67 -28 -22 -15 -11 -34 -4 -29 19 -43 49 -43 69 -21 return
          </CharString>
          <CharString index="222">
            323 callgsubr
            12 48 4 56 -8 54 return
          </CharString>
          <CharString index="223">
            -100 callgsubr
            -471 -98 callsubr
            123 hlineto
            -40 -109 -27 -98 -25 -117 265 callsubr
            -31 -54 -49 -216 -67 callgsubr
          </CharString>
          <CharString index="224">
            -21 rlinecurve
            136 callsubr
            return
          </CharString>
          <CharString index="225">
            193 callgsubr
            -5 -30 rcurveline
            -440 -98 callsubr
            446 -1 callsubr
            return
          </CharString>
          <CharString index="226">
            42 callsubr
            21 3 23 -2 return
          </CharString>
          <CharString index="227">
            431 403 callgsubr
            -14 -29 44 -41 hhcurveto
            -114 -105 -140 -90 -46 31 -37 65 -5 hvcurveto
            4 -5 -54 -20 -74 -28 -64 487 callsubr
            4 8 rcurveline
            145 19 149 96 115 vvcurveto
            20 -17 25 -25 22 vhcurveto
            331 hlineto
            -50 -234 rmoveto
            -44 -19 -43 -45 -36 hhcurveto
            -24 -18 19 31 47 40 70 53 17 hvcurveto
            return
          </CharString>
          <CharString index="228">
            rmoveto
            -8 -5 rlineto
            75 -36 -68 86 -53 hhcurveto
            -54 -61 319 callgsubr
            85 58 rcurveline
            419 callgsubr
            22 33 6 22 8 hvcurveto
            513 callgsubr
            13 9 rcurveline
            37 -13 26 -21 37 -42 142 callgsubr
            -31 -3 -35 -23 -23 -25 22 -34 18 -35 15 -36 rrcurveto
            endchar
          </CharString>
          <CharString index="229">
            285 callsubr
            17 478 callgsubr
            return
          </CharString>
          <CharString index="230">
            46 43 317 -79 callgsubr
            return
          </CharString>
          <CharString index="231">
            195 rmoveto
            -31 12 -25 50 callgsubr
            return
          </CharString>
          <CharString index="232">
            rmoveto
            22 7 21 12 20 vhcurveto
            27 -28 34 -30 27 -21 -24 -19 -23 -16 -21 -15 rrcurveto
            -24 12 -15 28 26 vvcurveto
            93 124 rmoveto
            31 -20 24 -34 32 -26 -12 -11 -12 -10 -12 -10 -34 28 -30 30 -27 30 12 10 14 8 14 5 rrcurveto
            189 73 rmoveto
            33 52 59 55 50 27 16 -2 7 -11 2 -15 -18 -45 -62 -46 -70 -13 rrcurveto
            return
          </CharString>
          <CharString index="233">
            -103 callsubr
            38 return
          </CharString>
          <CharString index="234">
            hhcurveto
            55 130 155 callsubr
          </CharString>
          <CharString index="235">
            223 callgsubr
            -51 53 -28 52 -8 61 return
          </CharString>
          <CharString index="236">
            101 2 81 32 55 52 -1 49 -35 33 -46 4 -40 -43 -47 -25 -53 -14 return
          </CharString>
          <CharString index="237">
            4 147 callgsubr
            return
          </CharString>
          <CharString index="238">
            -101 callsubr
            133 hlineto
            518 callsubr
            36 -47 68 -21 rlinecurve
            32 44 52 22 41 hhcurveto
            20 16 -12 -13 7 hvcurveto
            -7 -69 -105 -72 -110 -19 -14 12 -12 12 -13 13 -62 230 callgsubr
            127 -115 130 -45 58 26 30 58 -24 47 -93 32 -80 61 -38 39 4 8 rcurveline
            return
          </CharString>
          <CharString index="239">
            vvcurveto
            31 -54 61 316 callsubr
            41 31 rlinecurve
            11 338 75 113 -27 236 callsubr
            -25 -53 -24 5 40 3 409 callsubr
            470 -106 callgsubr
          </CharString>
          <CharString index="240">
            137 callgsubr
            rrcurveto
            375 callgsubr
            375 callsubr
            return
          </CharString>
          <CharString index="241">
            456 rmoveto
            -59 -63 -70 -62 173 callsubr
            -46 -19 -46 -30 -38 -36 -1 1 rcurveline
            -69 -61 -88 -59 -64 -42 112 callgsubr
            621 56 callsubr
            return
          </CharString>
          <CharString index="242">
            325 callgsubr
            -34 -33 -42 -48 -49 -50 -44 15 -41 288 callgsubr
          </CharString>
          <CharString index="243">
            97 callsubr
            -1 58 -75 107 -87 11 -67 -6 -72 -50 -37 -58 rrcurveto
            return
          </CharString>
          <CharString index="244">
            175 callsubr
            36 59 59 19 337 callgsubr
            return
          </CharString>
          <CharString index="245">
            vvcurveto
            -91 112 -89 112 -20 vhcurveto
            129 callsubr
            return
          </CharString>
          <CharString index="246">
            10 -6 rcurveline
            106 callgsubr
            return
          </CharString>
          <CharString index="247">
            106 -94 23 vhcurveto
            -78 -6 -79 -51 -40 -57 rrcurveto
            829 hmoveto
            178 callsubr
            return
          </CharString>
          <CharString index="248">
            -23 -85 -22 -111 -8 -21 -22 -18 -53 22 -36 return
          </CharString>
          <CharString index="249">
            5 rcurveline
            192 callsubr
            return
          </CharString>
          <CharString index="250">
            -90 -46 30 -37 66 -5 hvcurveto
            return
          </CharString>
          <CharString index="251">
            vvcurveto
            -104 96 207 callsubr
            vhcurveto
            50 -6 callgsubr
            return
          </CharString>
          <CharString index="252">
            65 -33 callgsubr
            278 callgsubr
            return
          </CharString>
          <CharString index="253">
            56 61 39 45 9 13 -3 8 -7 3 -11 -10 -11 -14 -12 -14 -10 return
          </CharString>
          <CharString index="254">
            278 callsubr
            -96 518 callgsubr
            return
          </CharString>
          <CharString index="255">
            70 25 37 17 hvcurveto
            return
          </CharString>
          <CharString index="256">
            -57 callsubr
            -496 -48 callsubr
            44 -50 callsubr
            -8 -68 -98 -43 -79 -38 -52 14 -62 12 -64 5 27 118 20 128 -5 62 -23 41 -46 22 -65 -1 rrcurveto
            return
          </CharString>
          <CharString index="257">
            rmoveto
            -5 -6 -45 38 -46 30 -42 11 rlinecurve
            -47 288 callsubr
            35 -8 28 -15 30 -20 39 2 22 20 5 17 rrcurveto
            150 -62 -121 118 -72 348 callsubr
            42 -35 75 -26 75 69 rcurveline
            58 -34 51 -49 29 -49 rrcurveto
            endchar
          </CharString>
          <CharString index="258">
            534 callgsubr
            -18 29 39 16 40 16 39 17 -7 -37 -12 -37 -16 -32 rrcurveto
            return
          </CharString>
          <CharString index="259">
            -45 -36 hhcurveto
            -25 -17 212 callgsubr
            return
          </CharString>
          <CharString index="260">
            -7 -35 -58 -62 -61 -70 -27 return
          </CharString>
          <CharString index="261">
            16 26 13 27 4 return
          </CharString>
          <CharString index="262">
            -47 callsubr
            15 -28 callgsubr
            endchar
          </CharString>
          <CharString index="263">
            rlinecurve
            16 284 52 42 59 306 callgsubr
            -101 390 callsubr
            -55 -58 -54 -56 86 callsubr
          </CharString>
          <CharString index="264">
            -98 callgsubr
            -465 -101 callsubr
            130 hlineto
            return
          </CharString>
          <CharString index="265">
            375 callgsubr
            296 callsubr
            return
          </CharString>
          <CharString index="266">
            -7 rcurveline
            -40 -87 62 -43 return
          </CharString>
          <CharString index="267">
            440 -6 callsubr
            -549 hmoveto
            301 callsubr
            return
          </CharString>
          <CharString index="268">
            18 35 42 24 55 21 82 15 return
          </CharString>
          <CharString index="269">
            -72 callsubr
            endchar
          </CharString>
          <CharString index="270">
            hlineto
            303 callsubr
            return
          </CharString>
          <CharString index="271">
            -46 50 -26 -1 rlinecurve
            return
          </CharString>
          <CharString index="272">
            188 195 -60 callgsubr
            return
          </CharString>
          <CharString index="273">
            rrcurveto
            -12 -108 -235 -25 -78 vvcurveto
            -67 118 -77 69 -1 vhcurveto
            69 106 79 77 80 hvcurveto
            9 -10 return
          </CharString>
          <CharString index="274">
            409 54 callgsubr
            return
          </CharString>
          <CharString index="275">
            -94 callsubr
            131 19 172 86 93 81 return
          </CharString>
          <CharString index="276">
            hlineto
            -23 -140 return
          </CharString>
          <CharString index="277">
            -22 52 -52 25 -44 -21 -19 -55 -38 -51 -66 -13 -55 45 -17 65 -1 80 -57 26 -56 -24 -38 -62 rrcurveto
            -113 27 113 -88 74 hhcurveto
            return
          </CharString>
          <CharString index="278">
            -72 -77 -59 -73 117 callsubr
            return
          </CharString>
          <CharString index="279">
            119 callgsubr
            -173 -167 rmoveto
            -25 15 return
          </CharString>
          <CharString index="280">
            -61 -39 -8 6 rcurveline
            351 callsubr
            -6 60 -28 44 -63 21 -29 492 callsubr
            return
          </CharString>
          <CharString index="281">
            66 -91 149 -117 125 -37 401 callgsubr
            return
          </CharString>
          <CharString index="282">
            rmoveto
            -42 -26 -46 -26 -50 -22 rrcurveto
            -16 13 -8 22 22 vvcurveto
            54 return
          </CharString>
          <CharString index="283">
            28 8 26 14 270 callgsubr
            return
          </CharString>
          <CharString index="284">
            41 -16 250 callsubr
            return
          </CharString>
          <CharString index="285">
            -145 hlineto
            -75 callsubr
            return
          </CharString>
          <CharString index="286">
            317 callgsubr
            22 104 27 131 34 104 -33 51 -53 26 -57 -10 -17 -34 -21 -35 -34 -28 -44 14 -32 17 -27 27 -4 20 0 16 11 13 return
          </CharString>
          <CharString index="287">
            -34 callgsubr
            rrcurveto
            150 callgsubr
            -65 callgsubr
            return
          </CharString>
          <CharString index="288">
            -2 -72 callgsubr
            rrcurveto
            return
          </CharString>
          <CharString index="289">
            hhcurveto
            -119 -125 -111 -106 -9 hvcurveto
            -6 -79 69 -51 104 -1 40 36 38 30 36 31 -13 -30 -13 -28 -14 -25 2 -38 41 -17 55 4 63 139 50 160 26 116 -7 52 -15 47 -16 45 80 66 55 68 3 45 rrcurveto
            2 48 -59 54 return
          </CharString>
          <CharString index="290">
            50 37 5 32 -16 17 -43 5 -33 -14 -40 -30 -35 -38 -32 -27 25 -23 34 -12 41 rrcurveto
            return
          </CharString>
          <CharString index="291">
            485 callsubr
            288 hlineto
            38 -11 37 -14 22 -17 -3 -7 rcurveline
            -67 -21 -66 -7 -79 -7 -69 -36 -26 -66 31 -44 84 -26 93 -7 79 -23 2 -6 rcurveline
            -75 -33 -130 -7 -98 5 -37 -27 10 -56 60 -40 return
          </CharString>
          <CharString index="292">
            hlineto
            340 289 callgsubr
            return
          </CharString>
          <CharString index="293">
            rmoveto
            0 vlineto
            -50 -44 -57 -50 -46 -40 rrcurveto
            100 callsubr
            67 return
          </CharString>
          <CharString index="294">
            -8 -44 45 -48 92 -13 60 49 64 56 52 return
          </CharString>
          <CharString index="295">
            273 callgsubr
            38 33 23 61 return
          </CharString>
          <CharString index="296">
            -42 1 -48 36 -62 54 -39 76 -18 rrcurveto
            54 73 25 37 return
          </CharString>
          <CharString index="297">
            rmoveto
            -721 -98 callsubr
            302 439 callsubr
            -112 -107 -240 return
          </CharString>
          <CharString index="298">
            37 -29 34 18 18 21 13 20 6 return
          </CharString>
          <CharString index="299">
            254 callsubr
            67 102 rcurveline
            return
          </CharString>
          <CharString index="300">
            5 51 43 46 45 34 return
          </CharString>
          <CharString index="301">
            -60 -73 -21 rlinecurve
            -29 1 -41 28 6 32 78 65 125 72 2 108 -1 63 -75 102 -87 11 -88 -8 -96 -83 -15 -78 13 -54 30 -35 50 -34 22 -4 23 -4 24 -4 rrcurveto
            -84 -57 -120 -34 -45 420 callgsubr
            83 56 return
          </CharString>
          <CharString index="302">
            345 callgsubr
            100 304 callsubr
            -79 callsubr
          </CharString>
          <CharString index="303">
            rmoveto
            -49 16 -24 31 -5 27 -5 21 5 18 12 14 39 17 61 18 56 26 22 -14 20 -17 12 -19 -6 -58 -50 -54 -88 -26 rrcurveto
            490 852 209 callsubr
            return
          </CharString>
          <CharString index="304">
            -73 59 -70 62 -106 36 -93 89 -6 55 40 1 38 -41 63 -45 return
          </CharString>
          <CharString index="305">
            90 callsubr
            6 -7 -40 -63 -50 -219 -96 callgsubr
          </CharString>
          <CharString index="306">
            rmoveto
            30 -10 38 11 15 23 -74 199 rcurveline
            -41 21 -89 -9 -32 -66 87 -76 rcurveline
            return
          </CharString>
          <CharString index="307">
            -43 273 callsubr
            return
          </CharString>
          <CharString index="308">
            567 rmoveto
            26 -69 13 -54 4 -63 -18 -80 -43 -40 -51 -20 -33 22 -16 39 -6 53 15 73 43 74 52 65 rrcurveto
            return
          </CharString>
          <CharString index="309">
            267 callsubr
            38 16 36 17 267 callgsubr
            89 407 rmoveto
            -2 -29 return
          </CharString>
          <CharString index="310">
            rmoveto
            -437 -98 callgsubr
            return
          </CharString>
          <CharString index="311">
            -52 -44 -37 rrcurveto
            -22 11 -13 -8 callgsubr
            return
          </CharString>
          <CharString index="312">
            -16 -58 callsubr
            return
          </CharString>
          <CharString index="313">
            -101 268 callgsubr
            return
          </CharString>
          <CharString index="314">
            -53 118 -1 return
          </CharString>
          <CharString index="315">
            5 31 -4 20 -26 6 -27 -15 366 callgsubr
            rrcurveto
            281 callgsubr
            return
          </CharString>
          <CharString index="316">
            484 callgsubr
            287 hlineto
            30 -14 28 return
          </CharString>
          <CharString index="317">
            hlineto
            28 callgsubr
            25 353 callgsubr
            23 -2 15 -10 return
          </CharString>
          <CharString index="318">
            -49 -62 -38 -47 -39 hvcurveto
            -7 -56 45 -37 89 -21 63 77 rcurveline
            return
          </CharString>
          <CharString index="319" raw="1">
            a6af1ace bdf8240a 0b 
          </CharString>
          <CharString index="320">
            -26 -5 -79 -72 -81 -110 -29 rrcurveto
            return
          </CharString>
          <CharString index="321">
            -9 rcurveline
            -71 -41 -140 -17 return
          </CharString>
          <CharString index="322">
            22 rlinecurve
            45 -6 25 -26 -39 vvcurveto
            -60 -28 -51 -98 200 callgsubr
            -128 -26 vhcurveto
            -42 491 callgsubr
            36 61 36 58 return
          </CharString>
          <CharString index="323">
            45 70 45 45 76 2 424 callsubr
            41 36 22 65 -15 38 323 callsubr
            -14 45 callsubr
          </CharString>
          <CharString index="324">
            rmoveto
            44 -49 40 -48 35 -69 36 2 20 8 6 18 -20 54 -15 50 -4 56 14 9 rcurveline
            36 -13 27 -21 37 -42 142 callgsubr
            -77 -20 -39 -48 -31 -73 rrcurveto
            endchar
          </CharString>
          <CharString index="325">
            20 8 15 11 hvcurveto
            117 -42 -106 167 -77 hhcurveto
            -55 -61 319 callgsubr
            rrcurveto
            return
          </CharString>
          <CharString index="326">
            -82 -101 -31 -104 16 -93 31 -42 90 -28 65 85 -57 153 rcurveline
            40 110 -15 22 -23 6 -34 -8 rlinecurve
            return
          </CharString>
          <CharString index="327">
            41 74 33 133 -19 70 -34 82 -198 57 -99 25 2 7 rcurveline
            77 7 55 14 64 27 41 35 24 62 -15 42 -9 11 -11 10 -13 8 rrcurveto
            300 -106 callgsubr
          </CharString>
          <CharString index="328">
            31 -4 19 397 callgsubr
            -7 -44 44 -48 92 -13 return
          </CharString>
          <CharString index="329">
            285 callgsubr
            115 1 106 42 77 60 return
          </CharString>
          <CharString index="330">
            225 callgsubr
            -37 -14 -32 rrcurveto
            return
          </CharString>
          <CharString index="331">
            -45 62 -33 87 5 30 135 return
          </CharString>
          <CharString index="332">
            -27 -40 vvcurveto
            -65 -39 -48 return
          </CharString>
          <CharString index="333">
            35 29 22 rlinecurve
            return
          </CharString>
          <CharString index="334">
            rcurveline
            301 529 callsubr
            rrcurveto
            -99 -400 rmoveto
            -63 28 -29 41 -7 39 -4 176 callsubr
            32 -24 17 213 callsubr
            return
          </CharString>
          <CharString index="335">
            431 callgsubr
            -28 -32 -44 -52 -42 -44 -46 10 -41 36 -4 489 callgsubr
            return
          </CharString>
          <CharString index="336">
            -50 -14 -60 -6 -48 -1 -13 7 -12 8 -12 8 rrcurveto
            79 44 61 66 66 vvcurveto
            20 -19 25 -28 22 vhcurveto
            return
          </CharString>
          <CharString index="337">
            -23 -19 -18 -31 -3 -33 26 -61 41 -26 64 -13 70 9 22 15 20 32 12 43 0 42 -12 37 39 14 37 14 38 16 7 -13 rcurveline
            -37 -30 -55 -211 54 -43 80 -11 35 27 rlinecurve
            6 return
          </CharString>
          <CharString index="338">
            336 callgsubr
            187 19 158 rrcurveto
            184 hlineto
            -5 callsubr
            return
          </CharString>
          <CharString index="339">
            42 63 2 53 -42 25 -72 18 -99 11 -64 18 2 8 rcurveline
            71 9 80 12 57 20 40 30 21 57 -17 32 -12 9 -12 7 -13 7 rrcurveto
            225 -106 callgsubr
          </CharString>
          <CharString index="340">
            403 callgsubr
            -15 -28 44 -42 343 callsubr
            return
          </CharString>
          <CharString index="341">
            rmoveto
            -16 -41 -56 -39 -73 -11 -20 8 -18 10 -16 12 54 34 54 35 return
          </CharString>
          <CharString index="342">
            -94 100 -94 143 419 callsubr
            return
          </CharString>
          <CharString index="343">
            179 callgsubr
            -40 -23 -49 return
          </CharString>
          <CharString index="344">
            81 105 388 callgsubr
            return
          </CharString>
          <CharString index="345">
            477 callgsubr
            -69 -45 return
          </CharString>
          <CharString index="346">
            -77 callsubr
            345 241 callsubr
            20 -20 41 -24 37 -11 -2 -9 rcurveline
            return
          </CharString>
          <CharString index="347">
            5 52 -12 19 -49 2 -44 -35 -49 -31 -58 -23 12 130 16 116 10 136 rrcurveto
            endchar
          </CharString>
          <CharString index="348">
            538 callsubr
            22 -21 -4 78 callsubr
            return
          </CharString>
          <CharString index="349">
            rmoveto
            -54 -80 7 -20 18 -9 28 -1 rlinecurve
            82 64 45 76 6 534 callsubr
            -70 -54 rrcurveto
            return
          </CharString>
          <CharString index="350">
            -98 callsubr
            361 hlineto
            return
          </CharString>
          <CharString index="351">
            rmoveto
            -405 -1 callgsubr
            return
          </CharString>
          <CharString index="352">
            -49 24 -38 64 -19 72 59 43 44 58 61 return
          </CharString>
          <CharString index="353">
            33 callgsubr
            16 return
          </CharString>
          <CharString index="354">
            327 callsubr
            -26 -32 return
          </CharString>
          <CharString index="355">
            11 rcurveline
            34 51 -85 callgsubr
            return
          </CharString>
          <CharString index="356">
            rmoveto
            -30 12 -26 20 -19 32 return
          </CharString>
          <CharString index="357">
            52 15 callgsubr
            return
          </CharString>
          <CharString index="358">
            rlinecurve
            11 338 76 113 return
          </CharString>
          <CharString index="359">
            434 callgsubr
            -35 -48 -58 -39 -69 -12 -15 12 -14 12 -14 13 return
          </CharString>
          <CharString index="360">
            512 callgsubr
            7 -76 132 -34 116 -52 106 -70 return
          </CharString>
          <CharString index="361">
            435 callgsubr
            21 66 return
          </CharString>
          <CharString index="362">
            202 callsubr
            -5 34 callsubr
            -5 13 return
          </CharString>
          <CharString index="363">
            81 -51 62 -44 -175 -110 -43 -66 11 -52 46 -18 rlinecurve
            114 88 135 100 9 21 5 21 -1 23 rlinecurve
            -180 220 -48 1 -33 -69 17 -64 rlinecurve
            endchar
          </CharString>
          <CharString index="364">
            216 rmoveto
            -32 13 -16 14 -15 22 35 14 34 14 35 14 -8 -26 -9 -27 -13 -32 rrcurveto
            return
          </CharString>
          <CharString index="365">
            148 callgsubr
            -444 -98 callsubr
            451 hlineto
            -22 143 callgsubr
            return
          </CharString>
          <CharString index="366">
            47 34 41 30 42 33 11 60 -36 35 -45 17 -34 -14 -27 -7 -40 -11 -8 10 rcurveline
            54 22 51 27 40 26 23 27 13 27 -11 27 457 callsubr
            return
          </CharString>
          <CharString index="367">
            -49 callsubr
            -456 hmoveto
            303 callsubr
            return
          </CharString>
          <CharString index="368">
            rmoveto
            37 98 -31 31 -105 5 -46 -12 rlinecurve
            -74 -122 12 -15 29 -9 19 4 rlinecurve
            40 48 18 -7 -35 -61 -59 -258 37 -23 55 -3 49 7 rlinecurve
            8 106 rlineto
            return
          </CharString>
          <CharString index="369">
            rmoveto
            31 36 4 30 -19 11 -178 -18 rcurveline
            -179 5 -24 -33 -4 -24 15 -18 rlinecurve
            return
          </CharString>
          <CharString index="370">
            -40 rrcurveto
            454 callsubr
            69 67 callgsubr
            return
          </CharString>
          <CharString index="371">
            -144 -139 -137 -130 456 callgsubr
            return
          </CharString>
          <CharString index="372">
            400 callgsubr
            70 59 78 71 68 479 callgsubr
            return
          </CharString>
          <CharString index="373">
            -37 -71 -45 -61 -32 rrcurveto
            754 hmoveto
            return
          </CharString>
          <CharString index="374">
            195 rmoveto
            -27 13 -22 15 -18 26 return
          </CharString>
          <CharString index="375" raw="1">
            6a61f7a4 0a0b  
          </CharString>
          <CharString index="376">
            -6 -4 rlineto
            40 -32 -46 56 -27 hhcurveto
            return
          </CharString>
          <CharString index="377">
            1 -27 52 -29 63 14 rrcurveto
            33 37 return
          </CharString>
          <CharString index="378">
            -10 116 -4 105 3 95 return
          </CharString>
          <CharString index="379">
            -48 -49 -50 -44 15 -41 42 return
          </CharString>
          <CharString index="380">
            -41 -45 -45 -44 -41 return
          </CharString>
          <CharString index="381">
            209 callsubr
            -17 16 -15 -3 -7 rcurveline
            -66 -30 -75 -18 -80 -13 -57 -42 -33 -50 1 -55 rrcurveto
            return
          </CharString>
          <CharString index="382">
            -71 callsubr
            25 408 return
          </CharString>
          <CharString index="383">
            237 callgsubr
            39 return
          </CharString>
          <CharString index="384">
            rmoveto
            -5 callsubr
            return
          </CharString>
          <CharString index="385">
            241 callgsubr
            -75 callsubr
            return
          </CharString>
          <CharString index="386">
            -39 64 -22 96 57 123 91 return
          </CharString>
          <CharString index="387">
            vvcurveto
            287 callsubr
            return
          </CharString>
          <CharString index="388">
            3 23 -2 15 -10 -9 -73 -114 -45 -81 -41 -50 -22 -54 -7 -57 -1 -23 8 -23 11 -21 13 rrcurveto
            -59 callsubr
            return
          </CharString>
          <CharString index="389">
            536 callgsubr
            -20 31 37 13 40 12 42 13 -9 -34 -12 -33 -12 -28 rrcurveto
            return
          </CharString>
          <CharString index="390">
            rmoveto
            -47 -44 -59 -52 -45 -78 callgsubr
            return
          </CharString>
          <CharString index="391">
            -41 -59 callgsubr
            return
          </CharString>
          <CharString index="392">
            hlineto
            39 -21 32 -24 return
          </CharString>
          <CharString index="393">
            385 rmoveto
            -69 -81 -85 -56 -80 -23 396 callsubr
            24 48 -27 60 -52 28 -114 -7 -115 0 -118 16 return
          </CharString>
          <CharString index="394">
            353 callsubr
            24 408 74 141 rlineto
            133 hlineto
            return
          </CharString>
          <CharString index="395">
            539 callgsubr
            10 -39 52 -22 49 -1 31 36 rcurveline
            return
          </CharString>
          <CharString index="396">
            45 34 57 32 60 29 return
          </CharString>
          <CharString index="397">
            35 78 48 6 -11 rcurveline
            return
          </CharString>
          <CharString index="398">
            -51 53 -28 52 -8 61 return
          </CharString>
          <CharString index="399">
            276 callgsubr
            38 -60 71 -22 99 345 callsubr
            -43 -59 -22 -98 -71 callsubr
            return
          </CharString>
          <CharString index="400" raw="1">
            7f9918fb 8006f70a 0a0b 
          </CharString>
          <CharString index="401">
            81 -45 30 -50 22 -29 -9 -36 -7 -31 -5 -5 9 rcurveline
            52 47 79 61 96 36 rrcurveto
            93 hlineto
            -33 -17 -30 -26 -20 -27 -15 -85 29 -62 32 -72 return
          </CharString>
          <CharString index="402">
            -26 4 -25 6 -22 7 rrcurveto
            82 45 63 66 68 vvcurveto
            20 -19 25 -28 22 vhcurveto
            return
          </CharString>
          <CharString index="403">
            375 callsubr
            6 -8 rcurveline
            206 callsubr
            return
          </CharString>
          <CharString index="404">
            265 callgsubr
            -16 -14 -17 -14 return
          </CharString>
          <CharString index="405">
            373 callgsubr
            20 return
          </CharString>
          <CharString index="406">
            hlineto
            27 420 callsubr
            return
          </CharString>
          <CharString index="407">
            19 -114 -10 rlinecurve
            return
          </CharString>
          <CharString index="408">
            483 callgsubr
            44 hhcurveto
            18 17 299 callgsubr
            -16 11 -14 12 -14 14 return
          </CharString>
          <CharString index="409">
            15 rcurveline
            76 13 82 16 61 -13 callsubr
          </CharString>
          <CharString index="410">
            42 callsubr
            20 3 24 -2 14 -10 return
          </CharString>
          <CharString index="411">
            514 callsubr
            98 73 71 74 12 -10 rcurveline
            -40 -68 -33 -146 return
          </CharString>
          <CharString index="412">
            hlineto
            -27 -119 -93 -55 -123 -31 -111 -2 rlinecurve
            return
          </CharString>
          <CharString index="413">
            rmoveto
            -149 320 callgsubr
            return
          </CharString>
          <CharString index="414">
            -320 rmoveto
            254 callsubr
            return
          </CharString>
          <CharString index="415">
            225 callsubr
            -102 -68 vhcurveto
            return
          </CharString>
          <CharString index="416">
            -5 hlineto
            -32 32 -61 43 -99 22 return
          </CharString>
          <CharString index="417">
            rmoveto
            -31 12 -25 20 return
          </CharString>
          <CharString index="418">
            hlineto
            -25 -111 -60 -64 -70 -61 -60 510 callgsubr
            18 21 17 20 rlinecurve
            395 callsubr
            return
          </CharString>
          <CharString index="419">
            -32 -9 13 rcurveline
            47 43 64 48 53 35 13 65 -49 35 -57 18 -37 -14 -31 -14 -45 -11 -6 9 rcurveline
            49 47 91 44 70 32 rrcurveto
            return
          </CharString>
          <CharString index="420">
            378 rmoveto
            -59 -76 -77 -55 -72 -29 -28 2 callsubr
            return
          </CharString>
          <CharString index="421">
            30 callsubr
            6 -154 rmoveto
            5 -7 -26 -32 return
          </CharString>
          <CharString index="422">
            355 callsubr
            34 -30 36 -38 29 return
          </CharString>
          <CharString index="423">
            -45 61 -15 364 callgsubr
            43 21 508 callsubr
            return
          </CharString>
          <CharString index="424">
            496 callgsubr
            -126 -53 -43 hhcurveto
            -10 -11 1 2 -11 hvcurveto
            -59 callsubr
            201 hlineto
            return
          </CharString>
          <CharString index="425">
            -43 6 -76 133 -34 116 -52 106 -70 401 callsubr
            return
          </CharString>
          <CharString index="426">
            -100 9 224 callsubr
            return
          </CharString>
          <CharString index="427">
            hlineto
            32 -15 17 -11 22 478 callgsubr
            return
          </CharString>
          <CharString index="428">
            148 callsubr
            16 61 3 76 -21 return
          </CharString>
          <CharString index="429">
            5 40 4 40 2 37 rrcurveto
            return
          </CharString>
          <CharString index="430">
            -13 12 -14 10 return
          </CharString>
          <CharString index="431">
            14 -7 15 -9 return
          </CharString>
          <CharString index="432">
            335 callsubr
            86 5 return
          </CharString>
          <CharString index="433">
            -6 callgsubr
            44 return
          </CharString>
          <CharString index="434">
            116 519 callgsubr
            return
          </CharString>
          <CharString index="435">
            69 28 38 82 -38 43 return
          </CharString>
          <CharString index="436">
            6 -200 118 -144 238 -27 300 26 130 176 39 204 -34 202 -55 138 -283 29 return
          </CharString>
          <CharString index="437">
            17 22 16 18 -5 59 -29 43 -62 20 -31 7 -45 2 -45 -5 return
          </CharString>
          <CharString index="438">
            rrcurveto
            -138 -139 -128 -127 -97 89 -59 125 -1 hvcurveto
            return
          </CharString>
          <CharString index="439">
            -32 -26 -31 -25 rrcurveto
            return
          </CharString>
          <CharString index="440">
            347 rmoveto
            47 51 31 50 36 hvcurveto
            52 -5 -46 59 -38 hhcurveto
            -55 -8 -48 -57 -12 -59 rrcurveto
            -40 4 29 -28 37 hhcurveto
            return
          </CharString>
          <CharString index="441">
            304 callgsubr
            rrcurveto
            65 18 91 290 callsubr
            return
          </CharString>
          <CharString index="442">
            vvcurveto
            -107 114 -93 155 -14 vhcurveto
            44 54 32 48 36 38 12 -7 rcurveline
            -37 -65 -44 458 callgsubr
            return
          </CharString>
          <CharString index="443">
            -1 -77 -14 -72 -47 -56 -54 rrcurveto
            return
          </CharString>
          <CharString index="444">
            153 callsubr
            rrcurveto
            return
          </CharString>
          <CharString index="445">
            -179 29 -110 106 -15 187 29 178 147 146 215 33 241 -43 38 -106 35 -174 return
          </CharString>
          <CharString index="446">
            -93 rmoveto
            2 -71 32 -70 54 -54 rrcurveto
            47 6 23 20 37 vvcurveto
            -50 52 -14 43 428 callsubr
            return
          </CharString>
          <CharString index="447">
            hlineto
            -114 -515 -81 callsubr
            return
          </CharString>
          <CharString index="448">
            383 -100 callgsubr
            return
          </CharString>
          <CharString index="449">
            10 -45 64 -30 86 9 23 150 44 224 47 133 return
          </CharString>
          <CharString index="450">
            244 callgsubr
            4 -5 return
          </CharString>
          <CharString index="451">
            -1 callsubr
            rlineto
            40 -33 -45 56 return
          </CharString>
          <CharString index="452">
            60 128 96 60 64 12 -11 rcurveline
            return
          </CharString>
          <CharString index="453">
            -42 74 21 33 43 -16 50 -51 46 return
          </CharString>
          <CharString index="454">
            -372 249 callsubr
            return
          </CharString>
          <CharString index="455">
            hhcurveto
            -49 -54 -30 -28 -23 hvcurveto
            -12 -59 return
          </CharString>
          <CharString index="456">
            -30 -25 332 callsubr
            return
          </CharString>
          <CharString index="457">
            61 -43 90 -10 41 30 rlinecurve
            return
          </CharString>
          <CharString index="458">
            18 19 19 21 17 20 return
          </CharString>
          <CharString index="459">
            443 callgsubr
            -49 return
          </CharString>
          <CharString index="460">
            -70 125 -85 72 55 129 222 callgsubr
            return
          </CharString>
          <CharString index="461">
            377 callgsubr
            -62 -34 -35 return
          </CharString>
          <CharString index="462">
            -45 21 -49 85 -40 107 60 118 86 12 92 6 45 -23 48 -28 48 67 403 callsubr
            rrcurveto
            1 return
          </CharString>
          <CharString index="463">
            rmoveto
            9 44 44 183 callsubr
            return
          </CharString>
          <CharString index="464">
            504 callgsubr
            64 -22 125 74 140 122 63 84 rrcurveto
            endchar
          </CharString>
          <CharString index="465">
            2 53 -45 36 return
          </CharString>
          <CharString index="466">
            -27 -22 -27 -22 -24 -20 rrcurveto
            100 callsubr
            116 156 rmoveto
            23 -10 26 -39 21 -31 -16 return
          </CharString>
          <CharString index="467">
            25 -69 14 -54 4 -63 -18 -80 -43 -40 -52 -20 -32 22 -17 39 -5 53 14 73 43 74 52 65 rrcurveto
            return
          </CharString>
          <CharString index="468">
            -98 callgsubr
            -455 -101 callsubr
            458 hlineto
            return
          </CharString>
          <CharString index="469">
            -51 callsubr
            endchar
          </CharString>
          <CharString index="470">
            -61 -39 rlinecurve
            -8 6 351 callsubr
            rlinecurve
            -6 60 return
          </CharString>
          <CharString index="471">
            5 rrcurveto
            75 44 57 63 64 vvcurveto
            20 -19 25 -28 22 vhcurveto
            return
          </CharString>
          <CharString index="472">
            -22 49 -1 31 36 rcurveline
            36 -8 27 -15 31 -20 38 2 return
          </CharString>
          <CharString index="473">
            -62 -113 -23 return
          </CharString>
          <CharString index="474">
            rrcurveto
            -37 -22 -8 -36 -48 vvcurveto
            29 -51 52 -30 66 -19 51 1 69 22 36 38 21 64 5 62 -18 return
          </CharString>
          <CharString index="475">
            171 512 18 callsubr
            return
          </CharString>
          <CharString index="476">
            -101 callsubr
            230 hlineto
            24 -83 2 -33 -1 -33 -3 -32 rlinecurve
            -65 -26 return
          </CharString>
          <CharString index="477">
            -5 20 4 18 13 14 38 17 62 18 56 26 21 -14 20 -17 12 -18 -6 -58 -49 -54 -88 -26 return
          </CharString>
          <CharString index="478">
            299 callsubr
            -3 -28 rlinecurve
            return
          </CharString>
          <CharString index="479">
            -31 75 -16 rrcurveto
            52 323 callgsubr
            return
          </CharString>
          <CharString index="480">
            37 346 callsubr
            return
          </CharString>
          <CharString index="481">
            38 -35 43 -53 18 rlinecurve
            return
          </CharString>
          <CharString index="482">
            89 12 82 11 76 12 return
          </CharString>
          <CharString index="483">
            479 callgsubr
            -32 -54 return
          </CharString>
          <CharString index="484">
            hlineto
            518 callsubr
            36 28 callsubr
            31 43 52 23 44 hhcurveto
            18 510 callsubr
            return
          </CharString>
          <CharString index="485">
            -50 681 rmoveto
            48 39 41 47 49 -39 39 -48 -51 -40 -39 -49 -47 40 -41 51 hvcurveto
            endchar
          </CharString>
          <CharString index="486">
            hlineto
            -5 callsubr
            -191 hlineto
            return
          </CharString>
          <CharString index="487">
            rmoveto
            -64 28 -28 532 callgsubr
            13 17 return
          </CharString>
          <CharString index="488">
            rmoveto
            396 callgsubr
            return
          </CharString>
          <CharString index="489">
            237 callsubr
            -128 -26 vhcurveto
            return
          </CharString>
          <CharString index="490">
            -52 31 -35 49 -33 86 -15 rcurveline
            return
          </CharString>
          <CharString index="491">
            467 callgsubr
            -75 20 -47 -17 return
          </CharString>
          <CharString index="492">
            0 vlineto
            462 callgsubr
            return
          </CharString>
          <CharString index="493">
            44 -63 21 -28 7 -45 2 return
          </CharString>
          <CharString index="494">
            75 50 120 57 58 42 return
          </CharString>
          <CharString index="495">
            67 49 23 49 25 49 26 return
          </CharString>
          <CharString index="496">
            676 rmoveto
            29 -16 35 -2 31 3 72 161 rcurveline
            15 90 -30 13 -50 0 -56 -13 rlinecurve
            return
          </CharString>
          <CharString index="497">
            -68 vhcurveto
            46 52 callsubr
            -92 64 -131 -23 vhcurveto
            -58 return
          </CharString>
          <CharString index="498">
            203 rmoveto
            -43 -33 -33 -40 -40 33 -34 43 41 33 34 40 40 -33 33 -41 hvcurveto
            endchar
          </CharString>
          <CharString index="499">
            34 674 rmoveto
            27 21 23 25 27 -21 22 -27 -28 -21 -22 -27 -25 21 -23 28 hvcurveto
            return
          </CharString>
          <CharString index="500">
            -37 -21 -9 -37 1 -48 29 -50 51 -30 67 -15 53 -4 77 17 34 38 20 56 20 return
          </CharString>
          <CharString index="501">
            -320 rmoveto
            192 callsubr
            return
          </CharString>
          <CharString index="502">
            321 callgsubr
            -44 -4 return
          </CharString>
          <CharString index="503">
            -16 4 -18 16 -5 12 289 callsubr
            return
          </CharString>
          <CharString index="504">
            3 -23 25 -16 21 -58 5 -44 -43 return
          </CharString>
          <CharString index="505">
            27 -93 1 -42 -2 -46 -5 -45 rlinecurve
            return
          </CharString>
          <CharString index="506">
            176 5 136 rrcurveto
            139 hlineto
            return
          </CharString>
          <CharString index="507" raw="1">
            d3d1a21e a77e0b  
          </CharString>
          <CharString index="508">
            33 19 14 19 -1 27 return
          </CharString>
          <CharString index="509">
            -53 42 -52 91 -37 return
          </CharString>
          <CharString index="510">
            57 46 57 1 40 return
          </CharString>
          <CharString index="511">
            -43 hhcurveto
            -14 -22 10 10 -21 hvcurveto
            79 44 61 66 66 vvcurveto
            20 -19 25 -28 22 vhcurveto
            return
          </CharString>
          <CharString index="512">
            -39 496 callsubr
            18 21 17 20 321 callgsubr
            return
          </CharString>
          <CharString index="513">
            -27 1 -37 22 -4 32 rrcurveto
            64 48 157 86 74 vvcurveto
            15 -10 19 -18 17 vhcurveto
            return
          </CharString>
          <CharString index="514">
            746 rmoveto
            40 33 33 41 40 -33 33 -40 -43 -34 -33 -40 -41 34 -33 43 hvcurveto
            return
          </CharString>
          <CharString index="515">
            83 -17 47 -73 48 -78 -60 19 -152 rcurveline
            -61 -90 9 -22 19 -11 32 -1 rlinecurve
            return
          </CharString>
          <CharString index="516">
            39 2 37 rrcurveto
            return
          </CharString>
          <CharString index="517">
            -55 6 48 -62 40 hhcurveto
            57 8 51 60 14 61 rrcurveto
            42 -4 -30 32 -38 hhcurveto
            return
          </CharString>
          <CharString index="518">
            65 9 93 19 59 24 41 34 22 37 511 callsubr
            -14 9 rrcurveto
            return
          </CharString>
          <CharString index="519">
            35 -36 191 callsubr
            return
          </CharString>
          <CharString index="520">
            -106 275 callsubr
            return
          </CharString>
          <CharString index="521">
            348 callgsubr
            -96 -9 return
          </CharString>
          <CharString index="522">
            rmoveto
            58 -34 51 -49 30 465 callsubr
            return
          </CharString>
          <CharString index="523">
            rrcurveto
            15 callgsubr
            return
          </CharString>
          <CharString index="524" raw="1">
            f757f7ca 0a0b  
          </CharString>
          <CharString index="525">
            hlineto
            -28 52 -55 54 -61 8 return
          </CharString>
          <CharString index="526">
            -24 vhcurveto
            209 2 return
          </CharString>
          <CharString index="527">
            -93 476 callgsubr
            return
          </CharString>
          <CharString index="528">
            -12 85 -29 449 callsubr
            return
          </CharString>
          <CharString index="529">
            -26 -92 -18 -3 4 rcurveline
            -7 -6 rlineto
            -2 hlineto
            -13 -11 rlineto
            -42 -59 -79 -39 return
          </CharString>
          <CharString index="530">
            -19 callgsubr
            -9 -77 -126 -45 -80 -43 return
          </CharString>
          <CharString index="531">
            500 callsubr
            75 13 82 16 62 26 return
          </CharString>
          <CharString index="532">
            6 128 3 104 12 111 49 167 rcurveline
            -48 34 -61 -3 -87 -40 return
          </CharString>
          <CharString index="533">
            408 74 358 callgsubr
          </CharString>
          <CharString index="534">
            455 callgsubr
            rrcurveto
            return
          </CharString>
          <CharString index="535">
            -13 85 -39 35 -23 9 -59 -4 return
          </CharString>
          <CharString index="536">
            324 callsubr
            7 -12 -4 -38 return
          </CharString>
          <CharString index="537">
            97 402 callgsubr
            return
          </CharString>
          <CharString index="538">
            -98 89 539 callsubr
            return
          </CharString>
          <CharString index="539">
            26 37 vvcurveto
            32 12 33 return
          </CharString>
          <CharString index="540">
            -27 -97 -18 rrcurveto
            -63 -50 return
          </CharString>
          <CharString index="541">
            11 -7 rcurveline
            -36 return
          </CharString>
          <CharString index="542">
            -100 callgsubr
            -42 hlineto
            -16 -11 return
          </CharString>
          <CharString index="543">
            -23 vhcurveto
            -58 -54 -58 -55 -56 -49 -11 10 rcurveline
            34 51 -85 callgsubr
            return
          </CharString>
          <CharString index="544">
            -58 -118 -46 -145 -88 -87 -61 -13 -44 25 -39 74 -15 50 60 return
          </CharString>
          <CharString index="545">
            rmoveto
            11 50 33 64 37 5 32 -16 17 -43 5 -33 -16 -43 -33 -38 return
          </CharString>
          <CharString index="546">
            285 callsubr
            18 478 callgsubr
            return
          </CharString>
          <CharString index="547">
            -50 -11 248 callsubr
            return
          </CharString>
          <CharString index="548">
            11 -7 rcurveline
            -40 -87 return
          </CharString>
          <CharString index="549">
            102 498 callgsubr
            return
          </CharString>
          <CharString index="550" raw="1">
            f70570b8 0b  
          </CharString>
          <CharString index="551">
            518 callgsubr
            -867 -101 callsubr
            return
          </CharString>
          <CharString index="552">
            rrcurveto
            181 hlineto
            -5 callsubr
            -187 hlineto
            return
          </CharString>
          <CharString index="553">
            43 37 22 546 callsubr
            284 hlineto
            return
          </CharString>
          <CharString index="554">
            -58 -48 -214 return
          </CharString>
          <CharString index="555">
            -10 -46 callsubr
            return
          </CharString>
          <CharString index="556">
            2 214 callsubr
            -109 5 -36 -32 8 -63 return
          </CharString>
          <CharString index="557">
            19 0 18 -5 16 -18 17 -19 15 -21 14 rrcurveto
            715 hlineto
            return
          </CharString>
          <CharString index="558">
            625 -66 callgsubr
            return
          </CharString>
          <CharString index="559">
            272 callsubr
            -4 41 return
          </CharString>
          <CharString index="560">
            26 -3 31 291 callsubr
            return
          </CharString>
          <CharString index="561">
            100 callsubr
            67 50 72 return
          </CharString>
          <CharString index="562">
            72 128 vvcurveto
            99 -97 61 return
          </CharString>
          <CharString index="563">
            rrcurveto
            -17 -13 -11 -14 -14 vvcurveto
            return
          </CharString>
          <CharString index="564">
            323 callsubr
            -15 9 rrcurveto
            return
          </CharString>
          <CharString index="565">
            17 18 17 19 16 18 return
          </CharString>
          <CharString index="566">
            hlineto
            -23 -141 -5 -3 return
          </CharString>
          <CharString index="567">
            -21 -4 -8 rcurveline
            -59 -20 return
          </CharString>
          <CharString index="568">
            493 callsubr
            32 return
          </CharString>
          <CharString index="569">
            -11 54 -72 64 -94 -53 return
          </CharString>
          <CharString index="570">
            467 callsubr
            99 -72 return
          </CharString>
          <CharString index="571">
            498 callsubr
            -96 -18 return
          </CharString>
          <CharString index="572">
            -49 -6 -6 rcurveline
            -44 return
          </CharString>
          <CharString index="573">
            -8 6 rcurveline
            18 return
          </CharString>
          <CharString index="574">
            -21 -64 vvcurveto
            -60 return
          </CharString>
          <CharString index="575">
            28 118 20 128 -5 62 -24 41 -45 22 -66 -1 return
          </CharString>
          <CharString index="576">
            209 2 140 137 -9 138 -36 36 -65 35 return
          </CharString>
          <CharString index="577">
            275 callsubr
            -85 callgsubr
            return
          </CharString>
          <CharString index="578">
            -91 2 -38 524 callgsubr
            return
          </CharString>
          <CharString index="579">
            523 callsubr
            -121 -6 return
          </CharString>
          <CharString index="580">
            hlineto
            483 callgsubr
            return
          </CharString>
          <CharString index="581">
            12 54 34 54 35 38 21 22 -6 19 -10 12 -13 rrcurveto
            return
          </CharString>
          <CharString index="582">
            16 34 25 rlinecurve
            return
          </CharString>
          <CharString index="583">
            -30 42 -38 34 return
          </CharString>
          <CharString index="584">
            -25 5 40 4 return
          </CharString>
          <CharString index="585">
            -127 -45 -81 return
          </CharString>
          <CharString index="586">
            19 -18 18 -17 return
          </CharString>
          <CharString index="587">
            -31 374 callgsubr
            16 -88 69 -98 89 -64 return
          </CharString>
          <CharString index="588">
            321 callsubr
            66 49 24 return
          </CharString>
          <CharString index="589">
            hhcurveto
            110 72 84 136 19 hvcurveto
            15 107 -65 106 return
          </CharString>
          <CharString index="590">
            448 rmoveto
            0 vlineto
            -92 -55 -125 -31 -111 -2 return
          </CharString>
          <CharString index="591">
            -6 -15 30 -17 31 -12 34 -80 6 -32 -46 -8 -56 return
          </CharString>
          <CharString index="592">
            rmoveto
            -671 -101 callsubr
            return
          </CharString>
          <CharString index="593">
            181 -220 49 -1 32 69 -17 64 rlinecurve
            endchar
          </CharString>
          <CharString index="594">
            -4 rlinecurve
            160 callgsubr
            return
          </CharString>
          <CharString index="595">
            19 -17 32 23 12 26 13 28 return
          </CharString>
          <CharString index="596">
            -74 -49 -50 -87 -11 -64 1 -106 return
          </CharString>
          <CharString index="597">
            400 callgsubr
            69 59 return
          </CharString>
          <CharString index="598">
            vvcurveto
            87 -92 101 -81 -80 -138 return
          </CharString>
          <CharString index="599">
            7 -44 2 -44 -4 return
          </CharString>
          <CharString index="600">
            48 18 25 26 -3 return
          </CharString>
          <CharString index="601">
            hlineto
            -115 -515 return
          </CharString>
          <CharString index="602">
            33 -13 32 3 29 return
          </CharString>
          <CharString index="603">
            466 callsubr
            19 return
          </CharString>
          <CharString index="604">
            -17 -45 23 -39 64 return
          </CharString>
          <CharString index="605">
            -68 -34 -86 -27 return
          </CharString>
          <CharString index="606">
            -28 -31 -47 -29 return
          </CharString>
          <CharString index="607">
            60 -41 31 -76 23 -106 14 -70 24 5 15 rcurveline
            return
          </CharString>
          <CharString index="608">
            2 82 -45 35 -64 -7 -30 -49 -53 -51 -61 -23 return
          </CharString>
          <CharString index="609">
            -704 rmoveto
            -36 3 77 120 52 74 7 -2 return
          </CharString>
          <CharString index="610">
            -48 callsubr
            45 hlineto
            return
          </CharString>
          <CharString index="611">
            -1 -60 -88 -20 -126 rrcurveto
            -137 -22 75 -82 return
          </CharString>
          <CharString index="612">
            756 rmoveto
            -92 -60 -89 -125 -19 hvcurveto
            -138 return
          </CharString>
          <CharString index="613">
            489 callsubr
            83 -90 87 -23 return
          </CharString>
          <CharString index="614">
            291 callsubr
            15 callgsubr
            return
          </CharString>
          <CharString index="615">
            41 22 10 -6 rcurveline
            -88 -382 -87 callsubr
            return
          </CharString>
          <CharString index="616">
            -7 39 -4 28 8 26 return
          </CharString>
          <CharString index="617">
            17 24 callgsubr
            return
          </CharString>
          <CharString index="618">
            -14 40 323 callsubr
            return
          </CharString>
          <CharString index="619">
            496 callsubr
            17 return
          </CharString>
          <CharString index="620">
            hlineto
            -51 -234 rmoveto
            -44 return
          </CharString>
          <CharString index="621">
            -72 90 -11 vhcurveto
            93 29 return
          </CharString>
          <CharString index="622">
            -23 -19 21 29 47 40 return
          </CharString>
          <CharString index="623">
            31 -4 19 -26 7 -27 return
          </CharString>
          <CharString index="624">
            -7 -15 -5 -18 -2 -16 return
          </CharString>
          <CharString index="625">
            -6 -4 -20 -39 return
          </CharString>
          <CharString index="626">
            3 76 -21 67 return
          </CharString>
          <CharString index="627">
            11 126 80 83 78 8 -9 rcurveline
            -43 -54 return
          </CharString>
          <CharString index="628">
            -7 vvcurveto
            -70 125 -85 72 55 129 82 return
          </CharString>
          <CharString index="629" raw="1">
            b4f8170a 08b6b00b  
          </CharString>
          <CharString index="630">
            22 -36 399 callgsubr
            return
          </CharString>
          <CharString index="631">
            23 -14 21 -61 15 -58 -54 -30 -73 59 -70 return
          </CharString>
          <CharString index="632">
            138 -32 32 -56 32 -52 22 134 38 return
          </CharString>
          <CharString index="633">
            26 11 28 9 11 -32 2 -35 -10 -32 rrcurveto
            return
          </CharString>
          <CharString index="634">
            hlineto
            517 callsubr
            return
          </CharString>
          <CharString index="635">
            68 -54 101 -11 40 31 rlinecurve
            return
          </CharString>
          <CharString index="636">
            hlineto
            35 421 callgsubr
            return
          </CharString>
          <CharString index="637">
            66 -27 43 -86 37 -36 46 return
          </CharString>
          <CharString index="638">
            hhcurveto
            515 callsubr
            return
          </CharString>
          <CharString index="639">
            rmoveto
            2 -71 32 -69 54 -55 return
          </CharString>
          <CharString index="640">
            hlineto
            -31 -39 -23 -39 -11 -30 return
          </CharString>
          <CharString index="641">
            74 -15 42 -64 43 return
          </CharString>
          <CharString index="642">
            rrcurveto
            -35 -19 -10 -36 return
          </CharString>
          <CharString index="643">
            9 -59 -4 -66 -41 return
          </CharString>
          <CharString index="644">
            30 rlinecurve
            25 408 return
          </CharString>
          <CharString index="645">
            hlineto
            31 -15 17 -11 return
          </CharString>
          <CharString index="646">
            -61 126 -1 return
          </CharString>
          <CharString index="647">
            hlineto
            -16 -11 -12 -17 -6 -82 callsubr
            return
          </CharString>
          <CharString index="648">
            -19 rlinecurve
            42 47 47 22 57 hhcurveto
            5 -8 return
          </CharString>
          <CharString index="649">
            -42 -80 -19 rrcurveto
            305 180 rmoveto
            -13 return
          </CharString>
          <CharString index="650">
            30 -27 31 rlinecurve
            15 11 18 10 20 5 return
          </CharString>
          <CharString index="651">
            25 26 -18 19 -26 -25 -19 -19 -26 vhcurveto
            return
          </CharString>
          <CharString index="652">
            60 callsubr
            4 return
          </CharString>
          <CharString index="653">
            58 -17 40 70 callsubr
            return
          </CharString>
          <CharString index="654">
            44 41 122 -40 109 -145 18 return
          </CharString>
          <CharString index="655">
            -8 18 31 vvcurveto
            51 39 58 56 19 vhcurveto
            return
          </CharString>
          <CharString index="656">
            -1 -157 -29 -133 -162 -34 -90 return
          </CharString>
          <CharString index="657">
            -57 -75 -122 return
          </CharString>
          <CharString index="658">
            78 18 35 42 return
          </CharString>
        <CharString name=".notdef">
          99 166 hmoveto
          422 701 -422 hlineto
          73 -68 rmoveto
          277 -565 -277 hlineto
          endchar
        </CharString>
        <CharString name="A">
          76 426 616 -89 callgsubr
          endchar
        </CharString>
        <CharString name="AE">
          255 700 747 rmoveto
          -153 -147 -11 -30 -93 hvcurveto
          -67 -207 -62 -123 rlineto
          -119 hlineto
          -32 -40 -1 -26 26 -29 79 7 rcurveline
          -137 -245 21 -40 114 -18 64 35 rlinecurve
          109 277 142 11 -58 -250 rlineto
          -36 28 41 -22 73 hhcurveto
          73 153 12 16 81 hvcurveto
          16 31 22 76 -54 25 -91 -23 -105 -22 -78 -6 rrcurveto
          74 vlineto
          32 133 91 11 57 0 89 -6 rlinecurve
          32 32 6 59 -34 16 -88 -8 -82 -11 -64 -9 -1 167 rcurveline
          29 69 61 9 49 4 46 -9 rlinecurve
          75 -61 70 48 30 63 -41 51 rlinecurve
          3 -54 -75 3 -73 hhcurveto
          -269 -122 rmoveto
          14 3 6 -248 -120 -10 rlineto
          endchar
        </CharString>
        <CharString name="Aacute">
          76 706 973 41 callsubr
          -84 -185 -89 callgsubr
          endchar
        </CharString>
        <CharString name="Abreve">
          76 499 811 rmoveto
          55 callsubr
          -100 17 82 -53 83 hhcurveto
          -73 -195 -89 callgsubr
          endchar
        </CharString>
        <CharString name="Acircumflex">
          76 482 940 182 callgsubr
          99 -188 -89 callgsubr
          endchar
        </CharString>
        <CharString name="Adieresis">
          76 611 822 33 callsubr
          62 -206 -89 callgsubr
          endchar
        </CharString>
        <CharString name="Agrave">
          76 476 806 199 callsubr
          16 -283 -89 callgsubr
          endchar
        </CharString>
        <CharString name="Amacron">
          76 652 824 262 callsubr
          128 -197 -89 callgsubr
          endchar
        </CharString>
        <CharString name="Aogonek">
          76 426 616 rmoveto
          14 3 9 -279 -125 -1 rlineto
          296 -328 rmoveto
          6 2 5 3 5 4 -25 266 rcurveline
          100 7 27 43 1 31 -23 20 rlinecurve
          -112 -20 -18 191 22 167 -49 25 -132 11 -122 -53 rlinecurve
          -67 -219 -79 -152 -109 -1 -31 -40 0 -27 27 -28 rlinecurve
          67 7 -106 -205 23 -40 114 -18 62 35 rlinecurve
          91 245 16 2 128 8 -31 -236 13 -9 16 -8 17 -6 rlinecurve
          -63 -39 -54 -55 -61 vvcurveto
          -57 86 -51 84 98 61 31 52 49 vhcurveto
          34 -15 18 -24 -1 vhcurveto
          -24 -34 -43 -16 -39 hhcurveto
          -33 -27 12 23 -16 hvcurveto
          21 66 58 44 55 18 rrcurveto
          endchar
        </CharString>
        <CharString name="Aring">
          76 474 917 39 callsubr
          -42 -181 -89 callgsubr
          endchar
        </CharString>
        <CharString name="Atilde">
          76 426 616 -89 callgsubr
          -87 501 rmoveto
          309 callsubr
          37 callgsubr
          rrcurveto
          endchar
        </CharString>
        <CharString name="B">
          48 495 537 rmoveto
          -4 -49 -18 -27 -35 -34 -40 -19 -39 -4 -54 1 35 246 rcurveline
          116 17 48 -61 -9 -70 rrcurveto
          -254 -445 rmoveto
          52 243 78 7 42 -11 43 -22 rlinecurve
          15 -28 4 -20 -20 vvcurveto
          1 -44 -14 -40 -34 -44 -58 -18 -68 -9 -61 6 rrcurveto
          284 294 rmoveto
          105 43 53 53 1 88 rrcurveto
          92 2 -98 84 -215 hhcurveto
          -69 -124 -11 -20 -67 hvcurveto
          -18 -19 3 -32 26 -19 46 2 rcurveline
          6 -162 -24 -120 -38 -116 -51 -138 rlinecurve
          4 -63 76 -37 64 -11 158 -6 78 12 116 37 rrcurveto
          83 76 24 61 65 vvcurveto
          1 32 -9 29 -24 29 -26 19 -36 17 -48 7 rrcurveto
          endchar
        </CharString>
        <CharString name="C">
          27 440 666 21 callgsubr
        </CharString>
        <CharString name="CR">
          -217 endchar
        </CharString>
        <CharString name="Cacute">
          27 500 1033 -51 callsubr
          -60 -367 21 callgsubr
        </CharString>
        <CharString name="Ccaron">
          27 539 824 rmoveto
          163 159 -24 54 -85 -13 -33 -9 rlinecurve
          -125 -143 -39 callgsubr
          -99 -158 21 callgsubr
        </CharString>
        <CharString name="Ccedilla">
          27 440 666 rmoveto
          34 -38 7 -70 3 -58 76 -37 89 35 24 45 -12 93 -50 81 -116 42 -150 -21 -106 -59 -100 -95 -56 -92 -31 -77 -2 -89 -1 -154 88 -119 179 -44 -53 -107 rcurveline
          -64 callsubr
          46 89 94 36 86 52 51 56 rlinecurve
          2 43 -18 33 -51 -5 -51 -42 -61 -36 -86 -31 -90 43 -44 62 1 113 rrcurveto
          111 67 130 114 79 vhcurveto
          endchar
        </CharString>
        <CharString name="D">
          86 277 331 rmoveto
          33 111 28 100 26 94 139 -5 47 -94 -1 -135 -1 -109 -54 -100 -96 -74 -45 -16 -47 -7 -60 -3 rrcurveto
          -80 521 rmoveto
          -3 -149 -29 -133 -37 -94 -53 -126 32 callgsubr
        </CharString>
        <CharString name="Dcaron">
          86 663 983 rmoveto
          -24 54 -85 -13 -33 -9 -125 -143 rcurveline
          -39 callgsubr
          -223 -493 rmoveto
          33 111 28 100 26 94 139 -5 47 -94 -1 -135 -1 -109 -54 -100 -96 -74 -45 -16 -47 -7 -60 -3 rrcurveto
          -80 521 rmoveto
          -3 -149 -29 -133 -37 -94 -53 -126 32 callgsubr
        </CharString>
        <CharString name="Dcroat">
          38 callgsubr
        </CharString>
        <CharString name="E">
          -13 callgsubr
          endchar
        </CharString>
        <CharString name="Eacute">
          3 498 1033 -51 callsubr
          12 -391 -89 callsubr
          endchar
        </CharString>
        <CharString name="Ecaron">
          3 538 824 rmoveto
          163 159 -24 54 -85 -13 -33 -9 rlinecurve
          -125 -143 -39 callgsubr
          -28 -182 -89 callsubr
          endchar
        </CharString>
        <CharString name="Ecircumflex">
          3 210 844 2 callgsubr
          107 -380 -89 callsubr
          endchar
        </CharString>
        <CharString name="Edieresis">
          3 320 822 -20 callsubr
          -57 -180 -89 callsubr
          endchar
        </CharString>
        <CharString name="Edotaccent">
          -13 callgsubr
          -72 187 130 callgsubr
          endchar
        </CharString>
        <CharString name="Egrave">
          -13 callgsubr
          -68 387 77 callgsubr
          endchar
        </CharString>
        <CharString name="Emacron">
          -13 callgsubr
          114 259 rmoveto
          -178 -18 48 callsubr
          endchar
        </CharString>
        <CharString name="Eogonek">
          1 294 328 rmoveto
          83 78 -6 -7 75 hvcurveto
          24 40 12 54 -33 28 -74 -7 -72 -10 -82 -11 27 144 rcurveline
          31 85 64 10 39 -4 44 -2 rlinecurve
          88 -78 77 39 29 66 -37 68 rlinecurve
          -219 13 -126 -4 -205 -17 -15 -15 -2 -31 10 -27 26 -6 21 -6 18 -8 2 -143 rcurveline
          -33 -154 -29 -80 -54 -146 5 -57 46 -35 87 -21 188 13 rcurveline
          -58 -39 -39 -52 -48 vvcurveto
          -67 73 -54 99 79 62 31 52 47 vhcurveto
          1 28 -12 20 -30 -1 rrcurveto
          -29 -36 -44 -16 -40 hhcurveto
          -34 -27 10 18 -19 hvcurveto
          16 75 75 58 69 27 36 44 18 76 -63 20 -95 -24 -116 -21 -100 -15 rrcurveto
          endchar
        </CharString>
        <CharString name="Eth">
          38 callgsubr
        </CharString>
        <CharString name="Euro">
          104 545 260 rmoveto
          26 33 4 40 -30 11 -215 -29 rcurveline
          -1 9 0 8 9 vvcurveto
          16 1 16 2 16 vhcurveto
          227 11 26 34 4 39 -31 11 rlinecurve
          -212 -29 23 72 46 72 80 62 rlinecurve
          20 5 31 -41 5 -26 11 -53 rlinecurve
          77 -36 86 35 16 56 -39 88 -38 43 -112 27 -120 -23 -107 -54 -100 -96 -28 -50 -22 -45 -14 -45 -95 9 rcurveline
          -25 -25 -4 -36 20 -19 88 4 rcurveline
          -2 -17 -2 -18 -18 -7 0 -7 -6 vvcurveto
          -93 9 -26 -25 -4 -37 20 -18 rlinecurve
          113 6 30 -123 99 -89 171 -29 rlinecurve
          111 36 107 60 59 65 2 43 -18 33 -50 -5 -56 -45 -61 -36 -81 -28 -60 30 -42 39 -20 58 rrcurveto
          endchar
        </CharString>
        <CharString name="F">
          -17 363 638 rmoveto
          64 10 39 -4 44 -2 88 -78 rcurveline
          77 39 29 66 -37 68 -219 13 -126 -3 -205 -18 -15 -15 -2 -30 10 -28 26 -5 21 -7 18 -7 6 -136 rcurveline
          -27 -162 -31 -122 -63 -169 35 -47 131 -15 46 36 4 123 4 70 11 91 rrcurveto
          87 77 -4 -9 71 hvcurveto
          31 45 1 57 -27 21 -67 -8 -82 -9 -79 -12 29 167 rcurveline
          endchar
        </CharString>
        <CharString name="G">
          68 570 222 -24 callgsubr
          endchar
        </CharString>
        <CharString name="Gbreve">
          68 570 222 -24 callgsubr
          -244 737 rmoveto
          -100 17 82 -53 83 hhcurveto
          55 callsubr
          endchar
        </CharString>
        <CharString name="H">
          148 705 455 rmoveto
          85 277 rlineto
          11 -22 352 callsubr
          -12 -25 -51 hvcurveto
          -2 -180 -6 -33 -6 -33 -6 -32 rlinecurve
          -182 -25 -73 1 1 11 1 11 1 11 rlinecurve
          89 290 rlineto
          11 -22 -25 5 -29 hhcurveto
          -42 -48 -12 -25 -51 hvcurveto
          -2 -180 -7 -41 -8 -40 -7 -39 rlinecurve
          -81 1 -32 -42 0 -29 26 -32 rlinecurve
          67 6 -20 -90 -23 -86 -30 -90 rlinecurve
          22 -46 133 -20 56 39 9 111 8 106 7 92 rrcurveto
          5 hlineto
          240 17 -22 -102 -25 -96 -33 -101 rlinecurve
          22 -46 133 -20 56 39 10 123 8 116 9 98 92 7 rcurveline
          28 48 2 34 -29 18 rrcurveto
          endchar
        </CharString>
        <CharString name="I">
          -44 callgsubr
          endchar
        </CharString>
        <CharString name="Iacute">
          -44 callgsubr
          190 322 362 callsubr
        </CharString>
        <CharString name="Icircumflex">
          -44 callgsubr
          -98 133 2 callgsubr
          endchar
        </CharString>
        <CharString name="Idieresis">
          -44 callgsubr
          11 111 -20 callsubr
          endchar
        </CharString>
        <CharString name="Idotaccent">
          -44 callgsubr
          129 118 130 callgsubr
          endchar
        </CharString>
        <CharString name="Igrave">
          -44 callgsubr
          133 318 77 callgsubr
          endchar
        </CharString>
        <CharString name="Imacron">
          -44 callgsubr
          316 190 rmoveto
          -178 -18 48 callsubr
          endchar
        </CharString>
        <CharString name="Iogonek">
          -338 208 12 rmoveto
          7 3 6 3 5 4 13 160 10 148 10 112 89 290 rcurveline
          11 -21 352 callsubr
          -12 -25 -51 hvcurveto
          -2 -180 -31 -176 -32 -147 -52 -159 rlinecurve
          7 -15 18 -12 24 -8 rrcurveto
          -59 -34 -46 -51 -59 vvcurveto
          -62 73 -56 97 75 74 30 54 39 vhcurveto
          7 30 -14 19 -37 -2 rrcurveto
          -28 -34 -41 -14 -38 hhcurveto
          -32 -30 10 21 -20 hvcurveto
          5 64 84 58 41 17 rrcurveto
          endchar
        </CharString>
        <CharString name="J">
          25 359 631 rmoveto
          -1 -101 -19 -165 -26 -103 -35 -153 rlinecurve
          -20 -8 -33 45 -15 31 -12 72 rlinecurve
          -59 32 -69 -23 -51 -65 33 -84 61 -63 81 -40 133 -19 78 33 52 69 5 149 5 72 7 117 52 214 rcurveline
          187 -31 45 62 -4 39 -21 24 rlinecurve
          -242 15 -122 -4 -233 -17 -19 -40 3 -36 38 -47 rrcurveto
          endchar
        </CharString>
        <CharString name="K">
          48 397 502 89 callgsubr
        </CharString>
        <CharString name="L">
          -79 150 711 29 callgsubr
        </CharString>
        <CharString name="Lacute">
          -79 325 1033 -51 callsubr
          -175 -322 29 callgsubr
        </CharString>
        <CharString name="Lcaron">
          -79 480 602 rmoveto
          93 72 50 86 7 408 callsubr
          -330 109 29 callgsubr
        </CharString>
        <CharString name="Lslash">
          -7 336 375 rmoveto
          180 4 44 44 -16 43 -39 17 rlinecurve
          -151 -27 85 276 -56 28 -83 -10 -77 -39 rlinecurve
          -3 -183 -7 -34 -7 -33 -8 -32 rlinecurve
          -129 14 -24 -20 -2 -44 38 -39 rlinecurve
          98 14 -21 -80 -25 -79 -32 -84 rlinecurve
          14 -53 55 -37 66 -21 346 40 rcurveline
          26 32 16 75 -57 24 -87 -25 -83 -21 -101 -17 rrcurveto
          endchar
        </CharString>
        <CharString name="M">
          219 605 498 rmoveto
          -147 -204 -46 81 -32 123 -20 108 -4 110 rlinecurve
          22 -33 -35 9 -34 hhcurveto
          -40 -39 -11 -24 -39 hvcurveto
          -9 -183 -28 -169 -32 -146 -55 -165 rlinecurve
          22 -46 133 -20 55 39 13 164 14 147 8 109 16 55 rcurveline
          14 -81 21 -86 40 -102 41 -41 53 -11 62 26 175 279 rcurveline
          -4 -27 -22 -136 -27 -111 -50 -158 rlinecurve
          23 -46 132 -20 56 39 10 151 12 141 10 124 85 280 rcurveline
          22 -17 -32 8 -35 hhcurveto
          -37 -39 -14 -12 -31 hvcurveto
          endchar
        </CharString>
        <CharString name="N">
          107 580 524 -69 callgsubr
        </CharString>
        <CharString name="NULL">
          endchar
        </CharString>
        <CharString name="Nacute">
          107 694 973 41 callsubr
          82 -277 -69 callgsubr
        </CharString>
        <CharString name="Ncaron">
          107 732 983 rmoveto
          -24 54 -85 -13 -33 -9 -125 -143 rcurveline
          -39 callgsubr
          11 -300 -69 callgsubr
        </CharString>
        <CharString name="Ntilde">
          107 409 887 231 callgsubr
          238 -280 -69 callgsubr
        </CharString>
        <CharString name="O">
          123 callsubr
          endchar
        </CharString>
        <CharString name="OE">
          370 583 694 rmoveto
          29 -40 -54 35 -56 hhcurveto
          -204 -186 -223 -218 1 hvcurveto
          -145 150 -172 127 54 61 30 30 42 vhcurveto
          32 -31 28 -16 54 -12 346 25 rcurveline
          36 45 18 75 -63 20 -99 -24 -109 -21 -96 -13 36 220 rcurveline
          82 -1 85 -6 70 -6 23 40 12 54 -33 28 -68 -6 -81 -9 -79 -11 15 176 rcurveline
          36 50 64 14 47 -3 44 -2 rlinecurve
          88 -79 76 39 29 66 -36 69 rlinecurve
          -211 11 -123 -5 -118 -53 rrcurveto
          -357 -362 rmoveto
          116 84 144 113 75 vhcurveto
          82 -81 28 -65 3 -116 -30 -136 -75 -110 -107 -67 -61 59 -38 86 1 95 rrcurveto
          endchar
        </CharString>
        <CharString name="Oacute">
          46 509 1033 -51 callsubr
          -466 -716 -79 callgsubr
          endchar
        </CharString>
        <CharString name="Ocircumflex">
          46 221 844 2 callgsubr
          -371 -705 -79 callgsubr
          endchar
        </CharString>
        <CharString name="Odieresis">
          46 331 822 -20 callsubr
          -535 -505 -79 callgsubr
          endchar
        </CharString>
        <CharString name="Ograve">
          123 callsubr
          -75 657 77 callgsubr
          endchar
        </CharString>
        <CharString name="Ohungarumlaut">
          46 274 810 113 callgsubr
          -503 -671 -79 callgsubr
          endchar
        </CharString>
        <CharString name="Omacron">
          46 635 901 rmoveto
          -178 -18 48 callsubr
          -592 -584 -79 callgsubr
          endchar
        </CharString>
        <CharString name="Oslash">
          105 538 441 rmoveto
          4 -22 2 -23 3 -24 -30 -110 -73 -102 -102 -68 -35 35 -27 43 -16 50 rrcurveto
          -16 71 rmoveto
          -2 14 -1 13 14 vvcurveto
          116 85 144 113 75 vhcurveto
          41 -52 25 -54 15 -57 rrcurveto
          282 153 rmoveto
          -5 54 -39 29 -74 6 -59 -102 rcurveline
          69 -54 -67 45 -56 hhcurveto
          -203 -186 -223 -218 -45 15 -48 24 -45 hvcurveto
          -103 -79 3 -56 34 -24 70 -20 rlinecurve
          57 95 rlineto
          -56 52 65 -39 61 hhcurveto
          171 209 221 185 -3 hvcurveto
          -1 52 -13 52 -22 47 rrcurveto
          endchar
        </CharString>
        <CharString name="Otilde">
          123 callsubr
          -128 613 rmoveto
          37 callgsubr
          -67 -88 rcurveline
          -5 hlineto
          -32 32 -61 43 -99 22 rrcurveto
          endchar
        </CharString>
        <CharString name="P">
          22 355 656 rmoveto
          102 -8 60 -62 1 -68 rrcurveto
          -55 -24 -54 -37 -35 vhcurveto
          -33 -22 -59 -20 -68 -15 3 42 3 41 3 44 rrcurveto
          -134 198 rmoveto
          3 -124 -30 -176 -28 -122 -54 -174 rlinecurve
          31 -48 132 -12 48 37 7 78 5 70 5 68 95 11 69 20 58 18 116 59 63 69 2 108 rrcurveto
          114 1 -138 118 -201 hhcurveto
          -90 -89 -13 -22 -65 hvcurveto
          -17 -18 4 -36 26 -20 rrcurveto
          endchar
        </CharString>
        <CharString name="Q">
          53 423 667 rmoveto
          71 -90 21 -93 12 -112 -30 -110 -74 -102 -101 -68 -59 59 -37 86 -1 95 rrcurveto
          116 84 144 114 75 vhcurveto
          5 -642 rmoveto
          140 64 132 170 -2 147 rrcurveto
          178 -3 -154 174 -109 hhcurveto
          -204 -185 -223 -218 hvcurveto
          -145 1 149 -172 128 hhcurveto
          10 hlineto
          92 -179 72 -28 98 31 8 99 rlinecurve
          -147 56 rlineto
          endchar
        </CharString>
        <CharString name="R">
          47 356 657 -62 callgsubr
        </CharString>
        <CharString name="Racute">
          47 604 973 41 callsubr
          -52 -144 -62 callgsubr
        </CharString>
        <CharString name="Rcaron">
          47 642 983 rmoveto
          -24 54 -85 -13 -33 -9 -125 -143 rcurveline
          -39 callgsubr
          -123 -167 -62 callgsubr
        </CharString>
        <CharString name="S">
          21 642 254 rmoveto
          -40 callgsubr
          38 -77 115 -71 122 -22 192 20 137 92 22 142 rrcurveto
          endchar
        </CharString>
        <CharString name="Sacute">
          21 485 1033 -51 callsubr
          157 -779 rmoveto
          -40 callgsubr
          38 -77 115 -71 122 -22 192 20 137 92 22 142 rrcurveto
          endchar
        </CharString>
        <CharString name="Scaron">
          21 524 824 rmoveto
          163 159 -24 54 -85 -13 -33 -9 rlinecurve
          -125 -143 -39 callgsubr
          118 -570 rmoveto
          -40 callgsubr
          38 -77 115 -71 122 -22 192 20 137 92 22 142 rrcurveto
          endchar
        </CharString>
        <CharString name="T">
          15 309 627 54 callsubr
        </CharString>
        <CharString name="Tcaron">
          15 682 983 rmoveto
          -24 54 -85 -13 -33 -9 -125 -143 rcurveline
          -39 callgsubr
          -210 -197 54 callsubr
        </CharString>
        <CharString name="Thorn">
          6 439 296 rmoveto
          -42 -29 -59 -6 -66 13 6 82 7 85 6 78 29 13 39 11 47 -1 52 -16 34 -40 1 -70 2 -43 -20 -41 -36 -36 rrcurveto
          -75 530 rmoveto
          -59 25 -74 -10 -76 -46 5 -256 rcurveline
          -34 -186 -37 -160 -55 -146 24 -44 143 -20 51 42 5 54 5 62 5 65 66 -13 72 -2 92 18 119 68 54 60 -1 87 1 124 -117 70 -139 19 -34 -6 -42 -15 -38 -17 rrcurveto
          endchar
        </CharString>
        <CharString name="U">
          -2 callgsubr
          endchar
        </CharString>
        <CharString name="Uacute">
          31 494 1033 -51 callsubr
          73 -803 -86 callgsubr
          140 -18 96 60 64 138 rrcurveto
          endchar
        </CharString>
        <CharString name="Ucircumflex">
          31 205 844 2 callgsubr
          169 -792 -86 callgsubr
          140 -18 96 60 64 138 rrcurveto
          endchar
        </CharString>
        <CharString name="Udieresis">
          31 315 822 -20 callsubr
          5 -592 -86 callgsubr
          140 -18 96 60 64 138 rrcurveto
          endchar
        </CharString>
        <CharString name="Ugrave">
          -2 callgsubr
          -130 799 77 callgsubr
          endchar
        </CharString>
        <CharString name="Uhungarumlaut">
          -2 callgsubr
          -308 580 113 callgsubr
          endchar
        </CharString>
        <CharString name="Umacron">
          -2 callgsubr
          53 671 rmoveto
          -178 -18 48 callsubr
          endchar
        </CharString>
        <CharString name="Uogonek">
          31 567 230 -86 callgsubr
          -2 14 13 -1 12 hhcurveto
          -103 -32 -68 -69 -68 vvcurveto
          -67 64 -58 120 70 70 30 53 41 vhcurveto
          1 30 -14 20 -30 -3 rrcurveto
          -28 -31 -43 -16 -40 hhcurveto
          -34 -32 13 27 -20 hvcurveto
          8 58 62 54 69 16 -2 19 -3 18 -19 9 85 17 63 59 47 101 rrcurveto
          endchar
        </CharString>
        <CharString name="Uring">
          31 501 1039 165 callgsubr
          92 -764 -86 callgsubr
          140 -18 96 60 64 138 rrcurveto
          endchar
        </CharString>
        <CharString name="V">
          43 565 489 rmoveto
          -205 -384 -38 228 -2 400 -42 33 -120 -11 -63 -72 rlinecurve
          116 -624 46 -55 90 -17 76 22 rlinecurve
          58 140 73 124 59 88 72 120 rlinecurve
          39 63 27 87 -7 81 -46 42 -115 16 -61 -63 rrcurveto
          endchar
        </CharString>
        <CharString name="W">
          363 891 490 rmoveto
          -172 -386 -47 260 7 321 -77 37 -80 -29 -47 -52 rlinecurve
          52 -227 -160 -308 -40 228 -9 401 -43 32 -113 -6 -67 -77 rlinecurve
          125 -626 49 -53 87 -18 77 22 rlinecurve
          43 132 78 153 26 -240 41 -50 86 -16 77 21 rlinecurve
          45 142 183 333 40 74 20 80 -5 76 rlinecurve
          -50 39 -109 20 -63 -64 rrcurveto
          endchar
        </CharString>
        <CharString name="X">
          92 419 445 rmoveto
          -27 115 -62 129 -86 64 -105 -8 -53 -76 9 -85 98 -35 103 -79 62 -98 -98 -89 -106 -81 -122 -76 -9 -58 29 -60 118 -8 212 301 rcurveline
          29 -105 64 -122 75 -74 121 23 42 80 -24 69 -86 40 -91 84 -67 81 132 116 105 84 89 61 3 67 -33 57 -92 -8 rrcurveto
          endchar
        </CharString>
        <CharString name="Y">
          26 callsubr
          endchar
        </CharString>
        <CharString name="Yacute">
          26 callsubr
          391 369 362 callsubr
        </CharString>
        <CharString name="Ydieresis">
          26 callsubr
          213 158 -20 callsubr
          endchar
        </CharString>
        <CharString name="Z">
          60 197 68 -62 callsubr
          endchar
        </CharString>
        <CharString name="Zacute">
          60 509 1033 -51 callsubr
          -312 -965 -62 callsubr
          endchar
        </CharString>
        <CharString name="Zcaron">
          60 548 824 rmoveto
          163 159 -24 54 -85 -13 -33 -9 rlinecurve
          -125 -143 -39 callgsubr
          -351 -756 -62 callsubr
          endchar
        </CharString>
        <CharString name="Zdotaccent">
          60 197 68 -62 callsubr
          257 764 130 callgsubr
          endchar
        </CharString>
        <CharString name="a">
          43 449 274 -93 callsubr
          endchar
        </CharString>
        <CharString name="aacute">
          43 676 779 41 callsubr
          -31 -333 -93 callsubr
          endchar
        </CharString>
        <CharString name="abreve">
          43 469 617 rmoveto
          55 callsubr
          -100 17 82 -53 83 hhcurveto
          -20 -343 -93 callsubr
          endchar
        </CharString>
        <CharString name="acircumflex">
          43 452 746 182 callgsubr
          152 -336 -93 callsubr
          endchar
        </CharString>
        <CharString name="acute">
          -389 197 839 362 callsubr
        </CharString>
        <CharString name="adieresis">
          43 580 628 33 callsubr
          116 -354 -93 callsubr
          endchar
        </CharString>
        <CharString name="ae">
          361 700 104 rmoveto
          -45 26 -19 32 -7 44 103 20 132 47 88 547 callsubr
          -110 -19 -59 -49 -53 -68 39 108 rcurveline
          -13 26 -60 1 -48 -15 -15 -27 -5 -33 1 -47 -24 44 -25 44 -36 24 -216 -5 -144 -182 1 -151 1 -108 68 -88 167 -7 46 49 43 50 47 45 10 -10 rcurveline
          -38 -103 13 -38 72 -20 51 21 rlinecurve
          15 119 23 -52 43 -43 80 -32 rlinecurve
          82 10 135 49 52 53 10 56 -24 19 -41 -1 -52 -39 -68 -27 -76 -16 rrcurveto
          50 365 rmoveto
          34 -24 23 -39 -13 -68 -47 -24 -58 -23 -64 -20 3 67 39 71 64 52 rrcurveto
          -342 -8 rmoveto
          34 -21 27 -32 20 -40 -11 -26 -12 -36 -4 -33 -52 -42 -58 -48 -55 -43 rrcurveto
          -30 19 -12 32 39 vvcurveto
          90 56 95 97 46 vhcurveto
          endchar
        </CharString>
        <CharString name="agrave">
          43 446 612 199 callsubr
          69 -431 -93 callsubr
          endchar
        </CharString>
        <CharString name="amacron">
          43 622 630 262 callsubr
          181 -345 -93 callsubr
          endchar
        </CharString>
        <CharString name="ampersand">
          52 646 157 rmoveto
          20 74 -37 58 -73 -13 -58 -56 -53 -40 -89 -36 -46 21 -40 28 -12 40 59 62 86 32 99 15 22 56 -7 42 -46 14 -19 -11 -33 -8 -32 -3 -42 13 -38 21 -18 42 rrcurveto
          50 51 50 35 83 10 64 -92 rcurveline
          99 26 27 29 -23 69 rrcurveto
          34 -42 -50 33 -79 hhcurveto
          -163 -149 -83 -115 -58 hvcurveto
          14 -63 75 -48 94 -7 -104 -22 -66 -66 -36 -81 34 -93 86 -49 138 -30 151 21 68 33 94 57 rrcurveto
          -125 601 rmoveto
          56 196 -46 40 -55 -3 -83 -47 rlinecurve
          1 -171 25 -29 43 -1 59 15 rlinecurve
          -221 -767 rmoveto
          -56 -196 46 -40 55 4 82 46 rlinecurve
          -1 170 -24 30 -44 1 -58 -15 rlinecurve
          endchar
        </CharString>
        <CharString name="aogonek">
          41 530 callgsubr
          -65 -52 -59 -46 rrcurveto
          -30 19 -12 32 39 vvcurveto
          90 56 95 97 46 vhcurveto
          35 -22 27 -33 20 -41 rrcurveto
          100 -353 rmoveto
          17 3 14 6 10 9 -6 116 -1 105 5 95 92 166 rcurveline
          -22 54 -54 10 -113 -18 -16 -28 -4 -34 2 -48 -25 44 -33 46 -37 25 -216 -5 -144 -182 1 -151 1 -108 68 -88 167 -7 47 48 56 54 46 45 15 -15 rcurveline
          -43 -97 9 -8 11 -8 11 -6 rlinecurve
          -73 -42 -42 -61 -54 vvcurveto
          -64 58 -53 105 72 65 32 51 43 vhcurveto
          -2 34 -10 18 -38 -2 -53 -39 -64 -14 -64 26 8 64 60 57 77 22 rrcurveto
          endchar
        </CharString>
        <CharString name="aring">
          43 444 723 39 callsubr
          11 -329 -93 callsubr
          endchar
        </CharString>
        <CharString name="asciicircum">
          -66 55 423 rmoveto
          4 -27 32 -14 38 2 216 362 rcurveline
          80 -345 32 -15 78 -19 57 50 rlinecurve
          -118 390 -43 25 -53 8 -69 -12 rlinecurve
          endchar
        </CharString>
        <CharString name="asciitilde">
          -4 191 449 rmoveto
          -74 -39 -44 -37 -46 -54 -4 -37 59 -22 44 7 66 79 rcurveline
          8 2 64 -48 73 -34 120 -8 rlinecurve
          98 32 41 39 50 64 3 32 -44 18 -49 -7 -69 -80 rcurveline
          -7 hlineto
          -76 50 -73 37 -140 6 rrcurveto
          endchar
        </CharString>
        <CharString name="asterisk">
          -252 338 804 rmoveto
          103 68 -9 23 -15 18 -24 14 rlinecurve
          -79 -98 34 117 -24 7 -27 0 -27 -7 rlinecurve
          8 -115 -58 95 -26 -12 -19 -18 -15 -24 rlinecurve
          89 -68 -114 20 -13 -26 -2 -27 6 -25 rlinecurve
          120 21 -104 -68 10 -26 15 -17 23 -12 rlinecurve
          79 96 -33 -116 27 -8 27 0 23 8 rlinecurve
          -8 117 58 -97 28 10 19 17 14 27 rlinecurve
          -91 69 116 -21 12 27 2 26 -5 25 rlinecurve
          endchar
        </CharString>
        <CharString name="at">
          515 741 357 rmoveto
          -16 -83 -1 -7 -53 -42 -61 -49 -56 -44 rlinecurve
          -30 19 -12 32 39 vvcurveto
          90 56 95 97 46 vhcurveto
          32 -20 26 -30 20 -37 rrcurveto
          228 138 rmoveto
          -23 55 -52 10 -113 -19 -15 -25 -5 -31 1 -41 -24 40 -31 39 -33 23 rrcurveto
          -216 -5 -143 -182 -151 vvcurveto
          1 -108 68 -88 167 -7 50 52 61 58 49 48 10 -6 rcurveline
          -19 -59 14 -58 100 -34 rrcurveto
          185 71 156 172 148 vvcurveto
          228 -206 180 -228 -342 -349 -259 -318 -249 213 -181 278 -35 vhcurveto
          103 20 99 37 70 49 5 57 -22 29 -72 6 -37 -39 -71 -44 -82 -31 rrcurveto
          -225 49 -100 144 190 vvcurveto
          232 249 229 274 30 vhcurveto
          201 -40 124 -84 21 -217 -32 -119 -71 -81 -112 -79 8 76 8 79 16 73 rrcurveto
          endchar
        </CharString>
        <CharString name="atilde">
          43 449 274 -93 callsubr
          -4 356 rmoveto
          309 callsubr
          37 callgsubr
          rrcurveto
          endchar
        </CharString>
        <CharString name="b">
          7 227 94 rmoveto
          13 69 11 72 7 79 48 50 42 39 44 33 48 -21 23 -27 10 -59 -18 -106 -91 -91 -137 -38 rrcurveto
          6 316 rmoveto
          43 73 11 85 62 259 -54 22 -58 -1 -91 -43 rlinecurve
          5 -266 -26 -132 -41 -163 -39 -120 rlinecurve
          16 -52 48 -54 116 -19 188 40 181 81 57 202 -22 143 -58 71 -187 19 -51 -54 -41 -48 -46 -56 rrcurveto
          endchar
        </CharString>
        <CharString name="backslash">
          -136 66 850 rmoveto
          287 -961 62 -18 28 9 18 38 rlinecurve
          -192 452 -89 499 -61 26 -29 -8 -24 -37 rlinecurve
          endchar
        </CharString>
        <CharString name="bar">
          -316 142 586 rmoveto
          -24 -189 -77 -388 -56 -165 22 -46 123 -19 56 37 19 175 65 390 13 94 122 513 rcurveline
          10 -22 443 callgsubr
          -41 -12 -26 -50 hvcurveto
          endchar
        </CharString>
        <CharString name="braceleft">
          1 583 769 rmoveto
          46 16 26 27 40 vvcurveto
          46 -60 -66 29 -73 hhcurveto
          -61 -67 -25 -48 -44 hvcurveto
          -179 65 -86 -171 -127 hhcurveto
          -30 -97 60 -26 40 -82 -3 -77 rlinecurve
          -3 -80 -40 -75 -73 -53 25 -74 78 -56 75 -17 79 4 77 23 48 22 -1 27 -16 31 -20 12 -132 -25 rcurveline
          -20 28 78 66 47 73 3 81 rlinecurve
          2 81 -42 66 -87 53 5 21 rcurveline
          101 -2 76 68 23 106 14 61 -7 77 -31 80 29 17 rcurveline
          endchar
        </CharString>
        <CharString name="braceright">
          2 498 578 rmoveto
          3 80 39 75 74 54 -26 73 -79 64 -78 10 -74 -3 -77 -23 -48 -23 2 -27 15 -32 20 -12 133 26 rcurveline
          20 -29 -79 -65 -47 -73 -2 -81 rlinecurve
          -3 -81 41 -66 89 -52 -7 -21 rcurveline
          -99 2 -77 -69 -22 -106 -15 -61 6 -77 32 -80 -29 -18 rcurveline
          -93 69 rlineto
          -46 -16 -26 -26 -42 vvcurveto
          63 -44 62 -25 74 -7 66 3 64 23 43 48 rrcurveto
          180 -64 84 171 128 hhcurveto
          30 97 -60 26 -40 83 3 75 rlinecurve
          endchar
        </CharString>
        <CharString name="bracketleft">
          -27 558 844 rmoveto
          111 -7 22 29 3 25 -5 24 rlinecurve
          -412 -6 -62 -487 -121 -458 2 -28 17 -21 34 -20 rlinecurve
          350 43 25 32 2 23 -12 18 rlinecurve
          -205 -27 52 313 65 350 50 193 rlineto
          endchar
        </CharString>
        <CharString name="bracketright">
          -14 449 234 rmoveto
          145 585 -3 35 -10 24 -25 25 rlinecurve
          -389 10 -14 -22 4 -14 22 -40 rlinecurve
          192 6 -69 -421 -77 -439 -213 -4 -18 -41 0 -21 16 -26 rlinecurve
          421 48 rlineto
          endchar
        </CharString>
        <CharString name="breve">
          -262 108 770 rmoveto
          -100 17 82 -53 83 hhcurveto
          55 callsubr
          endchar
        </CharString>
        <CharString name="brokenbar">
          -314 179 771 rmoveto
          -19 -97 -20 -61 -34 -114 35 -39 113 -9 52 36 10 106 12 88 4 42 77 254 rcurveline
          20 -17 -35 14 -44 hhcurveto
          -33 -37 -7 -18 -40 hvcurveto
          -147 -874 rmoveto
          -19 -97 -20 -63 -34 -113 26 -40 122 -20 53 37 9 107 12 99 3 42 68 243 rcurveline
          18 -24 -30 9 -37 hhcurveto
          -30 -34 -4 -13 -41 hvcurveto
          endchar
        </CharString>
        <CharString name="bullet">
          -154 205 209 rmoveto
          84 90 55 89 65 hvcurveto
          92 -11 -80 103 -67 hhcurveto
          -98 -13 -85 -101 -21 -103 rrcurveto
          -72 7 51 -50 65 hhcurveto
          endchar
        </CharString>
        <CharString name="c">
          -65 385 564 26 callgsubr
        </CharString>
        <CharString name="cacute">
          -65 433 839 -51 callsubr
          -48 -275 26 callgsubr
        </CharString>
        <CharString name="caron">
          -176 392 630 rmoveto
          163 159 -24 54 -85 -13 -33 -9 rlinecurve
          -125 -143 -39 callgsubr
          endchar
        </CharString>
        <CharString name="ccaron">
          -65 472 630 rmoveto
          163 159 -24 54 -85 -13 -33 -9 rlinecurve
          -125 -143 -39 callgsubr
          -87 -66 26 callgsubr
        </CharString>
        <CharString name="ccedilla">
          -65 348 470 rmoveto
          23 -38 17 -36 -5 -64 93 -14 68 23 20 58 -23 89 -36 55 -120 21 -113 -23 -91 -62 -69 -68 rrcurveto
          -43 -50 -32 -52 -76 vvcurveto
          -2 -104 58 -100 172 -28 -49 -99 rcurveline
          -64 callsubr
          47 91 75 23 67 38 38 38 rlinecurve
          52 13 -22 24 -42 hhcurveto
          -52 -42 -73 -32 -64 -17 -58 44 -17 53 2 65 2 62 28 75 63 61 rrcurveto
          endchar
        </CharString>
        <CharString name="cedilla">
          -268 108 30 rmoveto
          -63 -128 rlineto
          -64 callsubr
          53 102 rlineto
          endchar
        </CharString>
        <CharString name="cent">
          -59 334 467 rmoveto
          -62 -340 -36 39 -11 46 2 53 rlinecurve
          1 62 29 75 62 61 rrcurveto
          125 179 rmoveto
          -14 31 -24 11 -34 -11 -21 -117 rcurveline
          -98 -28 -80 -56 -62 -61 -43 -50 -31 -52 -1 -76 -2 -98 52 -93 148 -35 -34 -100 rcurveline
          15 -31 28 -15 33 9 22 133 rcurveline
          105 18 94 48 49 49 rrcurveto
          52 13 -22 24 -42 hhcurveto
          -49 -39 -64 -31 -67 -17 55 339 rcurveline
          18 -26 15 -35 6 -53 82 -11 66 24 22 64 -30 77 -43 50 -94 22 rrcurveto
          endchar
        </CharString>
        <CharString name="circumflex">
          -164 86 650 2 callgsubr
          endchar
        </CharString>
        <CharString name="colon">
          -352 85 hmoveto
          48 51 31 51 36 hvcurveto
          52 -5 -46 58 -38 hhcurveto
          -55 -7 -48 -57 -13 -59 rrcurveto
          -41 5 28 -28 37 hhcurveto
          59 333 callsubr
          endchar
        </CharString>
        <CharString name="comma">
          -367 203 57 rmoveto
          462 callsubr
          -3 -170 rcurveline
          254 callgsubr
          rrcurveto
          endchar
        </CharString>
        <CharString name="copyright">
          218 43 365 rmoveto
          329 callsubr
          543 callgsubr
          rrcurveto
          768 33 rmoveto
          -35 -173 -100 -158 -266 -25 338 callsubr
          rrcurveto
          -140 80 rmoveto
          -20 75 -30 46 -99 17 -96 -19 -76 -52 -57 -58 -36 -41 -26 -44 -1 -63 -1 -89 50 -85 150 -21 88 11 90 43 44 44 rrcurveto
          44 11 -18 20 -35 hhcurveto
          -45 -36 -60 -27 -53 -14 -50 37 -14 45 2 55 1 52 24 63 53 51 24 6 rcurveline
          19 -31 14 -31 -4 -54 78 -11 56 19 17 48 rrcurveto
          endchar
        </CharString>
        <CharString name="currency">
          156 398 190 rmoveto
          -40 36 -26 56 -1 54 8 86 57 92 78 60 48 -56 24 -56 6 -84 -21 -79 -47 -59 -86 -50 rrcurveto
          210 414 rmoveto
          32 -35 -40 21 -38 hhcurveto
          -78 -70 -33 -46 -55 hvcurveto
          -99 120 -101 -5 -30 -63 33 -50 rlinecurve
          133 -70 rlineto
          -44 -57 -25 -63 -47 vvcurveto
          -40 13 -40 22 -35 vhcurveto
          -127 -65 -34 -50 29 -63 101 -6 rlinecurve
          94 111 rlineto
          -31 39 45 -20 42 hhcurveto
          63 65 25 38 55 hvcurveto
          95 -112 102 6 28 63 -34 50 rlinecurve
          -115 59 rlineto
          46 52 29 61 57 vvcurveto
          -1 38 -17 45 -27 42 123 62 rcurveline
          34 50 -29 63 -102 6 rrcurveto
          endchar
        </CharString>
        <CharString name="d">
          9 68 callgsubr
          endchar
        </CharString>
        <CharString name="dagger">
          -143 372 603 rmoveto
          82 217 -55 25 -68 -3 -89 -42 rlinecurve
          -7 -205 -129 17 -33 -41 -3 -29 26 -34 rlinecurve
          132 11 -133 -860 23 -14 24 -4 21 11 rlinecurve
          191 876 154 -11 31 43 4 35 -23 24 rlinecurve
          endchar
        </CharString>
        <CharString name="daggerdbl">
          -126 371 547 rmoveto
          156 -11 31 43 3 35 -22 24 rlinecurve
          -150 -17 72 223 -52 25 -60 -3 -89 -42 rlinecurve
          -6 -211 -130 17 -32 -40 -3 -30 25 -34 rlinecurve
          134 12 -31 -279 -68 -305 -156 11 -30 -43 -4 -35 22 -23 rlinecurve
          151 16 -74 -223 56 -25 57 3 88 42 rlinecurve
          6 211 131 -17 32 40 3 30 -25 34 rlinecurve
          -135 -11 32 295 rlineto
          endchar
        </CharString>
        <CharString name="danda">
          -205 266 484 275 callgsubr
        </CharString>
        <CharString name="dcaron">
          94 68 callgsubr
          281 -42 rmoveto
          -61 -90 9 -22 19 -11 32 -1 rlinecurve
          94 72 50 86 6 83 -17 47 -73 48 -78 -60 rrcurveto
          endchar
        </CharString>
        <CharString name="dcroat">
          9 530 callgsubr
          -66 -52 -58 -46 -30 19 -13 32 1 39 2 89 55 97 97 46 38 -23 24 -32 26 -42 rrcurveto
          208 339 rmoveto
          36 131 -51 24 -60 -3 -93 -43 rlinecurve
          3 -113 -86 2 -24 -33 -4 -24 15 -18 rlinecurve
          101 3 2 -83 -7 -36 -8 -34 -9 -33 rlinecurve
          -23 48 -33 50 -38 21 -217 -2 -146 -178 -3 -158 -4 -110 81 -91 157 -2 47 48 54 51 44 43 12 -12 rcurveline
          -57 -96 45 -55 115 -5 51 34 rlinecurve
          25 204 27 194 17 166 11 41 rcurveline
          110 3 31 36 4 30 -19 11 rlinecurve
          endchar
        </CharString>
        <CharString name="degree">
          -132 356 775 rmoveto
          -148 -115 -115 -96 1 hvcurveto
          -65 1 97 -75 83 hhcurveto
          130 138 103 87 -3 hvcurveto
          67 -1 -102 94 -81 hhcurveto
          -17 -57 rmoveto
          24 -35 18 -35 5 -48 -12 -50 -28 -35 -55 -31 -18 24 -18 32 -1 33 2 52 35 56 48 37 rrcurveto
          endchar
        </CharString>
        <CharString name="dieresis">
          -218 175 628 -20 callsubr
          endchar
        </CharString>
        <CharString name="divide">
          139 755 415 rmoveto
          -334 -20 -340 6 -23 -34 -4 -37 15 -18 rlinecurve
          670 10 30 37 4 44 -18 12 rlinecurve
          -406 -323 rmoveto
          37 39 26 37 28 hvcurveto
          41 -4 -35 45 -30 hhcurveto
          -42 -6 -38 -45 -8 -44 rrcurveto
          -32 3 22 -22 28 hhcurveto
          67 383 rmoveto
          37 40 25 39 27 hvcurveto
          40 -3 -36 45 -30 hhcurveto
          -43 -5 -37 -44 -8 -46 rrcurveto
          -32 2 23 -22 28 hhcurveto
          endchar
        </CharString>
        <CharString name="dollar">
          21 364 287 rmoveto
          46 -24 33 -21 -23 vvcurveto
          -52 -47 -46 -63 -22 vhcurveto
          23 384 rmoveto
          -52 30 -38 25 24 vvcurveto
          -1 31 65 45 59 23 rrcurveto
          35 -22 rmoveto
          5 13 21 -27 18 -36 10 -60 rlinecurve
          107 -21 54 29 17 75 -37 66 -66 51 -87 21 34 92 rcurveline
          -15 30 -24 11 -33 -11 -21 -114 rcurveline
          -145 -19 -126 -78 -57 -120 18 -119 128 -65 99 -50 -34 -184 rcurveline
          -6 -18 -43 51 -24 45 -14 66 rlinecurve
          -99 31 -52 -58 -36 -70 34 -69 95 -64 107 -28 -33 -102 rcurveline
          15 -31 27 -15 33 9 23 133 rcurveline
          178 25 126 90 21 136 -29 89 -122 66 -97 53 rrcurveto
          endchar
        </CharString>
        <CharString name="dotaccent">
          -452 184 635 130 callgsubr
          endchar
        </CharString>
        <CharString name="dotlessi">
          261 callgsubr
          endchar
        </CharString>
        <CharString name="dottedcircle">
          5 139 517 rmoveto
          -26 18 -19 26 26 18 19 26 25 -18 19 -26 -26 -18 -19 -25 vhcurveto
          -82 -110 rmoveto
          -25 20 -19 26 24 20 19 25 25 -20 19 -24 -26 -20 -19 -25 vhcurveto
          -13 -126 rmoveto
          -25 19 -18 25 26 18 18 544 callsubr
          52 -116 rmoveto
          -26 18 -18 26 25 19 18 26 25 -19 19 -25 -26 -18 -19 -25 vhcurveto
          101 -75 rmoveto
          -26 19 -20 26 25 19 20 26 24 -19 20 -25 -26 -19 -20 -24 vhcurveto
          127 -16 rmoveto
          -26 18 -18 26 26 19 18 26 26 -19 18 -26 -26 -18 -18 -26 vhcurveto
          121 53 rmoveto
          -26 19 -18 25 25 20 18 26 25 -20 19 -25 -25 -19 -19 -25 vhcurveto
          73 98 rmoveto
          -25 19 -19 26 24 19 19 25 26 -19 19 -24 -26 -19 -19 -26 vhcurveto
          10 134 rmoveto
          -26 18 -18 26 25 19 18 26 26 -19 18 -25 -26 -18 -18 -26 vhcurveto
          -50 118 rmoveto
          -25 19 -19 25 26 18 19 544 callsubr
          -95 68 rmoveto
          -24 19 -20 26 25 18 20 24 26 -18 19 -25 -26 -19 -19 -26 vhcurveto
          -126 15 rmoveto
          -26 18 -18 26 26 18 18 26 26 -18 18 -26 -26 -18 -18 -26 vhcurveto
          endchar
        </CharString>
        <CharString name="doubledanda">
          69 539 484 rmoveto
          -27 -152 -28 -118 -46 -179 36 -34 81 -15 53 33 10 161 14 135 14 119 71 288 rcurveline
          -35 35 -54 -3 -80 -39 rrcurveto
          -282 -231 275 callgsubr
        </CharString>
        <CharString name="dvA">
          245 214 100 53 callgsubr
          830 525 rmoveto
          -145 -77 callgsubr
          16 11 8 17 4 16 rrcurveto
          endchar
        </CharString>
        <CharString name="dvAA">
          569 214 100 53 callgsubr
          1154 525 rmoveto
          -135 hlineto
          -86 callsubr
          rrcurveto
          endchar
        </CharString>
        <CharString name="dvAI">
          -29 412 835 rmoveto
          60 -48 34 -50 29 -56 rrcurveto
          25 218 callsubr
          443 -152 -30 callgsubr
        </CharString>
        <CharString name="dvAU">
          569 985 879 415 callsubr
          38 -46 30 -42 11 -48 -10 -32 -26 -20 -34 10 -39 51 365 callsubr
          23 20 4 17 rrcurveto
          150 -61 -122 118 -72 hhcurveto
          -48 -54 -30 -28 -23 hvcurveto
          -13 -59 43 -35 74 -26 rrcurveto
          -696 -710 53 callgsubr
          1154 525 rmoveto
          -135 hlineto
          -86 callsubr
          rrcurveto
          endchar
        </CharString>
        <CharString name="dvAcandra">
          245 832 681 rmoveto
          104 100 61 73 47 hvcurveto
          170 callsubr
          -618 -581 53 callgsubr
          685 525 rmoveto
          193 callgsubr
          -7 -30 rcurveline
          -95 -98 callsubr
          98 hlineto
          -24 -110 -74 -40 -77 -38 -76 -37 rlinecurve
          -39 17 -51 10 -58 1 -2 8 rcurveline
          103 21 108 51 32 104 -22 57 -37 45 -68 19 -100 8 -78 -17 -86 -48 -31 -41 36 -55 72 -23 rrcurveto
          41 54 48 19 61 hhcurveto
          6 -8 -21 -50 -44 -42 -77 -29 rlinecurve
          -27 -1 -27 0 -27 -1 -31 -29 4 -72 59 -40 24 6 24 5 24 6 18 -5 18 -4 18 -4 rrcurveto
          -199 -73 -150 -22 -66 vvcurveto
          -45 91 -63 99 -9 vhcurveto
          136 -2 233 102 121 vvcurveto
          25 -11 23 -20 20 vhcurveto
          57 26 56 26 56 26 3 -8 rcurveline
          -36 -42 -62 -278 186 callgsubr
          16 116 callgsubr
          endchar
        </CharString>
        <CharString name="dvAnusvara">
          378 callsubr
        </CharString>
        <CharString name="dvAnusvara.amI">
          378 callsubr
        </CharString>
        <CharString name="dvB">
          -328 334 254 rmoveto
          349 callsubr
          -24 15 -15 25 38 92 callsubr
          -27 rrcurveto
          126 125 rmoveto
          -27 47 -60 82 -61 14 rrcurveto
          51 callsubr
          64 65 93 91 44 46 -37 35 rcurveline
          -11 -10 -11 -11 -13 -11 -40 35 -36 119 callgsubr
          160 280 rmoveto
          -563 -101 callsubr
          563 -106 callgsubr
        </CharString>
        <CharString name="dvBA">
          -4 409 320 rmoveto
          -11 -10 -11 -11 -13 -11 -40 35 -36 119 callgsubr
          -174 -167 rmoveto
          -24 15 -15 26 37 92 callsubr
          -28 -30 -24 332 callsubr
          554 447 147 callsubr
          -457 -101 callsubr
          463 459 callsubr
          -31 374 callsubr
          51 callsubr
          61 62 61 59 40 454 callgsubr
          68 102 callgsubr
        </CharString>
        <CharString name="dvBH">
          -186 227 195 rmoveto
          -27 13 -22 15 -17 26 36 15 37 17 36 16 -10 -31 -10 -31 -12 -34 rrcurveto
          89 407 30 callsubr
          271 -90 rmoveto
          -42 -23 -48 -25 -52 -25 16 84 9 81 1 62 171 callgsubr
          -3 -14 -3 -13 -3 -13 rlinecurve
          -71 -31 -70 -27 -61 -20 -34 221 callgsubr
          63 23 80 18 81 61 30 61 32 61 32 rrcurveto
          129 157 rmoveto
          -182 -77 callsubr
          182 -106 callgsubr
        </CharString>
        <CharString name="dvBHA">
          134 227 255 callsubr
          45 27 50 34 36 25 rrcurveto
          6 -154 rmoveto
          94 callgsubr
          114 callsubr
          rrcurveto
          715 214 rmoveto
          240 callgsubr
        </CharString>
        <CharString name="dvBH_LA">
          678 236 187 5 callsubr
          1161 12 -57 callsubr
          -591 -98 callsubr
          595 203 callgsubr
          -45 2 -43 -4 -69 -28 -71 -55 -41 -59 -44 11 -49 8 -51 4 27 118 20 128 -5 62 -23 41 -46 22 -65 -1 -51 -50 -113 -65 -67 -28 rrcurveto
          -22 -15 -11 -34 -4 -29 19 -43 49 -43 69 -21 5 callgsubr
          46 -1 44 -6 42 -6 rrcurveto
          -4 -13 -3 -14 -13 vvcurveto
          -76 92 -122 106 -58 vhcurveto
          97 18 35 66 -27 43 -86 37 -36 46 -21 61 5 49 53 68 33 5 84 callsubr
          16 11 8 17 4 16 rrcurveto
          endchar
        </CharString>
        <CharString name="dvBH_NA">
          597 723 190 rmoveto
          -36 17 -18 19 -16 98 callgsubr
          -500 -15 rmoveto
          -37 19 -24 17 -19 33 39 23 42 14 44 8 -10 -46 -13 -43 -10 -19 rrcurveto
          81 421 314 callsubr
          -1 -14 -3 -20 -4 -23 rlinecurve
          -68 -6 -69 -16 -62 -29 -34 -15 -14 189 callsubr
          23 hvcurveto
          15 36 18 55 16 62 54 -2 54 -7 49 -8 -13 -22 -5 -31 5 -34 -3 callsubr
          16 61 2 76 -20 66 49 24 49 25 49 26 139 callsubr
          -118 -67 -179 -81 -124 -49 -55 19 -67 14 -72 5 28 121 21 130 -5 62 -23 41 -46 22 -65 -1 114 callsubr
          rrcurveto
          1189 214 rmoveto
          -846 hlineto
          -15 -102 callgsubr
          846 392 callgsubr
        </CharString>
        <CharString name="dvBH_R">
          -186 235 216 rmoveto
          -31 13 -17 14 -14 21 34 14 34 13 34 14 -8 -25 -9 -27 -12 -31 rrcurveto
          81 386 30 callsubr
          271 -90 rmoveto
          -41 -24 -49 -24 -52 -24 14 80 10 80 2 66 171 callgsubr
          -2 -12 -2 -11 -2 -10 rlinecurve
          -68 -27 -65 -23 -55 -16 393 callsubr
          72 17 75 62 30 61 31 60 33 rrcurveto
          -79 -212 rmoveto
          -69 357 callsubr
        </CharString>
        <CharString name="dvBH_RA">
          134 235 257 callsubr
          81 386 314 callsubr
          -2 -11 -2 -11 -2 -10 rlinecurve
          -67 -26 -66 -24 -55 -17 393 callsubr
          73 17 76 42 20 41 21 41 22 9 -5 rcurveline
          -47 -208 -81 -70 -143 -89 -117 -37 rlinecurve
          -17 64 callgsubr
          11 338 76 113 -28 179 callgsubr
          -39 -23 -46 -24 -50 -23 15 79 9 79 2 66 -23 41 -46 22 -65 -1 114 callsubr
          rrcurveto
          715 214 rmoveto
          240 callgsubr
        </CharString>
        <CharString name="dvBH_R_YA">
          564 980 376 -57 callgsubr
          -548 hmoveto
          92 -50 callsubr
          -8 -68 -99 -43 -79 -39 -60 18 -60 10 -57 4 15 68 12 73 8 67 rrcurveto
          -228 -358 rmoveto
          -32 13 -16 15 -15 23 33 13 33 9 34 7 -7 -23 -8 -23 -11 -28 rrcurveto
          80 383 30 callsubr
          1047 12 -57 callsubr
          -544 hlineto
          -10 -7 -8 -9 -7 -8 3 26 1 26 1 24 171 callgsubr
          -3 -19 -4 -18 -3 -16 rlinecurve
          -72 -7 -63 -15 -48 -19 rrcurveto
          -37 -21 -8 -37 -47 vvcurveto
          29 -51 51 -32 67 -15 53 -4 77 17 34 38 14 39 14 47 13 50 39 -2 40 -4 43 -6 456 callsubr
          -7 1 -8 3 -7 vhcurveto
          -75 -71 -130 -94 -133 -40 -17 -45 24 -39 64 -22 112 66 125 106 69 81 rrcurveto
          -42 43 66 -33 45 hhcurveto
          55 129 82 84 83 hvcurveto
          12 -12 -52 callsubr
        </CharString>
        <CharString name="dvBH_VA">
          512 924 320 -49 callgsubr
          70 23 vhcurveto
          28 -13 27 -34 23 -32 rrcurveto
          -694 -158 5 callsubr
          995 12 162 callgsubr
          114 callsubr
          5 callgsubr
          51 -2 50 -6 46 -7 rrcurveto
          -3 -14 -2 -14 -14 vvcurveto
          431 callsubr
          vhcurveto
          41 7 callsubr
        </CharString>
        <CharString name="dvBH_YA">
          564 980 376 -57 callgsubr
          -786 -380 5 callsubr
          1047 12 149 callsubr
          114 callsubr
          5 callgsubr
          42 -1 42 -5 39 -5 rrcurveto
          -17 -13 -11 -14 -14 280 callsubr
          16 11 8 17 4 16 rrcurveto
          endchar
        </CharString>
        <CharString name="dvB_BA">
          323 736 320 rmoveto
          -11 -10 -11 117 callgsubr
          -15 26 37 92 callsubr
          -28 -29 -24 332 callsubr
          -328 hmoveto
          58 callgsubr
          87 253 rmoveto
          23 -10 23 -22 19 -25 -14 -24 -11 -25 -7 -26 -34 32 -32 33 -26 30 18 18 21 13 20 6 rrcurveto
          794 194 147 callsubr
          -784 -101 callsubr
          790 hlineto
          -23 -141 -5 429 callgsubr
          -78 -77 -41 -58 -54 hvcurveto
          -31 43 -44 46 -44 10 rrcurveto
          51 callsubr
          35 35 43 43 39 40 25 -76 83 -40 103 -2 61 62 60 59 41 43 9 -11 rcurveline
          -50 -72 -27 -112 67 102 callgsubr
        </CharString>
        <CharString name="dvB_BHA">
          428 525 267 callsubr
          37 17 37 16 267 callgsubr
          -342 73 220 callgsubr
          162 12 rmoveto
          -39 33 -36 37 -31 34 17 15 19 12 21 8 29 -14 28 -63 11 -48 rrcurveto
          250 308 173 callgsubr
          -602 12 236 callgsubr
          385 264 callgsubr
          -3 -13 -2 -13 -3 -13 rlinecurve
          -55 -24 -54 -22 -51 -18 -20 81 -47 97 -68 24 331 callsubr
          34 30 40 36 38 34 31 -49 59 -45 59 -14 170 callgsubr
          -37 266 callsubr
          -361 243 callsubr
          16 11 8 17 4 16 rrcurveto
          endchar
        </CharString>
        <CharString name="dvB_BH_RA">
          414 527 257 callsubr
          -344 52 220 callgsubr
          178 24 rmoveto
          -16 -12 -39 33 -36 37 -31 34 rlinecurve
          17 15 19 12 21 8 29 -14 27 -62 12 -48 rrcurveto
          244 307 173 callgsubr
          -596 12 236 callgsubr
          379 264 callgsubr
          -6 -32 -55 -22 -55 -20 -49 -16 rlinecurve
          -23 78 -45 89 -64 22 331 callsubr
          36 32 45 39 40 37 29 -50 52 -30 66 -15 54 -4 77 17 34 38 20 57 20 72 17 77 42 20 41 20 41 22 9 -5 rcurveline
          208 callgsubr
          -39 -23 -46 -24 -50 -23 15 79 9 79 2 66 260 callgsubr
        </CharString>
        <CharString name="dvB_DA">
          275 248 178 rmoveto
          -28 16 -15 30 38 vvcurveto
          27 10 27 16 25 vhcurveto
          27 -31 41 -37 33 -27 -27 -22 -29 -23 -28 -23 rrcurveto
          76 241 rmoveto
          30 -14 31 -36 24 -34 -19 -14 -14 -16 -9 -19 -37 32 -34 35 -28 32 18 16 19 12 19 6 rrcurveto
          735 206 rmoveto
          -1047 -101 callsubr
          628 122 callsubr
          -64 -62 -107 -27 -79 -39 -29 50 -61 81 -59 15 rrcurveto
          -141 -138 -131 -123 -109 94 -62 128 -2 hvcurveto
          33 34 41 41 37 38 26 -87 103 -71 134 -12 44 54 31 48 37 38 -21 callsubr
        </CharString>
        <CharString name="dvB_DHA">
          395 183 316 125 callsubr
          712 110 -57 callsubr
          -58 -48 callsubr
          62 hlineto
          -41 -189 -59 -74 -120 36 callsubr
          82 516 callgsubr
          10 -12 rcurveline
          -43 -55 -32 -142 -96 callgsubr
        </CharString>
        <CharString name="dvB_DH_VA">
          728 1140 320 rmoveto
          0 vlineto
          -49 -44 -57 -50 -47 263 callsubr
          -963 -28 125 callsubr
          1045 110 rmoveto
          -146 320 callgsubr
          -393 -48 callsubr
          401 169 callsubr
          159 callgsubr
          -96 -94 -61 -80 552 callgsubr
          -58 -75 -121 36 callsubr
          73 12 114 68 84 72 11 -87 85 -53 117 -1 42 7 callsubr
        </CharString>
        <CharString name="dvB_JA">
          482 241 178 85 callgsubr
          115 126 rmoveto
          -33 30 -29 31 -25 29 18 18 21 13 20 6 19 -8 19 -17 17 -20 -13 -26 -10 -27 -4 -23 rrcurveto
          923 315 -57 callsubr
          -939 -101 callsubr
          943 341 callgsubr
          -23 25 -16 21 -58 5 -44 -43 -18 -76 429 callsubr
          -54 -52 -54 -10 -24 24 -10 40 4 40 6 51 42 46 45 34 rrcurveto
          3 53 -46 36 -74 -1 -28 -19 -25 -24 -20 -26 -30 37 -38 35 -38 9 rrcurveto
          51 callsubr
          40 40 50 50 44 44 30 -63 58 -47 60 -16 198 callsubr
        </CharString>
        <CharString name="dvB_JHA">
          549 983 457 rmoveto
          -79 -65 -121 -60 -93 -37 -49 6 -63 13 -36 15 5 16 rcurveline
          76 11 83 19 58 22 40 34 22 65 511 callsubr
          -14 9 rrcurveto
          237 hlineto
          -767 -389 85 callgsubr
          87 253 rmoveto
          27 -12 27 -29 22 -29 -5 -17 -1 -16 3 -15 -8 -8 -9 -9 -10 -8 506 callgsubr
          rrcurveto
          1019 194 -100 callgsubr
          -1008 -101 callsubr
          624 hlineto
          35 -16 34 -16 20 460 callsubr
          -86 -16 -76 -8 -20 -12 -17 -15 -13 -16 -31 43 -45 49 -46 11 rrcurveto
          51 callsubr
          61 62 86 84 47 48 82 -28 96 -9 64 -26 2 -8 rcurveline
          -31 -36 -62 -29 -61 -5 -26 17 -20 23 -14 21 -61 15 -58 -54 -30 197 callsubr
          54 -51 47 8 8 rcurveline
          17 -13 20 -12 20 -11 89 2 84 29 53 35 rrcurveto
          33 44 18 40 33 vvcurveto
          28 -12 21 -26 15 vhcurveto
          62 27 71 34 63 41 8 -10 rcurveline
          -42 -51 -58 -260 -67 callgsubr
        </CharString>
        <CharString name="dvB_J_YA">
          935 1352 -63 callgsubr
          -1153 -389 85 callgsubr
          133 110 rmoveto
          506 callgsubr
          28 -12 27 -30 22 -30 -12 -23 -8 -22 -5 -21 rrcurveto
          1354 332 -100 callgsubr
          -1395 -101 callsubr
          942 16 callgsubr
          15 -10 -8 -63 -85 -42 -75 -36 -64 -24 -73 -3 -47 25 -18 15 -21 17 -11 23 -58 5 -44 -43 -18 -76 rrcurveto
          342 callgsubr
          40 4 40 193 callsubr
          3 53 -46 36 -74 -1 -28 -18 -24 -24 -21 -26 -31 45 -48 54 -48 11 rrcurveto
          51 callsubr
          42 42 54 54 44 44 24 -80 68 -63 71 -19 242 callgsubr
          113 -75 68 hhcurveto
          55 129 82 84 83 hvcurveto
          164 callgsubr
          68 -54 101 -11 40 31 -103 callgsubr
        </CharString>
        <CharString name="dvB_JxA">
          482 526 38 276 callsubr
          32 32 39 39 -32 32 -39 hvcurveto
          -285 140 85 callgsubr
          115 126 rmoveto
          -33 30 -29 31 -25 29 18 18 21 13 20 6 19 -8 19 -17 17 -20 -13 -26 -10 -27 -4 -23 rrcurveto
          923 315 -57 callsubr
          -939 -101 callsubr
          943 341 callgsubr
          -23 25 -16 21 -58 5 -44 -43 -18 -76 429 callsubr
          -54 -52 -54 -10 -24 24 -10 40 4 40 6 51 42 46 45 34 rrcurveto
          3 53 -46 36 -74 -1 -28 -19 -25 -24 -20 -26 -30 37 -38 35 -38 9 rrcurveto
          51 callsubr
          40 40 50 50 44 44 30 -63 58 -47 60 -16 198 callsubr
        </CharString>
        <CharString name="dvB_LA">
          460 321 256 rmoveto
          -4 0 -4 1 -4 vhcurveto
          -27 -22 -27 -23 -27 -21 rrcurveto
          -24 15 -15 25 38 vvcurveto
          32 12 33 18 28 vhcurveto
          23 -26 35 -33 31 -26 rrcurveto
          7 167 rmoveto
          20 -9 20 -18 18 -20 -20 -21 -16 -21 -11 -22 -26 25 -24 26 -20 23 18 18 21 13 20 6 rrcurveto
          931 194 -57 callsubr
          -919 -101 callsubr
          923 203 callgsubr
          -45 2 -43 -4 -36 -15 -37 -22 -33 -26 -31 42 -43 45 -44 10 rrcurveto
          51 callsubr
          29 29 35 35 33 34 34 -67 68 -73 75 -41 97 18 35 66 -27 43 -86 37 -36 46 -21 61 5 49 53 68 33 208 callsubr
          16 11 8 17 4 16 rrcurveto
          endchar
        </CharString>
        <CharString name="dvB_L_YA">
          847 1264 313 callsubr
          -1065 -389 85 callgsubr
          87 253 rmoveto
          29 -13 29 -32 22 -31 -16 -22 -13 -22 -6 -23 -39 412 callsubr
          rrcurveto
          1318 194 -66 callgsubr
          -1306 -101 callsubr
          854 hlineto
          -19 -42 37 -44 71 -18 25 16 26 13 27 4 20 3 24 -2 14 294 callgsubr
          -47 -20 -48 -31 -39 -37 -30 48 -52 63 -53 12 rrcurveto
          51 callsubr
          39 40 50 49 43 43 24 -75 79 -93 87 -48 94 17 34 67 -21 41 -87 42 -36 45 -18 55 3 52 48 63 35 9 30 -4 20 112 callsubr
          -17 -20 -16 rrcurveto
          -6 -43 47 -48 90 -12 18 6 19 6 17 8 rrcurveto
          -56 37 87 -51 56 hhcurveto
          55 129 82 85 83 hvcurveto
          12 -13 -52 callsubr
        </CharString>
        <CharString name="dvB_NA">
          395 521 190 rmoveto
          -36 17 -17 19 -17 98 callgsubr
          -338 78 220 callgsubr
          162 12 rmoveto
          -39 33 -36 37 -31 34 17 15 19 12 21 8 29 -14 28 -63 11 -48 rrcurveto
          448 134 rmoveto
          -88 -382 528 callsubr
          11 338 75 113 -27 179 callgsubr
          -114 -66 -175 -79 -124 -49 -22 79 -45 89 -65 22 331 callsubr
          36 32 44 39 41 36 rrcurveto
          -5 0 -5 1 -5 vhcurveto
          359 callgsubr
          rrcurveto
          381 186 rmoveto
          -1182 -101 callsubr
          1182 -106 callgsubr
        </CharString>
        <CharString name="dvB_R">
          -340 236 231 rmoveto
          -27 17 -12 22 22 vvcurveto
          22 11 24 18 22 vhcurveto
          22 -26 34 -32 31 -27 -26 -16 -26 -15 -25 -13 rrcurveto
          218 140 rmoveto
          -31 46 -61 84 -52 18 rrcurveto
          -167 -9 -102 -127 -106 vvcurveto
          -73 51 -64 110 -7 vhcurveto
          44 35 71 45 56 40 13 -17 rcurveline
          -92 -88 -136 -75 -135 -43 -17 -45 24 -39 64 -22 168 105 149 123 41 95 -33 40 rcurveline
          1 1 -28 36 -32 -20 -34 31 -31 33 -26 30 rlinecurve
          16 11 17 9 19 6 32 -18 32 -38 23 -30 rrcurveto
          167 287 rmoveto
          -563 -101 callsubr
          563 -106 callgsubr
        </CharString>
        <CharString name="dvB_RA">
          -20 394 326 rmoveto
          -33 -21 -38 32 -28 543 callsubr
          28 424 callgsubr
          33 -29 27 -22 -26 -16 -25 -15 -27 -14 rrcurveto
          -16 14 -8 19 22 vvcurveto
          566 339 147 callsubr
          -441 -101 callsubr
          447 459 callsubr
          rlineto
          40 -31 -47 56 -29 hhcurveto
          -141 -126 -127 -113 -83 68 -58 93 -5 hvcurveto
          78 55 49 36 66 42 11 -11 rcurveline
          -93 -98 -151 -82 -139 -45 -17 -45 24 -39 64 -22 95 57 124 91 56 485 callgsubr
          25 408 73 358 callgsubr
        </CharString>
        <CharString name="dvB_SA">
          543 971 317 callsubr
          -796 -299 rmoveto
          24 8 26 13 23 vhcurveto
          30 -30 38 -33 28 -22 359 callsubr
          -12 -14 -15 -9 -19 -33 29 -30 31 -27 29 17 16 20 13 22 8 rrcurveto
          1020 201 -100 callgsubr
          -1000 -101 callsubr
          455 377 callsubr
          -65 -101 -72 -110 -21 -13 10 -13 10 -12 11 -35 53 -74 111 391 callgsubr
          40 39 74 -85 130 -96 112 -33 35 callgsubr
          -89 24 -75 42 -73 292 callgsubr
          35 205 callgsubr
          -17 37 234 callgsubr
          68 -54 101 -11 40 31 -103 callgsubr
        </CharString>
        <CharString name="dvB_SHA">
          492 599 495 -44 callsubr
          -476 -203 rmoveto
          25 8 26 14 25 vhcurveto
          27 -29 37 -34 31 -25 359 callsubr
          -11 -13 -16 -10 -18 -32 30 -30 31 -26 29 17 15 19 13 21 7 rrcurveto
          -307 201 rmoveto
          205 callsubr
          -6 -83 callsubr
          441 439 callgsubr
          -13 11 -13 10 -13 12 -36 53 -72 109 391 callgsubr
          41 39 68 -80 117 -92 117 -42 -35 callsubr
          79 -77 106 -95 23 vhcurveto
          -78 -6 -78 -51 -40 -57 rrcurveto
          829 hmoveto
          -55 callsubr
          -72 -98 callsubr
          75 hlineto
          -114 -515 -96 callgsubr
        </CharString>
        <CharString name="dvB_TA">
          345 248 184 rmoveto
          -28 16 -15 30 38 vvcurveto
          28 11 29 16 26 vhcurveto
          28 -31 43 -39 33 -27 -28 -23 -31 -24 -29 -23 rrcurveto
          129 104 rmoveto
          -41 35 -36 38 -30 34 18 17 20 13 19 6 30 -13 35 -47 23 -34 -10 -11 -9 -13 -7 -15 rrcurveto
          755 327 -66 callgsubr
          -804 -101 callsubr
          807 hlineto
          -26 -119 rlineto
          0 vlineto
          -87 -52 -116 -31 -107 -4 rrcurveto
          1 hlineto
          -27 47 -65 100 -63 14 rrcurveto
          -141 -142 -133 -127 -109 94 -62 128 -2 hvcurveto
          34 34 42 41 38 38 28 -71 66 -71 86 -61 48 18 25 26 -4 457 callgsubr
          517 callgsubr
          64 18 92 290 callsubr
          -33 -44 -57 -254 -96 callgsubr
        </CharString>
        <CharString name="dvB_VA">
          311 723 319 18 callgsubr
          -488 -166 85 callgsubr
          87 253 rmoveto
          23 -10 22 -22 20 -24 -15 -24 -11 -25 -7 -26 -34 32 -31 32 -26 30 18 18 21 13 20 6 rrcurveto
          781 194 -28 callsubr
          -772 -101 callsubr
          779 hlineto
          -23 143 callgsubr
          -77 -75 -39 -56 -54 hvcurveto
          -31 42 -44 46 -44 10 rrcurveto
          51 callsubr
          35 35 43 44 40 39 26 -68 78 -40 102 -1 13 callgsubr
          67 -54 101 -11 41 31 -103 callgsubr
        </CharString>
        <CharString name="dvB_YA">
          384 801 378 rmoveto
          -59 -75 -77 -56 -72 -29 -28 1 -42 29 6 -49 callsubr
          -638 190 callgsubr
          788 301 -100 callgsubr
          -844 -101 callsubr
          391 16 callgsubr
          14 -10 -8 -63 -85 -41 -75 -37 -25 77 -54 82 -60 22 rrcurveto
          -154 -11 -123 -128 -128 vvcurveto
          -97 89 -62 126 -1 vhcurveto
          106 104 rlineto
          -54 38 85 -48 54 hhcurveto
          55 129 82 84 83 hvcurveto
          164 callgsubr
          67 -54 101 -11 41 31 -103 callgsubr
        </CharString>
        <CharString name="dvC">
          -194 662 266 callgsubr
          -680 -101 callsubr
          82 -213 rmoveto
          296 callsubr
          90 -11 vhcurveto
          120 37 128 112 69 90 -40 48 rcurveline
          -69 -82 -85 -57 -81 -23 137 callgsubr
          375 callgsubr
          rrcurveto
          endchar
        </CharString>
        <CharString name="dvCA">
          130 929 23 callgsubr
          -604 -101 callsubr
          607 hlineto
          -40 -181 -69 -82 -84 -56 -81 -23 rlinecurve
          -15 4 -19 16 -5 12 45 34 57 32 60 29 57 callgsubr
          90 -11 vhcurveto
          93 29 98 73 71 74 12 -10 rcurveline
          -40 -68 -33 -146 68 -54 101 -11 40 31 -103 callgsubr
        </CharString>
        <CharString name="dvCH">
          128 553 400 rmoveto
          130 callsubr
          -17 495 callsubr
          rrcurveto
          345 225 82 callgsubr
          62 -99 70 -67 19 92 callgsubr
          -9 9 rcurveline
          40 51 52 56 50 35 19 59 -36 51 -73 33 -31 -9 -45 -16 -32 -5 -8 11 rcurveline
          51 47 95 71 95 37 rrcurveto
          458 -106 callgsubr
        </CharString>
        <CharString name="dvCHA">
          128 247 146 -19 callsubr
        </CharString>
        <CharString name="dvCH_NA">
          842 968 93 callsubr
          -707 -39 rmoveto
          130 callsubr
          -17 495 callsubr
          rrcurveto
          1088 225 rmoveto
          -1626 -74 callsubr
          62 -99 70 -67 19 92 callgsubr
          -9 9 rcurveline
          40 51 52 56 50 35 19 59 -36 51 -73 33 -31 -9 -45 -16 -32 -5 -8 11 rcurveline
          51 47 95 71 95 37 rrcurveto
          1201 -106 callgsubr
        </CharString>
        <CharString name="dvCH_RA">
          128 211 -105 532 callsubr
          47 6 24 20 -1 37 -49 53 -15 42 -12 86 -39 34 -24 536 callsubr
          -76 -82 -56 471 callsubr
          43 247 -19 callsubr
        </CharString>
        <CharString name="dvCH_R_YA">
          789 219 339 callsubr
          -66 -41 -77 -82 -55 -92 1 -37 32 -37 79 8 32 464 callgsubr
          994 467 -73 callsubr
          -695 -167 rmoveto
          130 callsubr
          -17 495 callsubr
          rrcurveto
          1035 225 -100 callgsubr
          -1246 -74 callsubr
          62 -99 70 -67 19 92 callgsubr
          -9 9 rcurveline
          40 51 52 56 50 35 19 59 -36 51 -73 33 -31 -9 -45 -16 -32 -5 -8 11 rcurveline
          51 47 95 71 95 37 rrcurveto
          368 hlineto
          91 callgsubr
          rrcurveto
          -14 -114 -269 -44 -72 vvcurveto
          -70 124 -85 72 55 129 82 84 83 vhcurveto
          164 callgsubr
          68 -54 101 -11 40 31 -103 callgsubr
        </CharString>
        <CharString name="dvCH_VA">
          134 247 177 rmoveto
          35 48 45 43 50 34 14 294 callsubr
          -65 -48 -79 542 callsubr
          41 -8 35 7 31 4 10 7 7 8 2 16 -4 30 -19 9 -21 -11 -24 -21 -29 -28 423 callgsubr
          5 51 46 437 callgsubr
          -883 hlineto
          -16 -11 -12 -17 -7 -13 19 -17 rcurveline
          226 hlineto
          -70 -32 -60 -39 -50 -41 -24 -56 45 -57 64 -30 43 11 45 15 33 11 5 -9 rcurveline
          -69 -40 -85 -61 -18 -55 -3 -65 64 -46 74 -20 90 20 109 425 callgsubr
          -41 41 -22 182 callsubr
          -58 30 rrcurveto
          266 -106 callgsubr
        </CharString>
        <CharString name="dvCH_YA">
          870 1287 -15 callsubr
          -776 -167 rmoveto
          130 callsubr
          -17 495 callsubr
          rrcurveto
          1116 225 -66 callgsubr
          -1326 -74 callsubr
          62 -99 70 -67 19 92 callgsubr
          -9 9 rcurveline
          40 51 52 56 50 35 19 59 -36 51 -73 33 -31 -9 -45 -16 -32 -5 -8 11 rcurveline
          51 47 95 71 95 37 rrcurveto
          449 210 callsubr
          rrcurveto
          -14 -114 -269 -44 -72 vvcurveto
          -70 125 -85 72 55 129 82 85 83 vhcurveto
          12 -13 -52 callsubr
        </CharString>
        <CharString name="dvC_CA">
          646 1444 23 callgsubr
          -1119 -101 callsubr
          1122 hlineto
          -40 -183 -69 -80 -84 -56 -80 -23 rlinecurve
          -16 4 -18 16 -5 12 44 34 58 32 60 29 24 48 -28 60 -51 28 -115 -7 -115 0 -118 16 -29 -20 -4 -54 34 -43 -71 -74 -90 -62 -74 -19 -17 4 -19 16 -5 12 rrcurveto
          45 34 57 32 60 29 57 callgsubr
          92 -11 vhcurveto
          112 28 147 134 81 97 75 10 70 10 66 10 345 callgsubr
          99 514 callsubr
          97 73 72 74 12 -10 rcurveline
          -39 -68 -33 -146 -67 callgsubr
        </CharString>
        <CharString name="dvC_CHA">
          598 716 146 rmoveto
          41 284 callgsubr
          50 47 96 71 95 37 rrcurveto
          186 hlineto
          1 -16 -2 343 callgsubr
          -18 -72 35 -71 36 382 callgsubr
          -18 33 -12 32 2 29 5 11 6 7 9 2 17 -5 31 -19 10 -22 -9 -21 -17 -23 -24 -24 rrcurveto
          317 319 rmoveto
          -1369 -101 callsubr
          711 hlineto
          -75 -32 -65 -40 -49 -42 -13 -31 10 -35 23 -29 -64 -66 -74 -47 -71 -20 133 callsubr
          6 -8 rcurveline
          -101 -53 -132 467 callsubr
          99 -72 90 -11 vhcurveto
          110 34 116 96 72 85 8 -6 10 -5 9 -4 46 547 callgsubr
          -88 -66 -16 127 callgsubr
        </CharString>
        <CharString name="dvC_CH_VA">
          604 717 177 rmoveto
          35 48 45 43 51 34 13 294 callsubr
          -64 -48 -80 542 callsubr
          40 -8 36 7 31 5 10 6 7 8 2 17 -4 29 -19 9 -21 -11 -24 -20 -29 -29 423 callgsubr
          6 51 45 437 callgsubr
          -1370 -101 callsubr
          713 hlineto
          -70 -32 -60 -39 -50 -41 -13 -31 8 -32 21 -27 -66 -70 -76 -49 -74 -21 133 callsubr
          6 -8 rcurveline
          -101 -53 -132 467 callsubr
          99 -72 90 -11 vhcurveto
          113 35 121 102 71 87 7 -4 7 -4 8 -4 43 11 45 15 33 11 5 -9 rcurveline
          -68 -40 -86 -61 -18 -55 -3 -65 64 -46 74 -20 91 20 108 425 callgsubr
          -40 41 -23 182 callsubr
          -57 30 rrcurveto
          265 -106 callgsubr
        </CharString>
        <CharString name="dvC_MA">
          555 646 124 callsubr
          696 424 rmoveto
          -1355 -101 callsubr
          702 371 callsubr
          -73 -29 -71 -26 -57 -18 -2 -1 rcurveline
          0 vlineto
          -1 -1 -7 -4 -64 -43 -57 -26 -60 -15 rlinecurve
          -15 4 -19 16 -5 12 45 34 57 32 60 29 57 callgsubr
          90 -11 vhcurveto
          71 23 66 39 57 41 31 -49 59 -41 57 -14 -11 callgsubr
        </CharString>
        <CharString name="dvC_NA">
          507 633 245 callgsubr
          26 13 27 14 11 -34 2 -35 -10 -33 rrcurveto
          -327 185 rmoveto
          206 callsubr
          90 -11 vhcurveto
          71 23 66 39 56 41 1 -4 rcurveline
          37 -52 62 -32 75 30 callgsubr
          -27 45 -50 300 callsubr
          -125 389 callgsubr
          -2 -2 -3 -1 -2 -2 -66 -44 -58 -26 -60 -16 133 callsubr
          rrcurveto
          995 236 rmoveto
          -1308 -101 callsubr
          1308 -106 callgsubr
        </CharString>
        <CharString name="dvC_R">
          -194 571 422 rmoveto
          -74 -83 -96 -69 -87 -25 197 callgsubr
          98 34 102 76 75 72 15 -16 rcurveline
          -72 -105 -158 -98 -154 -56 -17 -45 24 -39 64 -22 164 112 117 89 124 169 -64 87 rcurveline
          105 244 rmoveto
          -693 -101 callsubr
          693 -106 callgsubr
        </CharString>
        <CharString name="dvC_RA">
          130 929 23 callgsubr
          -604 -101 callsubr
          607 hlineto
          -36 -162 -67 -73 -91 -64 -81 -23 rlinecurve
          197 callgsubr
          102 35 105 80 76 74 14 -14 rcurveline
          -67 -105 -168 -107 -156 -56 -17 -45 24 -39 64 -22 95 57 124 91 56 12 callsubr
        </CharString>
        <CharString name="dvC_YA">
          535 951 376 -57 callgsubr
          341 58 241 callgsubr
          -28 28 -50 11 -97 -9 -7 -30 rcurveline
          -1008 -101 callsubr
          555 -50 callsubr
          -11 -93 -181 -46 -66 -53 -71 -38 -66 -23 -53 -9 -15 4 -19 16 -5 12 289 callsubr
          rrcurveto
          57 callgsubr
          90 -11 vhcurveto
          80 23 76 41 68 45 rrcurveto
          -56 37 87 -51 56 hhcurveto
          55 129 82 84 83 hvcurveto
          12 -12 -52 callsubr
        </CharString>
        <CharString name="dvCandrabindu">
          -19 811 rmoveto
          34 28 29 33 33 -28 28 -34 -35 -28 -28 -33 -33 28 -29 35 hvcurveto
          99 38 rmoveto
          -31 -53 -41 -29 -66 -14 rrcurveto
          -55 45 -20 66 80 vvcurveto
          -57 25 -56 -23 -38 -62 rrcurveto
          -115 26 116 -86 80 hhcurveto
          80 109 35 69 56 hvcurveto
          -20 53 -40 23 -43 -14 rrcurveto
          endchar
        </CharString>
        <CharString name="dvD">
          -71 54 -18 rmoveto
          -58 -8 -31 318 callsubr
          -73 383 callgsubr
          659 643 46 callgsubr
        </CharString>
        <CharString name="dvDA">
          -71 713 625 46 callgsubr
        </CharString>
        <CharString name="dvDA_mU">
          111 callgsubr
          -109 -103 -243 -4 -147 vvcurveto
          -106 116 -94 153 -12 vhcurveto
          43 54 32 48 37 38 12 -7 rcurveline
          -31 -54 -26 -56 -28 -67 -55 -4 -53 -19 -43 -29 3 -49 33 -36 56 -15 26 23 18 15 31 10 rrcurveto
          4 4 -4 -3 3 hvcurveto
          -8 -44 -50 -40 -66 -20 -81 37 -32 65 -21 73 -60 16 -53 -31 -29 -67 41 -77 130 -85 97 -1 rrcurveto
          111 1 169 98 80 vvcurveto
          17 -12 17 -19 15 vhcurveto
          26 103 23 71 38 95 -38 72 -76 22 -46 -18 -35 -33 -42 -48 -49 -50 -43 15 -39 42 -6 41 72 49 122 54 58 46 163 callgsubr
        </CharString>
        <CharString name="dvDA_mUU">
          111 callgsubr
          -109 -103 -243 -4 -147 vvcurveto
          -106 116 -94 153 -12 vhcurveto
          43 54 32 48 37 38 12 -7 rcurveline
          -31 -55 -26 -53 -29 -72 rrcurveto
          2 -12 -12 1 -11 hhcurveto
          -66 -96 -84 -42 -46 39 -62 64 -41 hvcurveto
          83 23 31 31 -3 50 -27 19 -30 23 -18 29 3 7 5 4 5 4 103 -42 61 -53 68 -105 81 19 41 49 -9 49 -32 41 -57 41 -61 32 22 91 21 76 39 99 rrcurveto
          -38 72 -76 22 -46 -18 -35 -33 -42 -48 -49 -50 -43 15 -39 42 -6 41 72 49 122 54 58 46 163 callgsubr
        </CharString>
        <CharString name="dvDA_mvR">
          258 callgsubr
          117 -99 165 -8 vhcurveto
          44 54 32 48 37 38 9 -7 rcurveline
          -18 -46 -27 -58 -27 -60 -98 -42 -112 -83 -3 -66 rrcurveto
          -43 -2 67 -64 55 hhcurveto
          92 112 19 64 68 hvcurveto
          8 33 -29 34 -62 14 -55 -46 -49 -27 -78 -3 -11 16 rcurveline
          34 58 79 42 94 40 35 101 27 65 36 88 -38 72 -77 20 -46 -17 -35 -33 -42 253 callgsubr
          43 37 22 58 -17 40 rrcurveto
          62 callsubr
        </CharString>
        <CharString name="dvDD">
          -114 206 253 callsubr
          401 callsubr
          -73 383 callgsubr
          477 643 -88 callgsubr
        </CharString>
        <CharString name="dvDDA">
          -114 683 625 -88 callgsubr
        </CharString>
        <CharString name="dvDDH">
          1 280 -18 rmoveto
          -58 -8 -30 318 callsubr
          -74 81 -136 100 -109 37 rrcurveto
          182 198 -68 callsubr
        </CharString>
        <CharString name="dvDDHA">
          1 462 180 -68 callsubr
        </CharString>
        <CharString name="dvDDH_DDHA">
          -107 386 256 rmoveto
          -15 -32 -49 -33 -57 -10 -15 7 -14 8 -13 531 callgsubr
          20 -7 13 -6 10 -11 rrcurveto
          -62 -421 rmoveto
          -15 -31 -49 -34 -58 -9 -15 7 -14 8 -12 531 callgsubr
          19 -7 14 -7 10 -11 rrcurveto
          359 790 485 callsubr
          271 hlineto
          28 -16 22 -16 18 -25 -3 -7 rcurveline
          -61 -40 -103 -38 -86 -40 -27 -21 -18 -38 -3 -42 25 -89 91 -66 96 -11 10 -8 9 -9 8 -11 181 callgsubr
          -11 8 -11 8 -11 6 76 27 84 53 4 52 3 39 -61 57 -95 -3 -42 -30 -67 -44 -61 -40 rrcurveto
          -10 15 -6 15 14 vvcurveto
          3 41 161 51 72 53 31 30 17 35 -14 33 -16 13 -17 12 -18 10 rrcurveto
          279 -106 callgsubr
        </CharString>
        <CharString name="dvDDH_R">
          1 154 -27 callsubr
          149 268 rmoveto
          -15 -41 -49 -35 -64 -11 -17 7 -17 10 -14 11 53 33 48 31 34 19 15 -4 14 -9 12 -11 rrcurveto
          345 424 rmoveto
          -777 hlineto
          -15 -102 callgsubr
          285 hlineto
          37 -20 29 -19 24 -32 -4 -10 rcurveline
          -78 -47 -120 -45 -97 -46 -36 -28 -16 -39 1 -50 41 -104 123 -82 126 -6 rrcurveto
          97 198 90 83 43 -82 70 -120 -5 hvcurveto
          -53 -40 -68 -45 -65 -45 rrcurveto
          -11 16 -6 17 15 vvcurveto
          55 185 53 89 64 vhcurveto
          32 37 16 35 -13 37 -24 19 -26 15 -28 14 rrcurveto
          341 392 callgsubr
        </CharString>
        <CharString name="dvDDH_RA">
          1 296 -120 532 callsubr
          rrcurveto
          47 6 23 20 37 vvcurveto
          -50 53 -14 42 -13 85 -38 35 -24 536 callsubr
          -77 -82 -55 471 callsubr
          173 296 -68 callsubr
        </CharString>
        <CharString name="dvDDH_YA">
          686 1074 243 callgsubr
          -5 44 -58 33 -75 11 -105 -11 -133 -19 -120 -33 1 11 -3 9 -4 10 -21 16 -30 18 -32 16 rrcurveto
          693 hlineto
          -662 -387 rmoveto
          -22 -43 -52 -40 -71 -8 -20 8 -18 11 -16 11 53 34 56 34 36 22 21 -7 18 -9 15 -13 rrcurveto
          1002 445 -100 callgsubr
          -1120 hlineto
          -15 -102 callgsubr
          284 hlineto
          42 -23 34 -20 25 -34 -3 -9 rcurveline
          -81 -49 -127 -47 -104 -49 rrcurveto
          -32 -25 -20 -46 -52 vvcurveto
          39 -108 134 -84 123 -8 rrcurveto
          115 3 184 95 81 vvcurveto
          51 -81 61 -116 2 vhcurveto
          -57 -45 -73 -50 -70 -50 rrcurveto
          -17 20 -10 22 19 vvcurveto
          55 200 81 96 49 vhcurveto
          148 43 140 16 105 -9 166 callsubr
          -44 -64 -31 -131 67 -54 101 -11 41 31 -103 callgsubr
        </CharString>
        <CharString name="dvDDHxA">
          1 242 -29 237 callgsubr
          38 32 32 39 39 -32 32 -38 hvcurveto
          220 209 -68 callsubr
        </CharString>
        <CharString name="dvDD_DDA">
          -114 683 625 184 callsubr
          56 1 60 6 56 9 22 -8 20 -9 14 -11 -3 -7 rcurveline
          -68 -21 -65 -6 -80 -8 -69 -36 -26 -66 31 -44 84 -26 93 -7 79 -23 2 -6 rcurveline
          -75 -33 -130 -7 -98 5 -37 -27 10 -56 60 -40 137 3 164 32 67 36 42 63 2 53 -42 25 -72 18 -99 11 -64 18 2 8 rcurveline
          71 9 80 12 58 20 39 30 21 57 -17 32 -16 12 -17 10 -19 8 39 11 33 11 23 12 232 callsubr
        </CharString>
        <CharString name="dvDD_DDHA">
          -107 324 -165 rmoveto
          -15 -31 -49 -34 -58 -9 -15 7 -14 8 -12 531 callgsubr
          19 -7 14 -7 10 -11 rrcurveto
          359 790 184 callsubr
          46 1 49 4 48 7 15 -11 14 -12 11 -16 181 callgsubr
          -16 13 -16 11 -17 10 54 12 47 15 29 15 232 callsubr
        </CharString>
        <CharString name="dvDD_NA">
          -107 108 -166 361 callgsubr
          -685 -101 callsubr
          295 hlineto
          42 -12 41 -16 23 -20 -3 -6 rcurveline
          -68 -23 -66 -7 -80 -7 -70 -38 -26 -71 32 -46 84 -28 94 -8 80 -24 1 -7 rcurveline
          -75 -34 -132 -7 -98 4 -37 -28 10 -60 59 -42 72 2 79 9 69 15 -13 -57 rcurveline
          -87 -38 -100 -38 -121 -26 230 callsubr
          289 62 158 8 4 42 66 3 56 -43 27 rlinecurve
          -72 19 -100 12 -65 19 2 8 rcurveline
          71 10 81 12 59 22 40 32 20 60 -17 34 -13 11 -13 8 -15 8 rrcurveto
          227 -106 callgsubr
        </CharString>
        <CharString name="dvDD_R">
          -114 76 -27 callsubr
          461 692 485 callsubr
          296 hlineto
          32 -13 32 -14 19 -18 -4 -8 rcurveline
          -62 -23 -74 -11 -88 -11 -75 -42 -27 -74 30 -49 89 -31 98 -11 85 -27 2 -7 rcurveline
          -70 -39 -140 -15 -109 4 -36 -31 8 -60 60 -47 144 4 176 42 70 43 46 72 1 58 -41 28 -77 22 -106 13 -70 22 5 14 rcurveline
          75 11 82 16 61 24 42 34 22 63 -15 36 -11 9 -12 9 -12 7 rrcurveto
          225 -106 callgsubr
        </CharString>
        <CharString name="dvDD_RA">
          -114 228 -120 532 callsubr
          rrcurveto
          47 6 23 20 37 vvcurveto
          -50 53 -14 42 482 callgsubr
          -91 1 -38 32 -37 79 8 32 464 callgsubr
          462 741 -88 callgsubr
        </CharString>
        <CharString name="dvDD_VA">
          -107 277 -62 rmoveto
          -40 -37 -46 -38 -37 -32 rrcurveto
          -20 12 548 callsubr
          27 -16 14 -19 19 -27 rrcurveto
          416 667 rmoveto
          -685 -101 callsubr
          305 hlineto
          38 -11 36 -14 22 -18 -3 -6 rcurveline
          -67 -21 -65 -7 -78 -8 -70 -35 -25 -66 31 -44 83 -27 92 -7 79 -23 1 -6 rcurveline
          -74 -33 -129 -7 -97 4 -37 -26 10 -57 59 -40 71 2 78 9 68 14 -20 -112 rcurveline
          -7 -4 -30 37 -36 39 -21 -1 rlinecurve
          -120 -114 -111 450 callgsubr
          -8 rcurveline
          -36 -47 -19 -75 55 -43 80 -11 34 27 rlinecurve
          9 304 64 168 6 3 42 63 2 53 -42 25 rlinecurve
          -71 18 -98 11 -64 19 2 7 rcurveline
          70 9 79 12 58 21 39 30 21 56 -17 33 -12 9 -12 7 -12 7 rrcurveto
          223 -106 callgsubr
        </CharString>
        <CharString name="dvDD_YA">
          565 974 342 rmoveto
          -51 -61 -83 -59 -51 -20 -33 4 -32 395 callgsubr
          39 -58 38 -64 11 -115 -13 -93 -23 -103 -29 3 19 0 18 -5 14 457 callsubr
          590 185 callsubr
          -1024 -101 callsubr
          289 hlineto
          35 -15 34 -14 21 -22 -4 -9 rcurveline
          -63 -25 -73 -12 -89 -12 -74 -44 -28 -77 30 -52 88 -33 99 -12 85 -29 2 -9 rcurveline
          -71 -41 -140 -17 -109 25 callsubr
          -40 31 -77 23 -106 14 -69 24 4 15 rcurveline
          70 17 85 25 87 22 124 31 127 26 79 -6 166 callsubr
          -45 -64 -30 -131 -79 callsubr
        </CharString>
        <CharString name="dvDDxA">
          -114 198 -27 -48 callgsubr
          485 652 -88 callgsubr
        </CharString>
        <CharString name="dvDH">
          -222 368 callsubr
          42 -314 rmoveto
          433 callgsubr
          -25 callgsubr
          92 21 127 62 32 81 -6 86 -52 43 -51 29 callsubr
          106 17 197 141 61 93 -55 47 rcurveline
          550 callsubr
          -87 -99 -29 rrcurveto
          439 437 rmoveto
          -165 -48 callsubr
          166 -106 callgsubr
        </CharString>
        <CharString name="dvDHA">
          102 368 callsubr
          711 110 -100 callgsubr
          -59 -48 callsubr
          63 hlineto
          -42 -188 550 callsubr
          -87 -99 -29 rlinecurve
          -9 13 45 44 45 39 59 38 rlinecurve
          -25 callgsubr
          92 21 127 62 32 81 -6 86 -52 43 -51 29 callsubr
          81 516 callgsubr
          11 -12 rcurveline
          -44 -55 -32 -142 67 -54 101 -11 41 31 -103 callgsubr
        </CharString>
        <CharString name="dvDH_MA">
          510 667 269 callgsubr
          -72 -29 -71 -26 -57 -18 -6 -3 -6 -5 -5 -4 rrcurveto
          0 vlineto
          -49 -42 -76 -49 -79 -24 -9 13 rcurveline
          433 callgsubr
          -25 callgsubr
          74 17 97 43 51 59 rrcurveto
          219 hlineto
          -39 -372 103 callgsubr
          -441 311 18 callsubr
          1118 110 rmoveto
          -859 hlineto
          -10 77 -50 39 -48 29 callsubr
          66 11 86 52 66 51 33 -46 55 -37 53 -13 187 callgsubr
          87 43 20 42 20 41 22 10 -6 rcurveline
          -87 -382 67 -54 101 -11 40 31 rlinecurve
          11 338 76 113 -28 -38 callsubr
        </CharString>
        <CharString name="dvDH_NA">
          461 368 callsubr
          397 -325 96 callgsubr
          -810 hlineto
          -10 77 -50 39 -48 29 callsubr
          65 10 84 51 66 51 37 -49 61 -30 71 -14 38 callsubr
          -126 389 callgsubr
          -6 -4 -6 -5 -5 -6 -49 -42 -75 -47 -77 -24 -9 13 rcurveline
          433 callgsubr
          -25 callgsubr
          74 17 97 43 51 59 rrcurveto
          823 392 callgsubr
        </CharString>
        <CharString name="dvDH_N_YA">
          925 1341 376 -57 callgsubr
          -919 -270 rmoveto
          -6 -3 -5 -3 -6 -3 -5 -3 rlinecurve
          -62 -35 -66 -38 -73 -24 -9 13 rcurveline
          433 callgsubr
          -25 callgsubr
          74 17 97 43 51 59 rrcurveto
          506 -50 callsubr
          -10 -78 478 callsubr
          -43 -134 35 -217 -1 -120 -58 rrcurveto
          104 -139 72 callsubr
          -33 1 -34 -9 -32 rrcurveto
          -408 347 18 callsubr
          1534 110 -57 callsubr
          -947 hlineto
          -10 77 -50 39 -48 29 callsubr
          59 10 69 38 64 41 rrcurveto
          -2 vlineto
          77 callsubr
          53 2 52 -5 50 -7 rrcurveto
          -5 -7 -3 -7 -7 280 callsubr
          16 11 8 17 4 16 rrcurveto
          endchar
        </CharString>
        <CharString name="dvDH_R">
          -223 180 522 rmoveto
          34 50 54 49 47 26 15 -2 7 -11 2 -15 -18 -38 -56 -40 -58 -14 rrcurveto
          319 -113 rmoveto
          550 callsubr
          -86 -99 -29 441 callgsubr
          45 38 56 36 -3 52 -25 32 -63 20 -35 -16 -52 -20 -42 -9 -12 12 -5 12 -1 15 1 7 3 7 3 8 52 -19 rcurveline
          99 21 98 59 47 76 -6 86 -52 43 -51 549 callsubr
          2 -60 34 -33 68 -37 50 8 49 17 39 16 5 -6 rcurveline
          -72 -56 -109 -11 -18 -61 rrcurveto
          -52 70 -62 84 -18 vhcurveto
          83 19 131 91 82 81 9 -16 rcurveline
          -84 -118 -150 -81 -144 -50 -17 -45 24 -39 63 -22 163 111 118 89 123 170 -55 57 rcurveline
          4 7 5 6 3 6 rrcurveto
          95 255 rmoveto
          -157 -48 callsubr
          158 -106 callgsubr
        </CharString>
        <CharString name="dvDH_RA">
          103 180 522 61 callgsubr
          -157 -29 -133 -162 -34 -90 2 -60 34 -33 68 -37 50 8 49 17 39 16 5 -6 rcurveline
          -72 -56 -109 -11 -18 -61 rrcurveto
          -52 70 -62 84 -18 vhcurveto
          83 13 136 95 85 86 7 -8 rcurveline
          -40 -64 -81 -70 -146 -89 -117 -37 rlinecurve
          -17 -45 24 -39 63 -22 96 57 123 91 57 12 callsubr
        </CharString>
        <CharString name="dvDH_VA">
          436 848 319 18 callgsubr
          -683 168 18 callsubr
          1044 110 -28 callsubr
          -394 -48 callsubr
          402 hlineto
          -23 143 callgsubr
          -96 -94 -61 -80 552 callgsubr
          550 callsubr
          -87 -99 -29 rlinecurve
          -9 13 45 44 45 39 59 38 rlinecurve
          -25 callgsubr
          92 21 127 62 32 81 -6 86 -52 43 -51 29 callsubr
          72 12 113 68 85 72 11 -87 85 207 callsubr
          13 callgsubr
          67 -54 101 -11 41 31 -103 callgsubr
        </CharString>
        <CharString name="dvDH_YA">
          465 882 378 rmoveto
          -59 -76 -77 -55 -72 -29 -28 1 -42 29 6 -49 callsubr
          -484 -267 rmoveto
          -52 -42 -76 -48 -71 -22 -9 13 rcurveline
          433 callgsubr
          -25 callgsubr
          74 17 97 43 51 59 rrcurveto
          47 163 callsubr
          -11 -90 -170 -46 -71 -52 rrcurveto
          -270 213 18 callsubr
          1074 110 -66 callgsubr
          -487 hlineto
          -10 77 -50 39 -48 29 callsubr
          71 13 87 52 66 52 rrcurveto
          -51 40 81 -45 52 hhcurveto
          55 129 82 84 83 hvcurveto
          95 callsubr
        </CharString>
        <CharString name="dvD_BA">
          45 callgsubr
          45 56 rrcurveto
          0 vlineto
          36 45 27 42 33 33 -21 callsubr
        </CharString>
        <CharString name="dvD_BHA">
          -35 446 170 rmoveto
          -13 -33 -23 -62 -24 -66 -34 -16 -40 -16 -42 -14 9 32 8 32 7 31 13 -2 13 -2 14 -1 37 47 32 37 31 39 rrcurveto
          -348 -390 rmoveto
          -19 12 -14 15 -13 21 28 8 28 8 27 8 -7 -21 -10 -22 -11 -25 rrcurveto
          95 297 rmoveto
          -4 -23 -6 -25 -7 -23 -69 -12 rcurveline
          -10 7 -8 13 -2 14 28 16 43 19 29 17 rrcurveto
          580 535 rmoveto
          -756 -101 callsubr
          323 hlineto
          39 -20 32 -22 17 478 callgsubr
          -110 -107 -237 8 -133 vvcurveto
          -48 22 -43 38 -34 vhcurveto
          -32 -17 -33 -14 -27 -9 -19 -11 -13 -31 -5 -23 8 -37 36 -36 52 -21 89 31 rcurveline
          4 -8 -20 -21 -2 -5 -2 -6 -1 -5 rlinecurve
          -57 -16 -53 -12 -40 -8 -40 -10 -14 -41 -2 -26 16 -43 47 -46 47 -19 40 -9 59 9 36 31 23 47 22 57 19 59 38 13 37 14 37 15 -23 -64 -22 -63 -12 -43 rrcurveto
          11 -45 63 -30 86 9 28 161 55 225 42 123 431 callgsubr
          -26 -32 -42 -43 -43 -41 -48 9 -43 33 -9 46 79 54 115 44 58 42 43 37 19 54 -18 40 rrcurveto
          -17 16 -20 14 -21 13 rrcurveto
          294 -106 callgsubr
        </CharString>
        <CharString name="dvD_B_RA">
          45 callgsubr
          44 56 rrcurveto
          0 vlineto
          36 46 34 50 32 40 12 -6 rcurveline
          -17 -52 -30 -102 -33 -106 -80 -72 -140 -81 -111 -40 -17 -45 24 -39 63 -22 91 57 115 86 55 62 434 callsubr
          -72 28 -27 46 -10 63 5 rlinecurve
          30 144 40 244 42 120 -45 68 -76 17 -42 -17 -27 -32 -55 -66 -46 -50 -43 16 -40 41 -4 41 74 520 callgsubr
          58 42 42 10 callsubr
        </CharString>
        <CharString name="dvD_DA">
          -135 693 625 rmoveto
          -681 -98 callsubr
          299 hlineto
          30 -12 28 -15 18 -15 -4 -9 rcurveline
          -70 -25 -68 -10 -84 -4 -45 -32 -31 -45 -1 -46 -1 -47 31 -46 69 -34 -74 -19 -71 -55 -1 -60 -1 -94 84 -66 160 -23 45 55 27 31 24 26 12 -7 rcurveline
          -38 -64 -31 -68 -39 -90 8 -42 62 -31 87 5 30 125 21 85 46 115 -37 72 -65 15 -57 -16 -35 -36 -34 -35 -41 -38 -52 18 -31 35 -2 41 75 54 97 23 71 9 rrcurveto
          5 58 -16 35 -47 18 -24 -19 -31 -12 -31 -9 rrcurveto
          -39 22 -16 25 23 vvcurveto
          1 15 6 14 15 13 65 6 69 13 53 21 41 32 23 58 -16 38 -10 9 -11 8 -11 7 rrcurveto
          244 -106 callgsubr
        </CharString>
        <CharString name="dvD_DHA">
          181 259 -94 rmoveto
          31 45 26 29 40 40 rrcurveto
          55 -38 35 -71 14 vhcurveto
          -19 -11 -42 -28 -33 -15 -11 5 -13 7 -7 12 -3 9 -2 9 1 12 43 -8 rcurveline
          47 17 36 17 37 27 17 -44 57 -62 97 -27 -45 -51 -59 -53 -77 -44 rrcurveto
          -8 439 rmoveto
          17 -5 9 -11 2 -20 -21 -52 -55 -50 -86 -24 24 58 55 63 55 41 rrcurveto
          703 290 rmoveto
          -955 hlineto
          -15 -102 callgsubr
          535 122 callsubr
          -60 -57 -94 -27 -76 -34 rrcurveto
          41 -21 -33 19 -39 hhcurveto
          -110 -168 -210 -114 -30 hvcurveto
          -61 61 -51 76 -15 vhcurveto
          49 19 19 11 37 23 6 -5 rcurveline
          -64 -75 -66 -17 -15 -51 1 -57 79 -50 105 9 154 87 129 175 90 114 325 callgsubr
          -40 -42 -37 -42 -47 -48 -44 16 -42 288 callgsubr
        </CharString>
        <CharString name="dvD_GA">
          -50 106 -145 rmoveto
          -18 12 -15 19 -11 25 30 5 30 6 30 7 -10 -26 -12 -25 -15 -22 rrcurveto
          619 769 190 callsubr
          -3 -142 vvcurveto
          -76 61 -66 88 -36 vhcurveto
          2 -26 -2 -11 -3 -11 -3 -13 rlinecurve
          -60 -14 -56 -9 -60 -3 -25 -13 -18 -30 -9 -32 13 -57 39 -41 53 -30 52 -8 61 6 42 27 33 52 34 97 23 89 rrcurveto
          1 hlineto
          40 385 callgsubr
          -26 -79 -68 -214 -36 -105 342 callsubr
          228 callsubr
          rrcurveto
          163 callgsubr
        </CharString>
        <CharString name="dvD_GHA">
          181 238 -104 rmoveto
          41 51 25 24 47 43 9 60 -54 35 -66 12 -25 -13 -33 -18 -32 -12 -10 9 rcurveline
          34 42 46 34 49 34 25 -69 64 -56 94 -30 -57 -66 -62 -48 -83 -42 rrcurveto
          716 739 rmoveto
          -955 -98 callsubr
          535 hlineto
          40 -22 33 -25 17 478 callgsubr
          -99 -91 -210 -17 -37 -105 -99 -40 -109 -64 -67 -76 -5 -68 58 -35 62 -17 51 22 33 20 38 19 7 -5 rcurveline
          -54 -59 -108 -38 -7 -50 11 -58 74 -51 86 -2 180 83 144 204 80 104 325 callgsubr
          -33 -32 -41 -47 -52 -53 -43 16 -41 43 -7 43 82 50 116 57 57 39 rrcurveto
          43 10 callsubr
        </CharString>
        <CharString name="dvD_G_RA">
          -50 126 -106 rmoveto
          -17 12 -15 17 -10 23 29 5 27 6 28 7 -9 -24 -11 -24 -14 -20 rrcurveto
          600 729 190 callsubr
          3 -135 vvcurveto
          -81 67 -67 97 -34 vhcurveto
          1 -9 -2 -10 -3 -10 -3 -11 rlinecurve
          -55 -14 -52 -8 -56 -3 -22 -13 -17 -27 -8 -30 12 -53 36 -37 50 -28 47 -7 56 5 39 25 29 46 29 83 21 79 rrcurveto
          1 hlineto
          39 50 34 44 36 39 12 -6 rcurveline
          -17 -52 -32 -114 -34 -106 -79 -72 -141 -81 -111 -39 -17 -46 24 -38 64 -23 91 57 114 86 56 63 10 -8 rcurveline
          -36 -71 28 -28 46 -10 63 6 rlinecurve
          30 143 43 256 42 120 215 callgsubr
        </CharString>
</ttFont>
